<?xml version="1.0" encoding="utf-8"?>
<svg
	xmlns:dc="http://purl.org/dc/elements/1.1/"
	xmlns:cc="http://creativecommons.org/ns#"
	xmlns:rdf="http://www.w3.org/1999/02/22-rdf-syntax-ns#"
	xmlns:svg="http://www.w3.org/2000/svg"
	xmlns="http://www.w3.org/2000/svg"
	height="512"
	width="512">
	<circle
		r="256"
		cy="256"
		cx="256"
		style="fill:#f7296e" />
	<path
		d="M 142.4,162.00002 C 97.440001,165.28001 58.920001,203.88 56,248.88001 v 14.76 c 3.08,45.08 42.120001,83.23999 87.04,86.36 h 14.59999 c 35.64,-3.24001 65.6,-26.59999 87.2,-53.8 -5.28,-8 -10.6,-15.96001 -16.08,-23.79999 -13.88,21.19999 -32,41.19999 -56.4,49.99999 -21.96,8.24 -47.43999,2.96 -65.71999,-11.19999 -24.399999,-17.88001 -33.279999,-52.51999 -22.359999,-80.43999 12.400001,-33.92001 53.999999,-53.88001 88.039989,-41.12 27.56,10.35998 44.56,35.99998 61.2,58.79999 19.36,25.8 35.36,54.76 60.28,75.87997 17.16,15.08002 39.2,23.80001 61.88,25.68001 h 13.56 C 406.08,346.60001 439.76,321.16001 451.32,285.76 c -8.4,-0.0401 -16.84,-0.0401 -25.24,0.12 -16.52,34.84 -63.52001,51.72 -97.12001,31.07999 -46.48,-28.51998 -66.56,-82.59997 -103.08,-120.91999 -17.6,-18.59998 -41.36,-31.51999 -67.04,-34.03999 z m 212.35999,0 c -35.88,3.44001 -65.64,27.31999 -86.96,54.92 5,7.64001 10.16,15.19999 15.36,22.67999 13.52,-20.2 31.04,-39.12 54.32,-47.76 C 366.67999,180.4 403.2,191.19999 420.48,217.6 c 7.08,10.12 9.8,22.36002 11.88,34.32001 -29.52,0.2 -59.04001,0 -88.60001,0.08 0.0401,6.76002 0.0401,13.48 0,20.23998 37.4,-0.0401 74.84001,0.20002 112.24001,-0.15999 v -23.12004 c -3.72,-45.08 -42.28,-83.99999 -87.60001,-86.95998 z"
		style="fill:#ffffff" />
</svg>

