<?xml version="1.0" encoding="utf-8"?>
<svg
	xmlns:dc="http://purl.org/dc/elements/1.1/"
	xmlns:cc="http://creativecommons.org/ns#"
	xmlns:rdf="http://www.w3.org/1999/02/22-rdf-syntax-ns#"
	xmlns:svg="http://www.w3.org/2000/svg"
	xmlns="http://www.w3.org/2000/svg"
	width="512"
	height="512"
	viewBox="0 0 512 512">
	<circle
		style="fill:#412467"
		cx="256"
		cy="256"
		r="256"/>
	<path
		d="M 256.22266 90 C 253.57113 90 251.51978 91.767326 250.77734 92.509766 A 3.50035 3.50035 0 0 0 250.28906 93.123047 L 103.28711 326.98828 A 3.50035 3.50035 0 0 0 103.11914 327.28516 C 102.43487 328.65369 102.05099 330.2617 102.46289 332.11523 C 102.84021 333.81317 104.25716 335.58411 106.11328 336.41211 L 252.99023 420.97656 A 3.50035 3.50035 0 0 0 253.17188 421.07422 C 254.12301 421.54978 255.25915 422 256.59375 422 C 257.92835 422 259.06254 421.54978 260.01367 421.07422 A 3.50035 3.50035 0 0 0 260.17969 420.98633 L 406.4375 337.83398 A 3.50035 3.50035 0 0 0 407.18359 337.26562 C 407.55482 336.89441 408.02688 336.44723 408.5293 335.77734 C 409.03171 335.10746 409.69336 334.10037 409.69336 332.5625 C 409.69336 331.91281 410.05202 330.0513 408.56836 327.99609 A 3.50035 3.50035 0 0 0 408.42188 327.74219 L 262.16211 93.132812 A 3.50035 3.50035 0 0 0 261.66602 92.509766 C 260.92358 91.767326 258.87419 90 256.22266 90 z M 249.00977 121.97852 L 249.00977 200.41016 C 249.00977 208.09459 248.55258 212.27031 246.95117 215.125 C 245.34976 217.97969 242.17421 220.41725 235.28906 224.04102 L 235.35352 224.00781 C 234.40237 224.48338 233.77661 224.88806 233.49805 225.02734 C 233.21949 225.16662 233.36613 225.12305 233.20703 225.12305 A 3.50035 3.50035 0 0 0 231.64062 225.49219 L 230.1582 226.23438 C 230.1582 226.23438 230.15625 226.23438 230.15625 226.23438 C 229.80772 226.39342 229.49197 226.57872 229.22852 226.75781 A 3.50035 3.50035 0 0 0 228.72266 226.95312 C 209.04304 236.39935 194.91048 256.03637 193.33594 278.86719 A 3.50035 3.50035 0 0 0 196.82812 282.60742 C 197.14632 282.60742 198.23193 282.98022 199.7168 283.72266 A 3.50035 3.50035 0 0 0 201.28125 284.09375 C 200.4858 284.09375 200.92264 284.0483 201.20117 284.1875 C 201.47973 284.32678 201.81862 284.59401 201.77734 284.55273 A 3.50035 3.50035 0 0 0 207.75195 282.07812 C 207.75195 263.41516 218.66921 248.34215 235.51367 239.91992 A 3.50035 3.50035 0 0 0 236.27148 239.40234 C 236.09786 239.55013 236.11631 239.5088 236.54102 239.36719 C 236.94229 239.23343 237.66476 238.95347 238.46289 238.43555 C 242.37726 236.83867 246.1128 234.60008 249.20508 232.30273 C 249.48349 232.16061 249.60132 232.1128 249.80469 231.97461 A 3.50035 3.50035 0 0 0 251.27344 231.09766 C 251.23214 231.13896 251.66779 230.79308 252.22461 230.42188 C 252.78143 230.05066 253.4585 229.65477 254.24219 228.87109 C 254.98462 228.12866 254.98413 228.12721 255.72656 227.38477 C 259.10878 224.00256 261.17595 220.10357 262.22461 215.69922 C 263.27327 211.29486 263.43359 206.42253 263.43359 200.41016 L 263.43359 122.0293 L 386.08398 318.13672 L 337.08398 296.69727 C 330.58893 293.81058 326.90946 291.46914 324.57422 288.53125 C 322.26537 285.62656 320.92915 281.7092 319.85938 275.03711 L 319.85938 274.6543 A 3.50035 3.50035 0 0 0 319.81055 274.07812 C 315.87444 250.46151 298.50908 231.56601 275.04688 224.52734 A 3.50035 3.50035 0 0 0 274.88867 224.48438 L 271.91992 223.74219 A 3.50035 3.50035 0 0 0 267.57031 227.13867 C 267.57031 227.21081 267.58573 227.22957 267.59961 227.23633 C 267.56486 227.23737 267.45299 227.29115 267.11133 227.63281 C 266.32763 228.41651 265.93176 229.09357 265.56055 229.65039 C 265.18933 230.20722 264.84155 230.64283 264.88281 230.60156 A 3.50035 3.50035 0 0 0 266.50977 236.47266 L 269.47852 237.21484 A 3.50035 3.50035 0 0 0 269.54102 237.23047 C 287.49833 241.37446 301.99013 255.93036 304.72852 273.6875 A 3.50035 3.50035 0 0 0 304.77539 273.92578 A 3.50035 3.50035 0 0 0 304.83008 274.15039 L 305.43555 276.57031 L 305.43555 277.62305 A 3.50035 3.50035 0 0 0 305.46484 278.07617 C 306.6315 287.02056 309.15738 293.34674 313.73633 298.13867 C 318.31528 302.9306 324.48537 306.01679 332.72852 309.76367 A 3.50035 3.50035 0 0 0 332.77539 309.78516 L 385.79492 332.98047 L 263.43359 402.99805 L 263.43359 365.23047 C 263.43359 357.11674 263.74955 353.06446 265.15039 350.46289 C 266.5491 347.86529 269.57945 345.56309 276.51367 341.54688 C 279.25192 340.17787 282.19023 338.65367 285.1875 336.49609 L 287.02539 335.88281 A 3.50035 3.50035 0 0 0 287.48438 335.69336 C 297.08017 330.89546 304.89377 323.0403 310.38477 314.41992 C 310.40727 314.38622 310.80016 313.79989 311.23047 313.04688 C 311.4517 312.65972 311.68303 312.23516 311.90039 311.74609 C 312.11776 311.25702 312.43555 310.9011 312.43555 309.54883 A 3.50035 3.50035 0 0 0 311.41016 307.07227 C 310.62646 306.28857 309.94745 305.8927 309.39062 305.52148 C 308.8338 305.15027 308.39818 304.80443 308.43945 304.8457 C 308.48075 304.887 308.13488 304.45135 307.76367 303.89453 C 307.39246 303.33771 306.99657 302.66064 306.21289 301.87695 A 3.50035 3.50035 0 0 0 300.60742 302.78516 C 296.50065 310.99869 289.57259 317.96498 281.18555 322.85742 A 3.50035 3.50035 0 0 0 281.00781 322.96875 L 278.78125 324.45508 C 275.57036 326.11788 272.69294 328.21115 270.24805 329.43359 A 3.50035 3.50035 0 0 0 270.14648 329.48633 C 260.99082 334.44565 255.59917 338.78993 252.7207 344.54688 C 249.84223 350.30381 249.75195 356.64176 249.75195 365.23047 L 249.75195 402.99023 L 125.16406 331.50586 L 176.64648 309.06641 L 180.30859 307.60156 A 3.50035 3.50035 0 0 0 180.57422 307.48047 C 182.05911 306.73803 186.348 304.88086 188.66016 304.88086 C 192.37233 304.88086 196.08122 305.12252 197.80664 307.2793 C 200.74082 310.94702 202.96738 313.91722 205.97266 317.67383 A 3.50035 3.50035 0 0 0 205.99805 317.70312 C 212.97253 326.22749 221.56156 333.27089 231.74023 337.96875 A 3.50035 3.50035 0 0 0 232.35742 338.18555 C 235.194 338.89469 237.42248 339.63834 240.52539 340.41406 A 3.50035 3.50035 0 0 0 243.84766 339.49219 C 245.24045 338.09939 245.83949 336.71416 246.47852 335.37891 L 248.30273 333.55273 A 3.50035 3.50035 0 0 0 246.4043 327.62695 C 242.37416 326.95526 238.1854 325.57456 234.65039 324.16797 C 227.69277 320.6684 221.39249 315.76191 216.53711 310.21289 A 3.50035 3.50035 0 0 0 216.37891 310.04297 L 215.63672 309.30078 C 215.67802 309.34208 215.73443 309.46691 215.54883 309.0957 C 215.36322 308.7245 214.93408 307.85596 214.15039 307.07227 C 213.07801 305.99988 210.85965 303.1157 208.73828 299.58008 A 3.50035 3.50035 0 0 0 208.21094 298.90625 C 205.70865 296.40396 203.05538 294.64195 199.87695 293.05273 A 3.50035 3.50035 0 0 0 199.16016 292.78906 C 196.05728 292.01334 192.0968 291.19922 187.91797 291.19922 C 184.3649 291.19922 180.93272 292.0347 178.23438 292.96875 C 176.8852 293.43577 175.73711 293.92313 174.78906 294.42773 C 174.31504 294.68004 173.90001 294.92079 173.4375 295.2832 C 173.4105 295.3043 173.3732 295.35115 173.3457 295.37305 L 171.96289 295.83398 A 3.50035 3.50035 0 0 0 171.50391 296.02344 L 167.125 298.21289 L 127.17578 315.83594 L 249.00977 121.97852 z"
		style="fill:#edefef"/>
</svg>

