<?xml version="1.0" encoding="utf-8"?>
<svg
	xmlns:dc="http://purl.org/dc/elements/1.1/"
	xmlns:cc="http://creativecommons.org/ns#"
	xmlns:rdf="http://www.w3.org/1999/02/22-rdf-syntax-ns#"
	xmlns:svg="http://www.w3.org/2000/svg"
	xmlns="http://www.w3.org/2000/svg"
	height="512"
	width="512">
	<circle
		style="fill:#f3ba2f"
		cx="256"
		cy="256"
		r="256" />
	<path
		style="fill:#ffffff"
		d="m 255.99666,76 -110.58999,110.5956 40.67812,40.68 69.91187,-69.9103 69.94774,69.94612 40.67982,-40.68 z m 0,138.69918 -30.5064,30.50612 h -0.002 l -3.50474,3.5064 -7.2288,7.2306 -0.0576,0.054 0.0576,0.063 41.24168,41.24314 41.27929,-41.2794 0.018,-0.027 -0.036,-0.018 h 0.018 z M 116.68129,215.31334 76,255.99432 l 40.67848,40.67866 40.68129,-40.68108 z m 278.64025,0.027 -40.6809,40.68108 40.67846,40.67856 L 436,256.0144 Z m -69.37894,69.35444 -69.94594,69.9444 -69.91187,-69.91028 -40.73928,40.6259 0.0576,0.054 L 255.99666,436 366.62422,325.37028 l 0.018,-0.018 z" />
</svg>

