<?xml version="1.0" encoding="utf-8"?>
<svg
	xmlns:dc="http://purl.org/dc/elements/1.1/"
	xmlns:cc="http://creativecommons.org/ns#"
	xmlns:rdf="http://www.w3.org/1999/02/22-rdf-syntax-ns#"
	xmlns:svg="http://www.w3.org/2000/svg"
	xmlns="http://www.w3.org/2000/svg"
	width="512"
	height="512"
	viewBox="0 0 512 512">
	<circle
		style="fill:#00206b"
		r="256"
		cy="256"
		cx="256"/>
	<circle
		style="fill:#ffffff"
		r="245.5"
		cy="256"
		cx="256"/>
	<circle
		style="fill:#eba809"
		r="232.5"
		cy="256"
		cx="256"/>
	<circle
		style="fill:#ffffff"
		r="160"
		cy="255.99998"
		cx="256"/>
	<circle
		style="fill:#00206b"
		r="147"
		cx="256"
		cy="256"/>
	<circle
		style="fill:#ffffff"
		r="136.5"
		cy="256"
		cx="256"/>
	<path
		style="fill:#00206b"
		d="m 351.4169,203.33986 c -2.88807,-29.9213 -28.69343,-39.96047 -61.27475,-42.82528 l 8.7e-4,-41.50553 -25.24377,-0.002 -0.006,40.41529 c -6.6284,-6.5e-4 -13.41055,0.11992 -20.14617,0.26114 l -0.022,-40.67543 -25.21994,-0.008 0.0235,41.48332 -50.88485,0.0639 0.0128,26.9862 c 0,0 18.63824,-0.35029 18.32851,-0.006 10.22242,0.008 13.55674,5.94567 14.52275,11.07459 l 0.0275,113.69804 c -0.44821,3.22034 -2.33795,8.35207 -9.48165,8.35094 0.32467,0.28747 -18.35121,-0.0299 -18.35121,-0.0299 l -4.99726,30.21101 50.86854,0.16583 0.0216,41.98346 25.20912,0.01 -0.007,-41.53584 c 6.9347,0.14073 13.61936,0.20103 20.15468,0.19727 l 1.8e-4,41.34404 25.23945,0.003 -0.003,-41.90757 c 42.43214,-2.42815 72.12996,-13.12081 75.79635,-52.97739 2.96816,-32.11366 -12.11963,-46.45069 -36.21064,-52.25212 14.62774,-7.4695 23.7722,-20.60417 21.62614,-42.50381 m -35.28503,89.74042 c 0.003,31.37297 -53.63767,27.79256 -70.75158,27.79966 l -0.008,-55.61852 c 17.10847,0.008 70.73927,-4.899 70.76737,27.81237 m -11.74566,-78.47028 c 0.003,28.5521 -44.75236,25.20417 -59.00834,25.19869 l -0.0311,-50.45253 c 14.2614,0.009 59.01846,-4.5142 59.0216,25.25599"/>
</svg>

