<?xml version="1.0" encoding="utf-8"?>
<svg
	xmlns:dc="http://purl.org/dc/elements/1.1/"
	xmlns:cc="http://creativecommons.org/ns#"
	xmlns:rdf="http://www.w3.org/1999/02/22-rdf-syntax-ns#"
	xmlns:svg="http://www.w3.org/2000/svg"
	xmlns="http://www.w3.org/2000/svg"
	height="512"
	width="512">
	<circle
		r="256"
		style="fill:#f4f7fe"
		cy="256"
		cx="256" />
	<path
		d="M 241.14648 91.011719 C 236.7493 90.880604 233.35156 91.912606 233.35156 94.333984 C 233.35156 95.097374 235.25923 96.433875 237.74023 97.197266 C 241.55714 98.533199 241.366 98.72489 235.64062 99.488281 C 231.63288 100.06082 228.00807 99.295753 226.09961 97.578125 C 221.71016 93.761173 212.7407 92.426626 206.25195 94.716797 C 200.52658 96.81612 198.99838 100.06055 203.76953 100.06055 C 205.29629 100.06055 206.63281 100.8231 206.63281 101.77734 C 206.63281 104.64005 195.75525 106.16768 191.55664 104.06836 C 186.59465 101.39649 179.34144 101.39509 173.23438 104.25781 C 167.31815 106.92967 166.9373 111.51172 172.85352 111.51172 C 176.67043 111.51172 176.47845 111.89231 171.13477 115.13672 C 167.12702 117.61774 161.97508 118.76311 155.48633 118.57227 C 148.42504 118.19057 144.98908 119.14455 141.93555 121.81641 C 137.35525 125.82421 136.02071 134.60406 140.41016 130.78711 C 141.93693 129.64203 143.65459 129.26005 144.41797 130.02344 C 144.99051 130.78683 142.12773 134.98551 137.73828 139.375 L 129.72266 147.39062 L 139.26367 152.35156 C 144.60735 155.02342 154.72248 158.07757 161.97461 159.22266 C 187.92962 163.61215 201.47922 166.85632 212.35742 171.81836 L 223.23633 176.58984 L 234.87891 172.77344 C 256.44447 165.52123 282.01782 168.95541 300.7207 181.74219 C 305.49184 185.17745 309.88058 187.84961 310.45312 187.84961 C 311.02567 187.84961 311.59766 185.55943 311.59766 182.50586 C 311.59766 169.71908 325.33937 163.61303 331.82812 173.53711 C 336.02672 179.83508 335.07248 205.40793 330.49219 209.98828 C 327.6295 212.66014 327.62894 213.99584 330.30078 222.58398 C 332.20924 229.07279 332.78152 237.47074 332.20898 248.1582 C 331.82729 256.93719 332.01843 264.18945 332.97266 264.18945 C 333.73604 264.18945 335.83512 260.75333 337.55273 256.55469 C 339.27034 252.35604 342.70651 247.20339 345.1875 245.29492 C 348.24104 243.00475 350.3393 238.42521 351.48438 232.89062 C 352.4386 227.92858 354.72826 222.20284 356.63672 220.10352 C 359.11771 217.43165 360.26423 212.85042 360.45508 205.78906 C 360.64592 200.06363 362.17245 193.57476 363.69922 191.09375 C 366.37106 186.8951 366.94395 183.65115 369.80664 159.22266 C 370.95171 149.29859 370.76051 148.15315 363.69922 138.41992 C 356.25623 127.92331 350.91181 123.15263 348.8125 125.25195 C 348.04912 125.82449 348.43109 128.30497 349.57617 130.4043 C 351.29378 133.45786 351.29323 134.03097 349.38477 133.26758 C 348.04885 132.88588 345.56918 129.64229 343.85156 126.20703 C 342.3248 122.77177 337.93466 118.5731 334.30859 116.85547 C 327.2473 113.22936 324.57512 115.13618 329.53711 120.28906 C 334.68994 125.44195 332.78145 127.16043 326.86523 122.58008 C 323.8117 120.28991 321.14062 117.42773 321.14062 116.0918 C 321.14062 111.51146 309.68964 103.87695 302.4375 103.87695 L 295.56641 103.87695 L 299.95703 107.88477 C 302.24718 110.17494 303.96512 112.27456 303.39258 112.65625 C 301.86582 114.18303 292.51422 108.45786 291.36914 105.4043 C 289.65153 100.06057 281.06241 94.333984 274.38281 94.333984 C 266.36729 94.333984 265.03076 96.052748 270.18359 100.06055 L 274.38281 103.49609 L 268.6582 102.54102 C 265.41382 101.96848 260.64254 99.297425 257.9707 96.816406 C 254.10608 93.273798 246.80001 91.180294 241.14648 91.011719 z M 108.37891 138.55859 C 105.65227 138.5791 104.81645 142.85772 108.15625 149.29883 C 115.02669 162.849 134.30168 172.39119 159.875 175.25391 C 186.97509 178.30747 211.21284 185.94142 207.20508 189.94922 C 205.67831 191.476 201.67148 190.7126 192.89258 187.27734 C 184.87706 184.03294 173.80756 181.74218 159.49414 180.40625 C 128.0046 177.16184 111.9736 171.24689 98.996094 157.50586 C 87.927044 146.05501 84.490919 151.97046 94.033203 165.90234 C 104.52971 180.97929 117.50716 188.04048 151.85938 197.20117 C 174.37917 203.11744 186.59349 207.50699 188.50195 210.56055 C 189.07449 211.70563 185.83086 213.42327 181.44141 214.56836 C 169.03644 217.81277 168.46289 218.00364 168.46289 221.24805 C 168.46289 223.15653 170.37142 224.11133 173.80664 224.11133 C 179.72286 224.11133 194.03742 230.21708 196.13672 233.65234 C 196.9001 234.98827 195.18131 234.60825 191.74609 232.89062 C 182.5855 228.11944 170.56381 228.882 163.69336 234.60742 L 157.9668 239.37891 L 164.45703 245.10352 C 170.75493 250.44725 170.94416 250.83038 167.89062 254.26562 C 164.45541 258.08258 163.50255 264.18945 166.36523 264.18945 C 167.51031 264.18945 168.84544 263.23492 169.41797 262.08984 C 170.3722 260.7539 171.8993 261.13505 174.18945 263.23438 C 176.86128 265.52454 177.4333 268.19756 176.66992 272.96875 C 175.90654 278.12163 176.28797 279.45703 178.57812 279.45703 C 180.29574 279.45703 182.01396 280.98411 182.77734 282.89258 C 183.92242 286.70953 191.36587 290.9082 196.90039 290.9082 C 198.80885 290.9082 204.34214 288.23659 209.11328 284.99219 C 219.03726 278.50337 225.52645 278.50198 221.90039 285.18164 C 220.75531 287.28097 219.03821 289 218.08398 289 C 216.93891 289 216.17578 289.76311 216.17578 290.9082 C 216.17578 294.72515 225.90883 292.62555 231.44336 287.47266 L 237.35938 282.32031 L 234.6875 272.01367 C 233.35158 266.47909 230.67855 260.94447 228.96094 259.99023 C 226.86163 258.84515 225.7168 259.03515 225.7168 260.37109 C 225.7168 263.99719 220.75635 262.28123 215.60352 256.9375 C 210.64153 251.78462 208.73218 245.10352 211.97656 245.10352 C 214.6484 245.10352 218.08398 249.68444 218.08398 253.31055 C 218.08398 255.21902 218.84655 256.36495 219.80078 255.60156 C 220.94586 255.02902 225.14514 255.02763 229.34375 255.79102 C 236.59588 256.9361 236.97743 257.31895 239.26758 266.86133 C 240.41266 272.20506 245.37478 284.22854 249.95508 293.58008 C 254.53538 302.74076 258.54297 312.85464 258.54297 315.9082 C 258.73381 322.20617 253.58113 329.07617 248.61914 329.07617 C 243.848 329.07617 236.21419 322.39729 229.34375 312.66406 C 220.75569 300.06812 216.17448 302.74084 223.04492 316.29102 C 233.92312 337.28425 252.62766 346.82586 263.50586 336.71094 C 272.47561 328.31365 271.51966 312.85566 260.25977 286.90039 C 252.43509 268.57902 250.71824 258.08202 254.53516 252.73828 C 256.25277 250.25727 256.44445 250.44727 255.49023 253.11914 C 253.96346 257.89033 261.21405 257.70088 264.26758 252.92969 C 265.79434 250.25783 267.32285 249.68359 268.84961 251.01953 C 270.18553 252.16461 271.71208 251.78404 273.42969 250.06641 C 275.1473 247.77624 276.48301 247.58566 279.3457 249.49414 C 282.59007 251.40261 283.73498 251.21148 286.59766 247.39453 C 289.46035 243.38673 290.22297 243.19533 292.32227 245.86719 C 296.13918 250.44753 300.14648 249.68357 300.14648 244.33984 C 300.14648 241.85882 301.29299 239.76032 302.62891 239.95117 C 312.74373 240.33286 314.65196 237.08872 305.87305 234.03516 C 302.24699 232.69923 299.76533 230.21762 299.00195 227.16406 C 298.23857 224.1105 296.52118 222.20312 294.42188 222.20312 C 290.22328 222.20312 287.36053 215.14145 290.41406 212.08789 C 291.55914 210.9428 298.43007 209.98828 305.87305 209.98828 C 322.66747 209.79743 325.33874 207.31719 326.29297 192.24023 C 326.67466 186.13311 326.29407 180.02483 325.33984 178.49805 C 322.09547 173.9177 319.23242 178.30667 319.23242 187.6582 C 319.23242 200.25414 316.94172 201.78208 298.42969 201.40039 L 283.16211 201.20898 L 277.81836 207.88867 C 270.56622 217.2402 262.74213 221.43972 258.73438 218.19531 C 257.20761 216.85938 252.24548 215.71428 248.04688 215.52344 L 240.03125 215.33203 L 239.45898 204.07227 C 238.6956 191.09464 236.7873 187.84961 229.53516 187.84961 C 226.67248 187.84961 220.56412 185.74999 215.79297 183.07812 C 203.19716 176.01676 192.50977 172.77231 171.89844 169.71875 C 143.46243 165.32925 123.99653 156.5499 114.83594 143.57227 C 112.33109 140.06544 110.01489 138.54629 108.37891 138.55859 z M 378.20312 163.03906 C 375.34044 163.03906 374.00531 172.58179 375.15039 185.17773 C 375.91377 192.42994 375.53236 197.39258 374.57812 197.39258 C 373.43306 197.39258 372.66797 196.43862 372.66797 195.48438 C 372.66797 194.33928 371.9054 193.57617 370.95117 193.57617 C 367.89764 193.57617 366.75283 206.55304 369.04297 215.33203 C 370.76059 222.20254 370.76002 224.68249 368.85156 226.97266 C 366.75226 229.64453 366.17938 229.45507 364.08008 226.7832 C 360.45401 221.63032 358.35547 226.97326 358.35547 241.85938 C 358.35547 252.356 357.59232 255.21931 355.11133 256.74609 C 352.24864 258.27287 351.67578 257.89089 351.67578 254.64648 C 351.67578 252.54716 350.91266 250.83008 349.76758 250.83008 C 346.33236 250.83008 343.66043 259.03575 343.08789 271.25 C 342.51536 284.99103 342.70584 284.22768 336.98047 285.94531 C 333.16356 287.0904 332.5918 286.70841 332.5918 282.50977 C 332.5918 279.8379 331.82728 277.54883 330.87305 277.54883 C 328.39205 277.54883 321.14063 293.00727 321.14062 298.16016 C 321.14062 304.45813 317.70587 311.90039 314.65234 311.90039 C 313.31642 311.90039 311.40652 313.23745 310.83398 314.95508 C 308.73468 320.29881 305.49025 315.52733 306.82617 308.84766 C 307.58956 303.88563 307.20923 302.35938 305.30078 302.35938 C 300.52964 302.35938 287.16899 316.28938 279.53516 329.07617 C 269.99288 344.91652 264.26854 349.11523 252.62695 349.11523 C 245.56566 349.11523 241.55768 347.78012 235.25977 343.39062 C 225.3358 336.52011 213.50415 319.15398 210.25977 306.36719 L 207.96875 297.20508 L 201.09766 299.6875 C 197.28074 301.02343 191.9369 301.59598 189.07422 301.02344 C 182.77631 299.87836 166.55469 281.55551 166.55469 275.83008 C 166.55469 273.15822 165.41012 271.82227 162.73828 271.82227 C 157.58545 271.82227 154.53182 265.14255 156.05859 257.12695 C 157.01281 251.40152 156.44023 249.49441 152.05078 244.91406 L 146.70703 239.37891 L 152.81445 231.93555 C 156.24967 227.7369 158.92188 222.77426 158.92188 221.05664 C 158.92188 219.14816 160.25756 216.09598 162.16602 214.1875 C 163.88363 212.27903 164.83816 210.17996 164.26562 209.60742 C 162.54801 208.08064 143.27254 203.11719 138.31055 203.11719 C 132.77602 203.11719 114.45454 221.24777 115.59961 225.82812 C 115.9813 227.54575 113.88221 233.65349 111.01953 239.37891 C 104.72162 252.35655 101.47743 263.23522 103.76758 265.52539 C 104.53096 266.28878 104.339 270.86943 103.38477 275.64062 C 98.995314 294.91624 101.85946 315.52594 108.53906 313.04492 C 110.25667 312.47238 111.40013 313.61915 111.97266 316.29102 C 112.5452 318.58119 113.88227 325.06894 115.02734 330.60352 C 117.50834 343.19946 121.89793 351.97852 125.71484 351.97852 C 128.00499 351.97852 128.38587 350.64367 127.43164 345.68164 L 126.0957 339.57422 L 132.01172 346.25391 C 135.06525 349.88001 137.73688 354.65067 137.92773 356.75 C 138.11857 363.04797 144.99029 376.40654 148.99805 378.50586 C 153.3875 380.79603 160.83008 381.36941 160.83008 379.46094 C 160.83008 378.69755 159.30355 376.98046 157.58594 375.64453 C 154.34156 373.16351 154.34156 373.16351 157.58594 372.97266 C 159.68524 372.97266 163.50116 374.68974 166.55469 376.78906 C 170.94414 380.03347 199.57234 394.53824 204.91602 396.25586 C 205.87025 396.63756 205.10573 401.40795 203.19727 407.32422 L 199.57227 417.63086 L 196.51758 412.47656 C 194.60912 409.61385 192.12833 405.22516 190.60156 402.74414 C 189.0748 400.26312 185.45001 397.78153 182.39648 397.20898 C 179.53379 396.63644 175.33507 395.68331 173.04492 394.91992 C 170.56393 394.15653 167.7014 395.10938 164.45703 397.78125 C 161.21265 400.64396 160.82956 401.59933 163.31055 400.83594 C 168.46339 399.30916 172.28125 401.59935 172.28125 406.17969 C 172.28125 408.85155 173.99865 411.33203 176.86133 412.66797 C 179.72402 414.0039 181.63255 416.67524 182.20508 420.49219 C 182.77762 423.7366 182.77817 426.41016 182.39648 426.41016 C 182.01479 426.41016 178.00664 422.5915 173.61719 417.82031 C 165.41082 409.42302 157.01307 406.56028 154.15039 411.14062 C 153.38701 412.28571 152.24134 412.66825 151.28711 412.0957 C 148.80612 410.56892 142.12804 414.38589 139.83789 418.77539 C 137.92944 422.21065 138.31062 422.40151 143.6543 421.44727 C 147.28036 420.68388 149.37891 421.06641 149.37891 422.40234 C 149.37891 423.54743 154.34215 426.79159 160.44922 429.6543 L 171.32617 434.61523 L 161.40234 435.95117 C 151.28752 437.47795 139.07308 443.58567 137.35547 448.16602 C 136.01955 451.60127 138.88285 464.38868 141.55469 467.06055 C 143.08146 468.58733 143.6543 467.63196 143.6543 464.00586 C 143.6543 459.61636 144.41692 458.85352 149.37891 458.85352 C 153.00497 458.85352 155.67775 457.51813 157.01367 455.03711 C 158.73129 451.7927 161.02162 451.21875 171.70898 451.21875 L 184.49414 451.21875 L 176.28906 459.61719 L 167.89062 468.01367 L 169.60938 479.08398 C 170.5636 485.19111 172.47072 490.34348 173.80664 490.91602 C 174.95172 491.29772 176.09766 490.34319 176.09766 488.81641 C 176.09766 487.09878 178.00672 485.57114 180.29688 485.18945 C 183.54125 484.80775 185.44925 482.13754 188.12109 475.07617 C 192.51054 463.24363 194.03724 461.33425 203.38867 456.75391 L 210.83203 452.9375 L 215.0293 456.75391 C 217.31945 459.04408 220.56559 460.76172 222.2832 460.76172 C 224.19165 460.76172 225.71764 463.24332 226.67188 467.63281 C 227.81695 474.12163 228.19925 474.31249 230.87109 471.64062 C 234.49716 468.20536 236.0234 448.54741 233.35156 443.39453 C 232.20648 441.48605 228.77033 438.43192 225.7168 436.52344 L 219.99219 433.2793 L 224.38086 430.79883 C 230.29708 427.55442 231.44336 427.74528 231.44336 432.13477 C 231.44336 434.23409 232.39733 435.95117 233.35156 435.95117 C 236.59593 435.95117 242.89453 428.5078 242.89453 424.5 C 242.89453 422.40067 243.8485 420.68359 244.80273 420.68359 C 245.9478 420.68359 247.28349 420.49303 248.04688 420.11133 C 248.81026 419.92048 249.9548 422.02066 250.52734 425.07422 L 251.48242 430.22656 L 257.7793 426.02734 C 261.02368 423.54632 265.60439 418.01255 267.89453 413.62305 C 271.13891 406.75254 272.85722 405.41518 278.77344 404.46094 C 294.42278 401.97992 310.64301 397.40093 322.09375 392.24805 C 376.29392 367.62871 411.02787 311.71019 408.54688 252.73828 C 408.16519 238.42472 408.54774 235.5625 410.83789 235.5625 C 412.36465 235.5625 414.84572 236.32506 416.18164 237.2793 C 418.09009 238.42439 418.09037 239.18779 415.60938 241.28711 C 409.12063 246.63084 415.22696 262.09041 424.00586 262.28125 C 425.53263 262.28125 426.10518 261.13504 425.3418 259.22656 C 424.76926 257.69978 425.53239 254.26421 427.25 251.7832 C 430.11268 247.3937 430.68589 247.20313 435.45703 249.875 C 438.51056 251.40178 442.32731 254.64649 444.04492 257.31836 C 445.76253 260.18107 449.00616 262.28125 451.10547 262.28125 C 453.20477 262.28125 454.34987 263.04436 453.77734 264.18945 C 453.2048 265.14369 453.58734 266.09766 454.73242 266.09766 C 461.41201 266.09766 458.74012 252.35712 450.72461 244.91406 L 445 239.57031 L 449.76953 238.23438 C 452.44137 237.66183 455.49555 237.66044 456.64062 238.42383 C 457.78571 239.18722 459.88535 238.80663 461.41211 237.4707 C 463.12972 236.13476 464.27429 235.94392 465.22852 237.4707 C 466.94613 240.33341 470 239.76004 470 236.51562 C 470 232.31698 458.74103 221.63087 455.6875 222.9668 C 453.39736 223.73019 453.20539 223.34681 455.30469 219.7207 C 456.44977 217.43053 458.35827 214.94949 459.3125 214.37695 C 462.93857 211.70508 457.97646 208.84375 449.96094 208.84375 C 442.13627 208.84375 441.3736 208.27119 440.22852 203.5 C 439.65599 200.63728 439.08343 197.77316 438.89258 197.00977 C 438.70174 196.24638 435.64868 197.39287 432.4043 199.49219 C 427.06062 202.92745 426.10547 204.64399 426.10547 211.13281 L 426.10547 218.76758 L 416.5625 210.17969 C 411.21882 205.4085 404.34846 200.4467 401.29492 198.91992 C 398.05055 197.58398 394.42604 193.76644 392.51758 189.37695 C 390.79997 185.36915 387.74635 180.78794 385.83789 179.07031 C 383.92944 177.35268 381.8298 172.96456 381.06641 169.5293 C 380.49388 165.9032 379.15735 163.03906 378.20312 163.03906 z M 103.76758 187.84961 L 98.996094 196.05664 C 96.5151 200.44614 91.934951 210.75254 89.072266 218.95898 C 86.018735 227.16543 81.629993 236.13337 79.339844 238.99609 L 75.140625 244.15039 L 74.949219 238.42383 C 74.949219 235.17942 73.614095 230.59876 71.896484 228.30859 C 68.07957 222.96486 59.681622 222.584 58.345703 227.92773 C 57.200629 232.31722 55.674063 232.69949 52.429688 229.45508 C 50.712075 227.73745 50.138672 228.30944 50.138672 231.93555 C 50.138672 238.80606 53.573783 241.28711 62.734375 241.28711 C 72.658351 241.28711 75.52165 244.53181 66.933594 246.05859 C 59.299767 247.58537 51.093986 244.72265 47.849609 239.37891 C 44.605233 234.22603 43.0778 234.60744 39.642578 241.28711 C 35.443973 249.30271 36.016545 253.8834 42.314453 260.75391 C 47.467286 266.47934 48.804269 267.05078 59.300781 267.05078 C 72.087442 267.05078 72.850299 268.76926 61.78125 272.01367 C 55.483342 273.92215 53.192998 273.73129 47.085938 270.67773 C 37.352807 265.71569 32.390625 258.6551 32.390625 248.92188 C 32.390625 240.33373 30.483182 239.76008 24.757812 247.20312 C 19.414134 254.45533 18.459038 266.09684 22.466797 274.49414 C 26.665402 283.46397 32.962761 287.66407 44.222656 289 C 52.238175 290.14509 52.620751 290.33594 47.849609 291.67188 C 44.414387 292.62612 40.597603 292.24385 36.589844 290.14453 C 29.146863 286.51843 27.811143 287.28072 30.673828 293.76953 C 33.727359 300.4492 44.987573 305.03069 54.720703 303.50391 C 71.133431 300.83204 77.04868 293.58027 86.972656 264.95312 C 95.560711 240.52463 107.39242 216.66738 115.98047 207.125 C 119.60654 203.1172 122.66016 199.3005 122.66016 198.53711 C 122.66016 197.96457 118.46282 195.29295 113.11914 192.62109 L 103.76758 187.84961 z M 223.42773 220.58008 C 225.24077 220.58008 226.0999 221.24805 226.86328 222.58398 C 228.39005 225.065 222.66428 229.83594 218.08398 229.83594 C 216.36637 229.83594 213.31276 228.69084 211.4043 227.16406 C 207.77824 224.68304 207.96967 224.3016 214.26758 222.58398 C 218.84787 221.24805 221.6147 220.58008 223.42773 220.58008 z M 274.80078 228.76953 C 277.98552 228.64429 283.6387 230.07478 285.64258 231.93555 C 286.78766 232.88979 286.02564 234.03544 284.11719 234.79883 C 280.30027 236.32561 271.13925 231.9361 272.66602 229.45508 C 272.95228 229.02567 273.7392 228.81128 274.80078 228.76953 z M 287.32422 252.91797 C 285.97623 252.7425 285.54688 253.85841 286.21484 256.36328 C 287.35991 260.56193 281.8256 263.23436 280.29883 259.22656 C 279.7263 257.69978 277.43719 256.55469 275.33789 256.55469 C 272.09351 256.55469 271.71152 257.12808 273.23828 260.18164 C 276.29181 265.52537 271.13971 269.34123 264.8418 266.47852 C 260.45235 264.57004 260.07031 264.76117 260.07031 268.57812 C 260.26116 275.06694 266.55835 286.32729 269.80273 285.37305 C 271.3295 284.99136 273.81029 284.22739 275.71875 283.8457 C 277.6272 283.27316 279.15515 284.41937 280.10938 286.90039 C 282.01783 292.81667 286.78852 291.86131 287.93359 285.18164 C 289.07866 280.41045 289.84129 279.64732 293.6582 280.60156 C 297.47511 281.5558 298.23828 280.98409 298.23828 277.54883 C 298.23828 274.49527 299.00226 273.73075 301.10156 274.49414 C 307.01778 276.59346 303.96503 266.8602 296.71289 259.79883 C 292.31151 255.50476 289.05735 253.14357 287.32422 252.91797 z "
		style="fill:#eab300" />
</svg>
