<?xml version="1.0" encoding="utf-8"?>
<svg
    xmlns:dc="http://purl.org/dc/elements/1.1/"
    xmlns:cc="http://creativecommons.org/ns#"
    xmlns:rdf="http://www.w3.org/1999/02/22-rdf-syntax-ns#"
    xmlns:svg="http://www.w3.org/2000/svg"
    xmlns="http://www.w3.org/2000/svg"
    width="512"
    height="512"
	viewBox="0 0 512 512">
	<circle
		style="fill:#f9b339"
		cx="256"
		cy="256"
		r="256"/>
    <path
        d="m 159.06298,338.10077 -0.128,-38.74688 -16.93837,-0.12802 -16.98104,-0.0853 v -13.86865 -13.86865 h 11.6478 c 6.35722,0 14.03709,-0.12802 17.06637,-0.29871 l 5.41857,-0.25604 V 256.38241 241.95902 H 142.08194 125.01557 V 227.877 213.79499 h 16.98104 16.93837 v -39.13093 -39.17361 h 52.90575 c 54.44173,0 57.47101,0.0853 68.26549,1.74959 10.11183,1.57889 18.04769,3.71253 30.29281,8.1505 5.46124,1.96294 18.68768,9.00395 23.89292,12.71648 12.11713,8.66258 22.31429,18.77602 29.82349,29.61491 2.90128,4.26727 7.08254,11.47897 8.83185,15.27685 3.4986,7.6811 4.22392,9.47335 4.22392,10.15612 0,0.55474 2.1333,0.64009 15.35974,0.64009 h 15.35973 v 14.08201 14.08202 h -11.98912 -12.0318 l 0.29867,2.47502 c 0.85331,7.93713 0.63998,21.16569 -0.46933,25.56099 l -0.21333,0.98147 12.07446,0.0853 12.11712,0.12802 0.128,13.954 0.0853,13.99667 -15.44506,0.0853 -15.44507,0.12802 -1.23731,2.9871 c -3.24261,7.63842 -8.19186,16.64238 -12.79978,23.25666 -4.82125,6.87031 -13.95176,16.64238 -20.99164,22.36053 -3.41327,2.8164 -12.41578,9.00395 -15.99972,11.05224 -4.05327,2.26166 -14.59175,7.38239 -16.63972,8.02248 -0.59732,0.1707 -2.13329,0.72544 -3.41327,1.23752 -1.27998,0.51207 -3.11461,1.15216 -4.05326,1.36552 -0.93865,0.25604 -1.8773,0.6401 -2.1333,0.81079 -0.21333,0.21336 -0.76799,0.38405 -1.23731,0.38405 -0.46933,0 -1.62131,0.25604 -2.60262,0.59742 -1.66397,0.55475 -4.35193,1.19484 -10.87982,2.51769 -12.62911,2.60304 -18.81567,2.81641 -76.03068,2.81641 l -49.83381,0.0427 z m 112.68072,12.54579 c 9.13051,-1.32285 13.95176,-2.43235 21.67429,-4.95004 12.67178,-4.09659 25.77022,-11.9057 35.66872,-21.33639 2.94395,-2.77373 8.66118,-9.81473 11.69047,-14.33805 2.47462,-3.66985 6.10122,-9.98542 6.10122,-10.58284 0,-0.17069 -36.09537,-0.29871 -80.21195,-0.29871 h -80.21194 v 26.28642 26.24376 l 40.23397,-0.17069 c 34.30341,-0.12802 40.91663,-0.25604 45.05522,-0.85346 z m 83.83855,-81.24895 c 0.59733,-3.79788 0.76799,-18.86137 0.256,-23.08597 l -0.51199,-4.35262 h -84.43588 -84.43587 v 14.50874 14.50874 h 84.43587 84.43588 z m -10.23982,-59.31515 c -8.95985,-17.06911 -23.21027,-30.63905 -41.12996,-39.08826 -6.10122,-2.85908 -6.61322,-3.07244 -11.09314,-4.56599 -5.67457,-1.8776 -10.96514,-3.15778 -19.83966,-4.73667 -2.21862,-0.42673 -13.61043,-0.59742 -44.88455,-0.68277 l -41.94061,-0.17069 v 26.49979 26.45712 h 80.42527 80.42528 z"
        style="fill:#ffffff" />
</svg>
