<?xml version="1.0" encoding="utf-8"?>
<svg
	xmlns:dc="http://purl.org/dc/elements/1.1/"
	xmlns:cc="http://creativecommons.org/ns#"
	xmlns:rdf="http://www.w3.org/1999/02/22-rdf-syntax-ns#"
	xmlns:svg="http://www.w3.org/2000/svg"
	xmlns="http://www.w3.org/2000/svg"
	width="512"
	height="512"
	viewBox="0 0 512 512">
	<circle
		style="fill:#2573c2"
		cx="256"
		cy="256"
		r="256"/>
	<path
		style="fill:#ffffff"
		d="M 160.97266 157.33789 L 144.69141 206.13086 L 350.56641 206.13086 L 318.05469 305.86914 L 112.23047 305.86914 L 95.949219 354.66211 L 324.25 354.66211 C 331.05277 354.46485 337.77795 353.16895 344.16602 350.82227 C 350.56599 347.18606 357.88751 343.50086 364.08203 338.38086 C 370.1315 333.61142 375.59579 328.1471 380.36523 322.09766 C 384.30626 316.17247 387.667 309.87925 390.40039 303.30859 L 420.55664 208.48633 C 423.29926 202.24744 424.17105 195.34502 423.06445 188.62109 C 422.72038 182.88362 421.0384 177.30736 418.15039 172.33789 C 415.59039 167.21789 411.03277 163.22573 405.70898 161.17773 C 400.27804 158.47232 394.26299 157.15255 388.19922 157.33789 L 160.97266 157.33789 z M 104.70312 233.36914 L 88.421875 278.47656 L 210.79102 278.47656 L 225.8418 233.36914 L 104.70312 233.36914 z"/>
</svg>

