<?xml version="1.0" encoding="utf-8"?>
<svg
	xmlns:dc="http://purl.org/dc/elements/1.1/"
	xmlns:cc="http://creativecommons.org/ns#"
	xmlns:rdf="http://www.w3.org/1999/02/22-rdf-syntax-ns#"
	xmlns:svg="http://www.w3.org/2000/svg"
	xmlns="http://www.w3.org/2000/svg"
	xmlns:xlink="http://www.w3.org/1999/xlink"
	width="512"
	height="512">
	<defs>
		<linearGradient
			spreadMethod="pad"
			id="green"
			gradientUnits="userSpaceOnUse"
			x1="234"
			y1="256"
			x2="436"
			y2="256">
			<stop
				offset="0"
				style="stop-color:#62d0c9" />
			<stop
				offset="1"
				style="stop-color:#7de2ac" />
		</linearGradient>
		<linearGradient
			spreadMethod="pad"
			id="blue"
			gradientUnits="userSpaceOnUse"
			x1="76"
			y1="256"
			x2="278"
			y2="256">
			<stop
				offset="0"
				style="stop-color:#3268fb" />
			<stop
				offset="1"
				style="stop-color:#4795fa" />
		</linearGradient>
	</defs>
	<circle
		style="fill:#0c1e3e"
		cx="256"
		cy="256"
		r="256" />
	<path
		d="m 234.40039,289.34666 h 88.85693 c 33.01403,0 60.05745,-26.67659 60.05745,-60.02233 0,-33.34574 -26.6922,-59.67133 -59.70623,-59.67133 h -28.44828 l -60.75987,-52.65117 h 88.85693 c 62.16473,-0.35101 112.73943,49.84311 112.73943,111.97148 0.3512,45.98203 -27.74584,87.40095 -70.59385,104.60032 l 70.24263,60.72436 h -80.0766 z"
		style="fill:url(#green)" />
	<path
		d="m 277.95082,222.30416 h -88.85693 c -33.01403,0 -60.05745,26.67659 -60.05745,60.02233 0,33.34574 26.6922,60.02233 60.05745,60.02233 h 28.44827 L 277.95082,395 H 189.09389 C 126.92916,395 76.354469,344.80589 76.003256,283.02852 75.652043,236.69548 103.7491,195.27657 146.5971,178.07719 L 76.354469,117.00183 h 80.427811 z"
		style="fill:url(#blue)" />
</svg>

