<?xml version="1.0" encoding="utf-8"?>
<svg
	xmlns:dc="http://purl.org/dc/elements/1.1/"
	xmlns:cc="http://creativecommons.org/ns#"
	xmlns:rdf="http://www.w3.org/1999/02/22-rdf-syntax-ns#"
	xmlns:svg="http://www.w3.org/2000/svg"
	xmlns="http://www.w3.org/2000/svg"
	width="512"
	height="512">
	<circle
		style="fill:#0066cc"
		cx="256"
		cy="256"
		r="256" />
	<circle
		style="fill:#002352"
		cx="256"
		cy="256"
		r="212" />
	<path
		d="m 124.74313,195.17366 h 165.40501 c 0,0 57.0914,-0.53357 17.60763,73.09834 0,0 -28.81249,57.62498 -100.31014,56.55785 l 38.57672,-98.37864 a 7.8220564,7.8220564 0 0 0 -7.13909,-10.67129 l -50.64595,-0.86437 -64.02775,155.80085 c 0,0 21.34259,2.13425 33.08101,1.06712 l -6.40278,16.00694 h 30.25311 a 4.0871044,4.0871044 0 0 0 3.82033,-2.64648 l 5.41034,-14.42758 12.80555,-1.06713 -7.46991,18.14119 h 29.45277 a 5.3356457,5.3356457 0 0 0 4.96215,-3.3828 l 8.28092,-21.16117 c 0,0 89.63884,-14.9398 130.18975,-87.50459 0,0 54.42358,-84.30319 -9.60416,-114.18281 A 123.87234,123.87234 0 0 0 319.50486,150.8878 l 7.53393,-18.41864 a 3.6709241,3.6709241 0 0 0 -3.40414,-5.0582 h -27.6173 l -8.53703,22.40971 h -11.73843 l 6.62688,-17.40487 a 3.6922667,3.6922667 0 0 0 -3.4575,-5.00484 h -27.74536 l -8.53703,22.40971 h -86.21336 a 12.73085,12.73085 0 0 0 -11.29023,6.77627 z"
		style="fill:#ffffff" />
</svg>

