<?xml version="1.0" encoding="utf-8"?>
<svg
	xmlns:dc="http://purl.org/dc/elements/1.1/"
	xmlns:cc="http://creativecommons.org/ns#"
	xmlns:rdf="http://www.w3.org/1999/02/22-rdf-syntax-ns#"
	xmlns:svg="http://www.w3.org/2000/svg"
	xmlns="http://www.w3.org/2000/svg"
	width="512"
	height="512"
	viewBox="0 0 512 512">
	<circle
		style="fill:#c2a633"
		cx="256"
		cy="256"
		r="256"/>
	<path
		style="fill:#ffffff"
		d="m 249.07631,117.00161 c -1.94908,-0.007 -3.53983,0.01 -4.71745,0.01 l -79.64748,0 0,123.74872 -32.71138,0 0,30.31313 32.71333,0 0,123.74283 92.80084,0 0.002,0 c 0,3e-5 130.48384,10.96938 130.48384,-136.58066 0,-136.07767 -109.68738,-141.13344 -138.92366,-141.23382 z m -32.09358,51.35721 36.61359,0 c 13.69392,2e-5 82.58907,5.52951 82.69925,90.87665 0.11019,85.34714 -71.03838,84.2293 -80.90649,84.2293 l -38.40634,0 0,-72.39346 57.60266,0 0,-30.31314 -57.60266,0 0,-72.39935 z"/>
</svg>

