<?xml version="1.0" encoding="utf-8"?>
<svg
	xmlns:dc="http://purl.org/dc/elements/1.1/"
	xmlns:cc="http://creativecommons.org/ns#"
	xmlns:rdf="http://www.w3.org/1999/02/22-rdf-syntax-ns#"
	xmlns:svg="http://www.w3.org/2000/svg"
	xmlns="http://www.w3.org/2000/svg"
	viewBox="0 0 512 512"
	width="512"
	height="512">
	<circle
		cx="256"
		cy="256"
		r="256"
		style="fill:#002d64"/>
	<path
		d="m 303.8208,217.6 c 12.6464,-12.6464 19.5072,-29.2864 19.5072,-47.2064 a 66.815999,66.815999 0 0 0 -15.5136,-42.8032 l 38.80959,-38.809585 -8.6528,-8.3968 -38.80959,38.809595 c -11.9808,-9.984 -26.8288,-15.5136 -42.5472,-15.5136 A 66.759679,66.759679 0 0 0 209.408,217.6 c 11.0592,11.0592 25.4976,17.9712 41.0112,19.3024 v 49.2032 a 64.824319,64.824319 0 0 0 -41.0112,19.3024 66.872319,66.872319 0 0 0 0,94.4128 c 12.6464,12.6464 29.2864,19.5072 47.2064,19.5072 a 66.388479,66.388479 0 0 0 47.2064,-19.5072 c 12.6464,-12.6464 19.5072,-29.2864 19.5072,-47.2064 0,-17.92 -6.8608,-34.56 -19.5072,-47.2064 -11.0592,-11.0592 -25.4976,-17.9712 -41.0112,-19.3024 V 236.9024 A 64.703999,64.703999 0 0 0 303.8208,217.6 m -8.6528,96.4096 c 10.1888,10.3936 15.9744,23.9616 15.9744,38.5536 a 54.300159,54.300159 0 0 1 -15.9744,38.5536 c -10.1888,10.3936 -23.9616,15.9744 -38.5536,15.9744 A 54.300159,54.300159 0 0 1 218.0608,391.1168 C 207.872,380.7232 202.0864,367.1552 202.0864,352.5632 a 54.300159,54.300159 0 0 1 15.9744,-38.5536 c 10.1888,-10.3936 23.9616,-15.9744 38.5536,-15.9744 14.6432,0.0513 28.3648,5.5808 38.5536,15.9744 M 256.6144,225.1264 A 54.300159,54.300159 0 0 1 218.0608,209.152 C 207.872,198.7584 202.0864,185.1904 202.0864,170.5984 a 54.387199,54.387199 0 0 1 15.9744,-38.5536 c 10.1888,-10.39359 23.9616,-15.97439 38.5536,-15.97439 a 54.300159,54.300159 0 0 1 38.5536,15.97439 c 10.3936,10.1888 15.9744,23.9616 15.9744,38.5536 A 54.300159,54.300159 0 0 1 295.168,209.152 c -10.1888,10.4448 -23.9104,15.9744 -38.5536,15.9744"
		style="fill:#ffffff"/>
</svg>

