<?xml version="1.0" encoding="utf-8"?>
<svg
	xmlns:dc="http://purl.org/dc/elements/1.1/"
	xmlns:cc="http://creativecommons.org/ns#"
	xmlns:rdf="http://www.w3.org/1999/02/22-rdf-syntax-ns#"
	xmlns:svg="http://www.w3.org/2000/svg"
	xmlns="http://www.w3.org/2000/svg"
	height="512"
	width="512">
	<circle
		r="256"
		cy="256"
		cx="256"
		style="fill:#393939" />
	<path
		d="m 95.159564,142.92 c 2.577759,-1.28888 5.624206,-0.99595 7.909036,0.70303 l 132.05155,99.18513 c 1.87474,1.40605 3.04645,3.69088 3.04645,6.0343 v 113.42139 c 0,4.15957 -3.39796,7.55752 -7.55752,7.55752 -4.15957,0 -7.55752,-3.39795 -7.55752,-7.55752 V 252.65051 L 106.11504,164.77237 v 197.49148 c 0,4.15957 -3.39796,7.55752 -7.557521,7.55752 -4.159565,0.0586 -7.55752,-3.33937 -7.55752,-7.49893 V 149.65733 c 0,-2.87069 1.640392,-5.50703 4.159565,-6.73733 z"
		style="fill:#1bbc9a" />
	<path
		d="m 416.84044,142.92 c 2.57775,1.28888 4.15956,3.92523 4.15956,6.73733 v 212.66511 c 0,4.15956 -3.39795,7.55752 -7.55752,7.55752 -4.15956,0 -7.55752,-3.39796 -7.55752,-7.55752 V 164.77237 l -116.87793,87.87814 v 109.67193 c 0,4.15956 -3.39796,7.55752 -7.55752,7.55752 -4.15957,0 -7.55752,-3.39796 -7.55752,-7.55752 v -113.4214 c 0,-2.402 1.11312,-4.62824 3.04644,-6.03429 l 131.93439,-99.24372 c 2.28483,-1.69898 5.38986,-1.99191 7.96762,-0.70303 z"
		style="fill:#54697a" />
</svg>
