<?xml version="1.0" encoding="utf-8"?>
<svg
	xmlns:dc="http://purl.org/dc/elements/1.1/"
	xmlns:cc="http://creativecommons.org/ns#"
	xmlns:rdf="http://www.w3.org/1999/02/22-rdf-syntax-ns#"
	xmlns:svg="http://www.w3.org/2000/svg"
	xmlns="http://www.w3.org/2000/svg"
	width="512"
	height="512"
	viewBox="0 0 512 512">
	<circle
		style="fill:#ffffff"
		cx="256"
		cy="256"
		r="256"/>
	<path
		style="fill:#4a90e2"
		d="m 195.86564,166.04532 c -16.37181,0 -30.22498,13.21683 -30.22498,30.20979 0,23.91598 -3.77822,29.58043 -30.225,29.58043 l -2.51861,0 c -15.11244,1.25874 -27.07672,13.84623 -27.07672,29.58045 0,16.36357 13.22349,30.20976 30.22498,30.20976 15.74213,0 28.96566,-12.58758 29.59535,-27.69241 l 0,-1.88801 c 0,-22.0279 6.92664,-30.20979 30.22498,-30.20979 23.29836,0 30.225,8.18192 30.225,29.58045 0,16.36357 13.22349,30.20976 30.22499,30.20976 17.0015,0 30.22339,-13.21682 30.22339,-30.20976 -0.62969,-15.10485 -12.59233,-27.69237 -27.70477,-28.9511 l -2.51862,0 c -26.44678,0 -30.22499,-6.2938 -30.22499,-30.20978 0,-16.36358 -13.22349,-30.20979 -30.225,-30.20979 z m 240.53902,0 c -16.37181,0 -30.22499,13.21683 -30.22499,30.20979 0,23.91598 -3.77821,30.20978 -30.22498,30.20978 l -2.51862,0 c -15.11245,1.25873 -27.07673,13.84622 -27.07673,29.58044 l 0,0.62933 c 0,23.28663 -4.4079,28.95109 -30.22499,28.95109 -1.25937,0 -2.51858,-10e-6 -3.14827,0.62935 -15.11244,1.88811 -27.07672,14.47561 -27.07672,29.58045 0,16.36357 13.22349,30.20977 30.22499,30.20977 15.74212,0 28.96566,-12.58759 29.59534,-27.69244 l 0,-2.51733 c 0,-21.39852 6.92668,-29.58041 29.59534,-30.2098 l 0.62966,0 c 15.74212,0 28.96564,-12.58755 29.59532,-28.32174 l 0,-1.88802 c 0,-22.0279 6.92665,-30.20978 30.225,-30.20978 16.37181,0 30.22499,-13.21684 30.22499,-30.20978 0,-15.73421 -13.22353,-28.95111 -29.59534,-28.95111 z M 76.224991,285.62575 A 30.224887,30.209675 0 0 0 46,315.83555 30.224887,30.209675 0 0 0 76.224991,346.04532 30.224887,30.209675 0 0 0 106.44998,315.83555 30.224887,30.209675 0 0 0 76.224991,285.62575 Z"/>
</svg>

