<?xml version="1.0" encoding="utf-8"?>
<svg
	xmlns:dc="http://purl.org/dc/elements/1.1/"
	xmlns:cc="http://creativecommons.org/ns#"
	xmlns:rdf="http://www.w3.org/1999/02/22-rdf-syntax-ns#"
	xmlns:svg="http://www.w3.org/2000/svg"
	xmlns="http://www.w3.org/2000/svg"
	viewBox="0 0 512 512"
	width="512"
	height="512">
	<circle
		style="fill:#1a53f0"
		cx="256"
		cy="256"
		r="256"/>
	<path
		d="m 205.61953,290.67314 c -32.69374,0 -59.1974,26.58047 -59.1974,59.36893 0,32.78846 26.50622,59.36893 59.19996,59.36893 32.69375,0 59.19997,-26.58047 59.19997,-59.36893 0,-32.78846 -26.50367,-59.36893 -59.19997,-59.36893 z m 0,100.77947 c -22.78399,0 -41.26974,-18.52928 -41.26974,-41.39006 0,-22.86079 18.47808,-41.39006 41.26974,-41.39006 22.79166,0 41.2723,18.52927 41.2723,41.39006 -0.0384,22.84031 -18.49344,41.3619 -41.2723,41.39006 z M 332.04762,164.03258 c -32.69374,0 -59.19997,26.58045 -59.19997,59.36892 0,32.78846 26.50623,59.36893 59.19997,59.36893 32.69375,0 59.19997,-26.58047 59.19997,-59.36893 0,-32.78847 -26.50111,-59.37149 -59.19741,-59.37149 z m 0,100.77946 c -22.78399,0 -41.26974,-18.52927 -41.26974,-41.39006 0,-22.86079 18.47039,-41.39005 41.2723,-41.39005 22.8019,0 41.27229,18.52926 41.27229,41.39005 -0.0384,22.85055 -18.50622,41.3491 -41.27229,41.3875 z M 205.61953,164.03001 c -28.18302,-0.0179 -52.47997,19.88863 -58.08124,47.59038 -5.60129,27.70174 9.03934,55.5238 34.99005,66.52412 a 59.356127,59.356127 0 0 0 65.48989,-96.15611 h 16.7859 v -17.95839 z m 41.27485,59.36893 c 0,22.85823 -18.47806,41.39005 -41.27229,41.39005 -22.79422,0 -41.26974,-18.53182 -41.26974,-41.39005 0,-22.85822 18.47552,-41.38238 41.26718,-41.38238 22.79166,0 41.25438,18.53696 41.29534,41.39006 h -0.0205 z"
		style="fill:#ffffff"/>
</svg>
