<?xml version="1.0" encoding="utf-8"?>
<svg
	xmlns:dc="http://purl.org/dc/elements/1.1/"
	xmlns:cc="http://creativecommons.org/ns#"
	xmlns:rdf="http://www.w3.org/1999/02/22-rdf-syntax-ns#"
	xmlns:svg="http://www.w3.org/2000/svg"
	xmlns="http://www.w3.org/2000/svg"
	viewBox="0 0 512 512"
	width="512"
	height="512">
	<circle
		style="fill:#ffffff"
		cx="256"
		cy="256"
		r="256"/>
	<path
		style="fill:#2e9ad0"
		d="m 205.36461,96.000025 a 13.258911,13.271597 0 0 0 -13.25868,13.271635 13.258911,13.271597 0 0 0 0.62337,3.9725 l -56.26693,41.27132 a 13.258911,13.271597 0 0 0 -8.52697,-3.10986 13.258911,13.271597 0 0 0 -13.25897,13.27163 13.258911,13.271597 0 0 0 6.60238,11.46287 l -21.20238,66.04704 A 13.258911,13.271597 0 0 0 87,255.45248 a 13.258911,13.271597 0 0 0 13.08473,13.26277 l 21.55639,67.00491 a 13.258911,13.271597 0 0 0 -6.96468,11.66718 13.258911,13.271597 0 0 0 13.25897,13.27137 13.258911,13.271597 0 0 0 9.26207,-3.77737 l 55.85043,40.96541 a 13.258911,13.271597 0 0 0 -0.94198,4.88164 13.258911,13.271597 0 0 0 13.25868,13.27164 13.258911,13.271597 0 0 0 12.81287,-9.9215 h 67.30784 a 13.258911,13.271597 0 0 0 12.82062,9.9215 13.258911,13.271597 0 0 0 13.25868,-13.27164 13.258911,13.271597 0 0 0 -0.49037,-3.57159 l 66.1283,-48.25459 31.10306,28.086 A 17.700001,17.716937 0 0 0 405.6,388.36162 17.700001,17.716937 0 0 0 423.30001,406.07853 17.700001,17.716937 0 0 0 441,388.36162 17.700001,17.716937 0 0 0 423.30001,370.64471 17.700001,17.716937 0 0 0 412.67668,374.2118 l -31.45042,-29.19991 24.50538,-76.33623 a 13.258911,13.271597 0 0 0 0.96244,0.0486 13.258911,13.271597 0 0 0 13.25896,-13.27164 13.258911,13.271597 0 0 0 -13.25896,-13.27163 13.258911,13.271597 0 0 0 -0.96631,0.0364 l -21.59784,-67.27832 a 13.258911,13.271597 0 0 0 4.86419,-10.26168 13.258911,13.271597 0 0 0 -13.2587,-13.27164 13.258911,13.271597 0 0 0 -7.47326,2.32505 l -56.97049,-41.78732 a 13.258911,13.271597 0 0 0 0.27304,-2.67168 13.258911,13.271597 0 0 0 -13.25868,-13.271639 13.258911,13.271597 0 0 0 -12.47601,8.826089 h -67.98688 a 13.258911,13.271597 0 0 0 -12.4785,-8.826225 z m 13.05238,15.526405 h 66.82275 a 13.258911,13.271597 0 0 0 3.17245,6.55609 l -30.64782,43.08373 a 13.258911,13.271597 0 0 0 -2.70755,-0.74909 13.258911,13.271597 0 0 0 -7.13366,0.82464 l -32.37911,-43.47068 a 13.258911,13.271597 0 0 0 2.87294,-6.24469 z m 89.83138,6.50819 55.56638,40.87022 a 13.258911,13.271597 0 0 0 -1.33828,5.77241 13.258911,13.271597 0 0 0 0.21182,2.34141 l -20.15147,8.79091 a 13.258911,13.271597 0 0 0 -9.92529,-4.4965 13.258911,13.271597 0 0 0 -1.72851,0.12909 l -23.87505,-52.17941 a 13.258911,13.271597 0 0 0 1.24039,-1.22832 z m -111.90634,0.93931 a 13.258911,13.271597 0 0 0 0.65217,0.57882 l -22.36671,52.00091 a 13.258911,13.271597 0 0 0 -2.47444,-0.24045 13.258911,13.271597 0 0 0 -9.67692,4.22327 l -21.41397,-9.09736 a 13.258911,13.271597 0 0 0 0.13187,-1.76173 13.258911,13.271597 0 0 0 -0.80341,-4.51477 z m 14.15808,2.51909 31.85695,44.03296 a 13.258911,13.271597 0 0 0 -2.51229,5.86514 13.258911,13.271597 0 0 0 -0.0436,0.34727 l -55.73505,7.04191 a 13.258911,13.271597 0 0 0 -3.52424,-4.463 l 23.03352,-51.91091 a 13.258911,13.271597 0 0 0 1.78935,0.13636 13.258911,13.271597 0 0 0 5.1355,-1.05 z m 83.60872,0.35546 a 13.258911,13.271597 0 0 0 4.19711,0.69459 13.258911,13.271597 0 0 0 2.80379,-0.31682 l 23.11343,52.09141 a 13.258911,13.271597 0 0 0 -3.46974,4.36527 l -54.65706,-6.71327 a 13.258911,13.271597 0 0 0 -2.72608,-6.6095 z m -155.85516,51.14468 20.86803,9.19814 a 13.258911,13.271597 0 0 0 -0.22759,2.39341 13.258911,13.271597 0 0 0 4.35946,9.81713 l -24.43348,48.17814 a 13.258911,13.271597 0 0 0 -1.07555,-0.21773 l -5.42203,-65.17672 a 13.258911,13.271597 0 0 0 5.93116,-4.19255 z m 227.69338,0.61482 a 13.258911,13.271597 0 0 0 5.55669,3.63368 l -4.5865,65.12441 a 13.258911,13.271597 0 0 0 -0.48094,0.10136 l -24.82396,-48.15381 a 13.258911,13.271597 0 0 0 4.25822,-9.72882 13.258911,13.271597 0 0 0 -0.19469,-2.26446 z m 12.21742,4.10814 21.58018,66.44572 a 13.258911,13.271597 0 0 0 -5.86313,7.9405 h -11.95524 a 13.258911,13.271597 0 0 0 -8.75597,-9.27536 l 4.9242,-65.09505 a 13.258911,13.271597 0 0 0 0.07,-0.0182 z m -137.54035,0.69677 a 13.258911,13.271597 0 0 0 2.98024,4.52114 l -34.679,59.74813 a 13.258911,13.271597 0 0 0 -3.56075,-0.50132 13.258911,13.271597 0 0 0 -2.90584,0.33955 l -21.97566,-47.61718 a 13.258911,13.271597 0 0 0 4.83321,-8.79896 z m 24.50676,0.265 54.32878,7.453 a 13.258911,13.271597 0 0 0 4.62301,8.61432 l -22.78321,47.79227 a 13.258911,13.271597 0 0 0 -2.99352,-0.35636 13.258911,13.271597 0 0 0 -3.42218,0.45563 L 261.9742,183.20253 a 13.258911,13.271597 0 0 0 3.15668,-4.52446 z m -139.05038,4.20523 5.23616,60.046 a 13.258911,13.271597 0 0 0 -8.47028,9.17322 h -9.76681 a 13.258911,13.271597 0 0 0 -6.74176,-8.43104 z m 123.31841,3.42018 a 13.258911,13.271597 0 0 0 1.40935,0.31409 13.258911,13.271597 0 0 0 5.57661,-0.30318 l 33.13772,59.21832 a 13.258911,13.271597 0 0 0 -4.02951,6.5699 h -67.30786 a 13.258911,13.271597 0 0 0 -3.18047,-5.74968 z m -80.40365,11.15445 a 13.258911,13.271597 0 0 0 3.15779,0.39864 13.258911,13.271597 0 0 0 2.90584,-0.33955 l 21.97566,47.61732 a 13.258911,13.271597 0 0 0 -4.48253,6.96832 H 148.47957 A 13.258911,13.271597 0 0 0 144.59,245.66493 Z m 166.77496,0.002 24.4036,48.20309 a 13.258911,13.271597 0 0 0 -3.88074,6.43954 h -45.16681 a 13.258911,13.271597 0 0 0 -3.71589,-6.27568 l 22.29316,-48.30495 a 13.258911,13.271597 0 0 0 2.90804,0.33454 13.258911,13.271597 0 0 0 3.15864,-0.39636 z m -222.68236,61.27841 h 9.73611 a 13.258911,13.271597 0 0 0 8.51481,9.24631 l -5.19606,60.22873 -19.80243,-60.97173 a 13.258911,13.271597 0 0 0 6.74757,-8.50331 z m 35.40001,0 h 44.04204 a 13.258911,13.271597 0 0 0 4.88104,7.31241 l -22.81004,49.42472 a 13.258911,13.271597 0 0 0 -2.44786,-0.23591 13.258911,13.271597 0 0 0 -2.62706,0.27682 l -25.04441,-50.17863 a 13.258911,13.271597 0 0 0 4.00629,-6.5996 z m 69.70593,0 h 67.27715 a 13.258911,13.271597 0 0 0 4.46317,6.99431 l -34.09215,60.92328 a 13.258911,13.271597 0 0 0 -2.91246,-0.33591 13.258911,13.271597 0 0 0 -2.97057,0.35409 l -35.34663,-61.712 a 13.258911,13.271597 0 0 0 3.58149,-6.22414 z m 92.94104,0 h 45.13613 a 13.258911,13.271597 0 0 0 4.00461,6.59595 l -25.0585,50.16496 a 13.258911,13.271597 0 0 0 -2.6055,-0.26 13.258911,13.271597 0 0 0 -2.86629,0.33091 l -22.77271,-50.09519 a 13.258911,13.271597 0 0 0 4.16226,-6.73659 z m 70.80001,0 h 11.92455 a 13.258911,13.271597 0 0 0 5.88718,7.99868 l -20.16306,62.08236 -5.9035,-60.92054 a 13.258911,13.271597 0 0 0 8.25483,-9.1605 z m -173.59968,9.63163 35.34664,61.71223 a 13.258911,13.271597 0 0 0 -3.0281,4.51564 l -55.3573,-7.70468 a 13.258911,13.271597 0 0 0 -4.89212,-8.75378 l 22.54869,-49.64591 a 13.258911,13.271597 0 0 0 2.41163,0.23091 13.258911,13.271597 0 0 0 2.97056,-0.35454 z m 87.11831,0.0318 a 13.258911,13.271597 0 0 0 2.85246,0.32046 13.258911,13.271597 0 0 0 2.48437,-0.245 l 23.37201,49.81781 a 13.258911,13.271597 0 0 0 -4.72395,8.75982 l -54.2331,7.54214 a 13.258911,13.271597 0 0 0 -3.31625,-4.76836 z m -157.1373,0.0364 25.01923,50.18078 a 13.258911,13.271597 0 0 0 -4.44132,9.88991 13.258911,13.271597 0 0 0 0.143,1.84254 l -21.16285,8.27464 a 13.258911,13.271597 0 0 0 -5.63248,-3.77814 l 5.59293,-66.30973 a 13.258911,13.271597 0 0 0 0.48147,-0.1 z m 228.13256,0.0136 a 13.258911,13.271597 0 0 0 0.49367,0.0773 l 7.25589,73.22746 -28.55065,-10.88514 a 13.258911,13.271597 0 0 0 0.22291,-2.36213 13.258911,13.271597 0 0 0 -4.15202,-9.62364 z m -182.38525,65.85064 55.73288,6.99018 a 13.258911,13.271597 0 0 0 2.46611,6.15382 l -31.70209,43.07186 a 13.258911,13.271597 0 0 0 -5.19578,-1.06327 13.258911,13.271597 0 0 0 -1.83278,0.14182 l -22.93256,-50.872 a 13.258911,13.271597 0 0 0 3.46422,-4.42255 z m 136.63904,0.0182 a 13.258911,13.271597 0 0 0 3.46063,4.40877 l -23.00973,51.04391 a 13.258911,13.271597 0 0 0 -2.84749,-0.31909 13.258911,13.271597 0 0 0 -4.25272,0.71836 l -30.58559,-42.55663 a 13.258911,13.271597 0 0 0 2.60109,-6.34791 z m -158.58621,2.83491 a 13.258911,13.271597 0 0 0 10.03673,4.62391 13.258911,13.271597 0 0 0 1.62673,-0.11682 l 22.67703,50.35032 -55.76662,-41.05246 a 13.258911,13.271597 0 0 0 0.50389,-3.57577 13.258911,13.271597 0 0 0 -0.20272,-2.29986 z m 180.54167,0.004 27.36532,10.27168 -62.38283,45.88382 a 13.258911,13.271597 0 0 0 -0.55119,-0.51382 l 23.75175,-51.15491 a 13.258911,13.271597 0 0 0 1.77055,0.13364 13.258911,13.271597 0 0 0 10.0464,-4.62023 z m -94.81338,14.68263 a 13.258911,13.271597 0 0 0 5.0849,1.01873 13.258911,13.271597 0 0 0 4.90731,-0.94786 l 30.46806,42.11291 a 13.258911,13.271597 0 0 0 -2.8118,5.35018 h -67.30786 a 13.258911,13.271597 0 0 0 -2.54382,-5.02436 z"/>
</svg>

