<?xml version="1.0" encoding="utf-8"?>
<svg
	xmlns:dc="http://purl.org/dc/elements/1.1/"
	xmlns:cc="http://creativecommons.org/ns#"
	xmlns:rdf="http://www.w3.org/1999/02/22-rdf-syntax-ns#"
	xmlns:svg="http://www.w3.org/2000/svg"
	xmlns="http://www.w3.org/2000/svg"
	height="512"
	width="512"
	viewBox="0 0 512 512">
	<circle
		r="256"
		cy="256"
		cx="256"
		style="fill:#505db7"/>
	<path
		d="m 299.19496,271.66985 a 146.304,146.304 0 0 0 26.624,-2.2912 c -7.232,66.88768 -62.976,117.53472 -129.34145,117.5296 -40.63488,0 -68.47744,-19.89632 -68.47744,-61.09184 0,-41.19552 33.41824,-61.09184 82.17601,-61.09184 35.98848,0 53.02528,6.94528 89.01888,6.94528 m 2.62912,-24.3968 c 48.7552,0 82.176,-19.89632 82.176,-61.09185 0,-41.19552 -27.84256,-61.09184 -68.47744,-61.09184 -66.37312,0 -122.11201,50.64192 -129.34145,117.52961 a 146.304,146.304 0 0 1 26.62401,-2.2912 c 35.9936,0 53.0304,6.94528 89.01888,6.94528"
		style="fill:#ffffff"/>
</svg>

