<?xml version="1.0" encoding="utf-8"?>
<svg
   xmlns:dc="http://purl.org/dc/elements/1.1/"
   xmlns:cc="http://creativecommons.org/ns#"
   xmlns:rdf="http://www.w3.org/1999/02/22-rdf-syntax-ns#"
   xmlns:svg="http://www.w3.org/2000/svg"
   xmlns="http://www.w3.org/2000/svg"
   width="512"
   height="512"
   version="1.1">
  <circle
     style="fill:#000000"
     cx="256"
     cy="256"
     r="256"/>
  <path
     style="fill:#ffffff"
     d="m 352.89204,171.83746 -32.51058,16.53183 -156.98977,79.80881 a 94.230414,94.048985 0 0 1 -0.79963,-12.18794 93.522172,93.342107 0 0 1 139.1238,-81.37079 l 18.60848,-9.46304 2.77585,-1.41376 a 114.23253,114.01259 0 0 0 -181.33272,92.28179 q 0,4.35528 0.33128,8.67636 a 20.778897,20.73889 0 0 1 -11.28618,20.04341 L 121,289.73788 v 23.29278 l 28.88941,-14.69623 9.35564,-4.76572 9.21857,-4.68592 165.50009,-84.1641 18.59705,-9.45164 38.43925,-19.55316 v -23.28137 z m 38.10797,27.1806 L 177.86495,307.33003 159.2679,316.80447 121,336.26642 v 23.26997 l 38.00516,-19.32513 32.51058,-16.53183 157.14969,-79.92282 a 95.327046,95.143506 0 0 1 0.79963,12.26775 93.522172,93.342107 0 0 1 -139.26088,81.35938 l -1.14232,0.60427 -20.17347,10.26113 a 114.23253,114.01259 0 0 0 181.34414,-92.22478 c 0,-2.93012 -0.11423,-5.86025 -0.33127,-8.75617 a 20.79032,20.750291 0 0 1 11.27475,-20.04341 l 9.824,-4.99375 z"/>
</svg>
