<?xml version="1.0" encoding="utf-8"?>
<svg
	xmlns:dc="http://purl.org/dc/elements/1.1/"
	xmlns:cc="http://creativecommons.org/ns#"
	xmlns:rdf="http://www.w3.org/1999/02/22-rdf-syntax-ns#"
	xmlns:svg="http://www.w3.org/2000/svg"
	xmlns="http://www.w3.org/2000/svg"
	height="512"
	width="512"
	viewBox="0 0 512 512">
	<circle
		cx="256"
		cy="256"
		r="256"
		style="fill:#53ae94"/>
	<path
		d="M 287.59552,221.89056 V 183.808 H 374.6816 V 125.78304 H 137.54367 V 183.808 H 224.64 v 38.05184 c -70.784,3.2512 -124.0064,17.26976 -124.0064,34.06336 0,16.7936 53.248,30.81216 124.0064,34.08384 v 121.984 h 62.976 V 289.9968 c 70.656,-3.26144 123.77087,-17.26976 123.77087,-34.048 0,-16.77824 -53.11487,-30.78656 -123.77087,-34.048 m 0,57.76384 v -0.0308 c -1.77664,0.11262 -10.9056,0.66047 -31.232,0.66047 -16.25088,0 -27.68384,-0.4608 -31.71328,-0.67072 v 0.0513 C 162.13504,276.90496 115.456,266.01473 115.456,252.98433 c 0,-13.0304 46.68416,-23.90529 109.21472,-26.68033 v 42.5216 c 4.096,0.2816 15.81055,0.9728 31.97952,0.9728 19.42016,0 29.184,-0.80896 30.976,-0.9728 V 226.304 c 62.4128,2.78016 108.98432,13.68064 108.98432,26.66496 0,12.98432 -46.592,23.88992 -108.98432,26.67008"
		style="fill:#ffffff"/>
</svg>

