<?xml version="1.0" encoding="utf-8"?>
<svg
	xmlns:dc="http://purl.org/dc/elements/1.1/"
	xmlns:cc="http://creativecommons.org/ns#"
	xmlns:rdf="http://www.w3.org/1999/02/22-rdf-syntax-ns#"
	xmlns:svg="http://www.w3.org/2000/svg"
	xmlns="http://www.w3.org/2000/svg"
	viewBox="0 0 512 512"
	height="512"
	width="512">
	<circle
		r="256"
		cy="256"
		cx="256"
		style="fill:#c53027" />
	<path
		style="fill:#ffffff"
		d="m 120.52958,93.005346 a 7.4071107,7.4071107 0 0 0 -3.81373,0.894687 7.4071107,7.4071107 0 0 0 -0.0481,0.028 7.4071107,7.4071107 0 0 0 -0.52613,0.316477 7.4071107,7.4071107 0 0 0 -0.23902,0.166917 7.4071107,7.4071107 0 0 0 -0.29244,0.217668 7.4071107,7.4071107 0 0 0 -0.446,0.384573 7.4071107,7.4071107 0 0 0 -0.0441,0.04145 7.4071107,7.4071107 0 0 0 -0.93741,1.073615 7.4071107,7.4071107 0 0 0 -0.0481,0.06409 7.4071107,7.4071107 0 0 0 -0.29244,0.454005 7.4071107,7.4071107 0 0 0 -0.14289,0.244377 7.4071107,7.4071107 0 0 0 -0.16156,0.313808 7.4071107,7.4071107 0 0 0 -0.19898,0.437987 7.4071107,7.4071107 0 0 0 -0.048,0.12285 7.4071107,7.4071107 0 0 0 0.37123,6.23735 l 120.0643,333.26731 a 7.4071107,7.4071107 0 0 0 6.97047,5.72461 7.4071107,7.4071107 0 0 0 0.076,0.004 7.4071107,7.4071107 0 0 0 0.4567,-0.008 7.4071107,7.4071107 0 0 0 0.36855,-0.0173 7.4071107,7.4071107 0 0 0 0.068,-0.005 7.4071107,7.4071107 0 0 0 0.13618,-0.0188 7.4071107,7.4071107 0 0 0 0.59424,-0.0881 7.4071107,7.4071107 0 0 0 0.0629,-0.0133 7.4071107,7.4071107 0 0 0 4.98883,-3.62411 L 413.0008,208.96146 a 7.4071107,7.4071107 0 0 0 2.13654,-6.44034 7.4071107,7.4071107 0 0 0 -3.5026,-5.34802 L 358.6792,151.94916 a 7.4071107,7.4071107 0 0 0 -4.98483,-2.5919 L 123.0093,93.547496 a 7.4071107,7.4071107 0 0 0 -2.47972,-0.54215 z m 28.95015,22.186654 186.81525,45.19589 -68.48419,53.36549 z m -12.99686,8.45271 123.31856,102.71695 -22.3242,177.61477 z m 216.25549,42.70814 45.01293,38.44174 -145.79631,202.78726 22.66738,-180.35757 z" />
</svg>
