<?xml version="1.0" encoding="utf-8"?>
<svg
	xmlns:dc="http://purl.org/dc/elements/1.1/"
	xmlns:cc="http://creativecommons.org/ns#"
	xmlns:rdf="http://www.w3.org/1999/02/22-rdf-syntax-ns#"
	xmlns:svg="http://www.w3.org/2000/svg"
	xmlns="http://www.w3.org/2000/svg"
	width="512"
	height="512"
	viewBox="0 0 512 512">
	<linearGradient
		id="lg"
		x1="400"
		y1="200"
		x2="120"
		y2="-80"
		gradientUnits="userSpaceOnUse"
		gradientTransform="matrix(1,0,0,-1,-6.5,313.5)">
		<stop
			offset="0"
			style="stop-color:#ffd25c"/>
		<stop
			offset="1"
			style="stop-color:#cd8421"/>
	</linearGradient>
	<circle
		style="fill:#000000"
		cx="256"
		cy="256"
		r="256"/>
	<circle
		style="fill:url(#lg)"
		cx="256"
		cy="256"
		r="200"/>
	<path
		style="fill:#000000"
		d="m 227.48968,90 0,44.51177 -59.81383,0 0,60.04805 97.09655,0 0,0.99578 c -12.56068,14.93706 -22.52892,26.88606 -35.1893,43.41641 L 160,335.36634 l 0,43.31683 67.48968,0 0,43.31683 55.1266,0 0,-43.31683 69.38372,0 0,-60.44635 -106.16802,0 0,-0.99578 c 12.56068,-13.44336 23.92456,-28.87765 36.08649,-44.9101 l 66.39313,-92.41119 0,-45.40798 -65.69532,0 0,-44.51177 -55.1266,0 z"/>
</svg>

