<?xml version="1.0" encoding="UTF-8" standalone="no"?>
<svg
   xmlns:dc="http://purl.org/dc/elements/1.1/"
   xmlns:cc="http://creativecommons.org/ns#"
   xmlns:rdf="http://www.w3.org/1999/02/22-rdf-syntax-ns#"
   xmlns:svg="http://www.w3.org/2000/svg"
   xmlns="http://www.w3.org/2000/svg"
   xmlns:xlink="http://www.w3.org/1999/xlink"
   width="512"
   height="512"
   viewBox="0 0 512 512"
   id="svg2"
   version="1.1">
  <metadata
     id="metadata16">
    <rdf:RDF>
      <cc:Work
         rdf:about="">
        <dc:format>image/svg+xml</dc:format>
        <dc:type
           rdf:resource="http://purl.org/dc/dcmitype/StillImage" />
        <dc:title></dc:title>
      </cc:Work>
    </rdf:RDF>
  </metadata>
  <defs
     id="defs14">
    <linearGradient
       id="linearGradient4195">
      <stop
         id="stop4197"
         offset="0"
         style="stop-color:#f05322;stop-opacity:1" />
      <stop
         id="stop4199"
         offset="1"
         style="stop-color:#edca1d;stop-opacity:1" />
    </linearGradient>
    <filter
       id="filter4256"
       style="color-interpolation-filters:sRGB;">
      <feFlood
         id="feFlood4258"
         result="flood"
         flood-color="rgb(0,0,0)"
         flood-opacity="0.45098" />
      <feComposite
         id="feComposite4260"
         result="composite1"
         operator="in"
         in2="SourceGraphic"
         in="flood" />
      <feGaussianBlur
         id="feGaussianBlur4262"
         result="blur"
         stdDeviation="12.8"
         in="composite1" />
      <feOffset
         id="feOffset4264"
         result="offset"
         dy="17.9"
         dx="-17.1123" />
      <feComposite
         id="feComposite4266"
         result="composite2"
         operator="over"
         in2="offset"
         in="SourceGraphic" />
    </filter>
    <linearGradient
       gradientTransform="translate(512,0)"
       gradientUnits="userSpaceOnUse"
       y2="255.99998"
       x2="0"
       y1="255.99998"
       x1="-512"
       id="linearGradient4276"
       xlink:href="#linearGradient4195" />
  </defs>
  <circle
     r="256"
     cy="255.99998"
     cx="256"
     id="path4268"
     style="fill:url(#linearGradient4276);fill-opacity:1;fill-rule:nonzero;stroke:none;stroke-opacity:1" />
  <path
     style="fill:#ffffff;filter:url(#filter4256)"
     d="m 217.67676,81 c -3.9985,0 -7.59828,3.607329 -7.59828,7.61355 l 0,12.32444 c -24.38012,7.14181 -42.18286,30.59735 -42.18286,57.47736 0,31.30555 23.30691,57.62289 53.12351,60.06689 0.33749,0.0378 1.05499,0.0378 1.82172,0.0378 6.19224,0 8.21081,-3.73712 8.21081,-6.97179 l 0,-24.96734 c 0,-3.55821 -2.49097,-6.26666 -5.57241,-6.98333 0,0 -3.68763,-0.55776 -5.38976,-1.12022 -7.76957,-2.57266 -13.34261,-10.53889 -13.34261,-19.94844 0,-11.13734 8.28485,-20.28556 18.73237,-20.31557 l 0,-0.0422 18.59275,0 c 4.39839,0 7.5983,-3.60246 7.59822,-7.61335 l 0,-41.943208 c 0,-4.006221 -3.19983,-7.613786 -7.59822,-7.613786 z m 52.91938,66.53912 c -3.96925,-0.0467 -7.58286,3.48535 -7.63055,7.46267 l -0.32233,26.23778 c -0.0512,4.37356 2.16829,6.06111 5.87338,7.11222 l 4.77711,0.92089 c 39.55249,8.56756 68.8679,45.62646 68.347,88.03268 -0.066,5.38133 -0.61358,10.65067 -1.56373,15.78176 -8.4593,43.73668 -47.12879,75.54158 -90.36806,72.70381 -0.99415,-0.0734 -1.98309,-0.16 -2.96622,-0.266 -0.18333,0 -0.36842,-0.0378 -0.54814,-0.0467 -41.3574,-4.85558 -73.42588,-40.66823 -75.91299,-83.7469 -0.18334,-3.67156 -0.17289,-7.38067 0.0914,-11.11867 l -0.002,0 0.25813,-2.63312 c 0.46586,-3.738 -2.09626,-7.47534 -6.20115,-7.99021 l -24.62192,-3.08512 c -3.73081,-0.46667 -7.5049,2.47533 -7.97449,6.21355 l -0.32811,2.62733 -0.0241,0 c -0.39617,4.60201 -0.53184,9.17246 -0.46217,13.70847 l -0.002,0.31087 -0.015,0 c 0.015,0.65045 0.0653,1.29156 0.0914,1.93845 2.00659,62.26579 46.89035,116.39534 108.7136,124.13978 2.38443,0.29646 4.76101,0.50801 7.13077,0.66268 2.42849,0.17778 4.87326,0.30356 7.34578,0.33599 3.16211,0.0333 6.28964,-0.0821 9.39306,-0.28621 l 0,16.83154 c 0,4.01 3.59607,7.61334 7.59835,7.61334 l 26.40054,0 c 4.39835,0 7.59288,-3.60334 7.59288,-7.61334 l 0,-24.26177 c 0,-0.98178 -0.19601,-1.93 -0.54813,-2.81598 38.10353,-17.13959 66.48004,-53.56824 74.06991,-97.06225 0.0915,-0.52532 0.20201,-1.04645 0.29021,-1.57223 0.0733,-0.43333 0.12733,-0.8711 0.19333,-1.30822 0.2567,-1.58422 0.5166,-3.16466 0.71467,-4.77067 7.30381,-58.54267 -25.52201,-114.54935 -77.14359,-135.90491 l 0,-0.0378 c -2.82095,-1.28644 -6.96054,-2.65622 -10.47854,-3.72534 -0.29342,-0.0955 -0.58948,-0.17555 -0.88662,-0.26333 -2.34784,-0.70601 -4.3171,-1.2511 -5.2232,-1.486 l -1.28427,-0.17333 c -0.0881,0 -0.17511,0.002 -0.26363,0 -2.15327,-0.51045 -4.4467,-0.98134 -6.545,-1.3669 -0.3046,-0.0579 -0.60901,-0.11333 -0.91348,-0.16888 -2.41013,-0.43422 -4.42408,-0.75622 -5.35214,-0.88865 z"
     id="path3443" />
</svg>
