<?xml version="1.0" encoding="utf-8"?>
<svg
	xmlns:dc="http://purl.org/dc/elements/1.1/"
	xmlns:cc="http://creativecommons.org/ns#"
	xmlns:rdf="http://www.w3.org/1999/02/22-rdf-syntax-ns#"
	xmlns:svg="http://www.w3.org/2000/svg"
	xmlns="http://www.w3.org/2000/svg"
	height="371"
	width="371">
	<path
		d="M 254.32525,124.69176 232.68348,138.80596 129.5154,250.7338 83.043662,265.04792 40.990586,301.57078 62.494491,335.5 H 335.49999 V 218.69853 Z"
		style="fill:#dbd7ce" />
	<path
		style="fill:#04473a"
		d="m 146.10631,230.10904 -38.3404,-14.08532 91.14016,-74.79524 c 12.03596,-6.49663 28.7777,-3.77817 37.20401,6.04086 v 1.1e-4 c 8.42631,9.81915 5.47288,23.1684 -6.56297,29.66503 0,0 -82.79009,53.10503 -83.4408,53.17456" />
	<path
		style="fill:#025b4a"
		d="m 199.82317,141.38478 69.77846,-84.177533 c 5.36265,-7.589137 24.63659,-2.245411 18.88825,9.588786 l -51.71034,87.628207 c -3.04309,4.37025 -14.77597,7.69475 -23.79754,3.53176 l -2.28887,-1.05621 c -9.02157,-4.1631 -13.91305,-11.14476 -10.86996,-15.51501" />
	<path
		style="fill:#007362"
		d="m 155.20407,217.25492 c -8.88902,-14.60908 22.9003,-34.23011 22.9003,-34.23011 l 52.68755,-40.31376 c 0,0 15.40798,15.66287 35.72041,2.74398 0.26073,0.96963 0.4099,1.8892 0.44786,2.77511 0.26567,6.2007 -4.91877,10.74543 -15.46156,19.19572 l -77.15901,79.32984 z" />
	<path
		d="m 178.10437,183.02489 c 0,0 -31.78942,19.62091 -22.9003,34.23 l 19.13555,29.50078 35.96309,-36.97485 c -14.09347,-28.60905 20.48921,-67.06969 20.48921,-67.06969 z"
		style="fill:#007362" />
	<path
		style="fill:#007362"
		d="M 235.01527,160.91233 211.5725,59.883599 c -2.76772,-8.594187 15.4236,-15.311166 21.5814,-3.35772 l 33.3585,88.929081 c 1.62539,4.92404 -29.87162,20.38141 -31.49713,15.45737" />
	<path
		style="fill:#fe9d70"
		d="m 230.37007,63.429334 c -13.64331,10.786133 -25.73339,-4.14275 -15.75099,-12.602725 0,0 11.7638,-8.168229 20.44038,-13.349471 11.19933,-6.687827 21.18624,5.15506 12.3244,12.297117 -6.16495,4.968484 -14.87487,11.964119 -17.01379,13.655079" />
	<path
		style="fill:#fe9d70"
		d="m 171.52124,197.99031 c -0.37887,-7.22137 11.36413,-10.16237 12.81461,0.18196 l 3.12384,33.50228 -5.08895,1.52726 z m -110.540941,34.51866 3.326917,-34.3367 c 1.450479,-10.34433 11.104061,-10.78041 12.814604,-0.18196 l 13.379064,41.24752 z m 143.291201,32.11528 -13.64606,-5.95736 c -1.76027,-0.76853 -3.59523,-1.15324 -5.41072,-1.19328 l 16.39828,-4.20699 c 3.67312,-0.94245 6.53722,-3.47819 8.04303,-6.67892 2.88017,-3.58192 4.26828,-8.10189 3.03705,-13.15431 l -18.51949,-83.8639 c -2.42803,-12.80888 -9.71123,-21.58051 -21.58052,-21.58051 H 124.36906 76.145043 c -11.86918,0 -19.15249,8.77163 -21.580407,21.58051 l -18.519603,83.8639 c -0.613414,2.97906 -0.685801,5.58409 -0.326619,7.85634 l -0.01507,0.0813 c -1.214948,6.53942 3.14144,12.88369 9.680754,14.09864 l 35.62943,6.6194 -15.24263,4.57453 c -7.973072,2.08898 -11.939256,6.12931 -13.949025,9.25172 l -8.05877,12.52033 c -3.059923,4.75408 -5.263859,14.22966 2.976756,17.16934 2.900299,0.96567 6.338326,0.81067 9.049848,-1.83397 1.674129,-1.63277 3.580269,-5.00457 5.307203,-8.47472 2.058174,-4.13592 6.563186,-2.49117 3.992807,2.83616 -4.202596,8.71047 2.57544,12.99766 3.038801,8.90464 0.463362,-4.09302 2.291725,-6.74427 2.291725,-6.74427 l 5.646363,-8.77229 c 1.323088,-2.05542 2.052564,-4.32943 2.23474,-6.61763 l 52.714504,-13.52429 41.36083,7.68419 c 1.48546,2.59271 3.77983,4.74803 6.7128,6.02843 l 9.56095,4.17399 c 0,0 2.99106,1.19394 5.64471,4.3444 2.65366,3.15057 5.92063,-4.17388 -2.40436,-9.09638 -5.09148,-3.01064 -2.25257,-6.87605 1.75234,-4.57344 3.36047,1.93189 6.81555,3.68258 9.11376,4.11415 3.72262,0.69922 6.67055,-1.07678 8.54986,-3.48776 5.23118,-7.01312 -1.85389,-13.67993 -7.03524,-15.94195" />
	<path
		style="fill:#f7a584"
		d="m 171.52124,197.99031 c -0.37887,-7.22137 11.36413,-10.16237 12.81461,0.18196 l 3.12384,33.50228 -5.08895,1.52726 z m -110.540941,34.51866 3.326917,-34.3367 c 1.450479,-10.34433 11.104061,-10.78041 12.814604,-0.18196 l 13.379064,41.24752 z m 143.291201,32.11528 -13.64606,-5.95736 c -1.76027,-0.76853 -3.59523,-1.15324 -5.41072,-1.19328 l 16.39828,-4.20699 c 3.67312,-0.94245 6.53722,-3.47819 8.04303,-6.67892 2.88017,-3.58192 4.26828,-8.10189 3.03705,-13.15431 l -18.51949,-83.8639 c -2.42803,-12.80888 -9.71123,-21.58051 -21.58052,-21.58051 H 124.36906 76.145043 c -11.86918,0 -19.15249,8.77163 -21.580407,21.58051 l -18.519603,83.8639 c -0.613414,2.97906 -0.685801,5.58409 -0.326619,7.85634 l -0.01507,0.0813 c -1.214948,6.53942 3.14144,12.88369 9.680754,14.09864 l 35.62943,6.6194 -15.24263,4.57453 c -7.973072,2.08898 -11.939256,6.12931 -13.949025,9.25172 l -8.05877,12.52033 c -3.059923,4.75408 -5.263859,14.22966 2.976756,17.16934 2.900299,0.96567 6.338326,0.81067 9.049848,-1.83397 1.674129,-1.63277 3.580269,-5.00457 5.307203,-8.47472 2.058174,-4.13592 6.563186,-2.49117 3.992807,2.83616 -4.202596,8.71047 2.57544,12.99766 3.038801,8.90464 0.463362,-4.09302 2.291725,-6.74427 2.291725,-6.74427 l 5.646363,-8.77229 c 1.323088,-2.05542 2.052564,-4.32943 2.23474,-6.61763 l 52.714504,-13.52429 41.36083,7.68419 c 1.48546,2.59271 3.77983,4.74803 6.7128,6.02843 l 9.56095,4.17399 c 0,0 2.99106,1.19394 5.64471,4.3444 2.65366,3.15057 5.92063,-4.17388 -2.40436,-9.09638 -5.09148,-3.01064 -2.25257,-6.87605 1.75234,-4.57344 3.36047,1.93189 6.81555,3.68258 9.11376,4.11415 3.72262,0.69922 6.67055,-1.07678 8.54986,-3.48776 5.23118,-7.01312 -1.85389,-13.67993 -7.03524,-15.94195" />
	<path
		style="fill:#fe9d70"
		d="m 293.58612,43.006837 c -2.43385,1.314727 -9.05282,4.463979 -15.24076,7.05647 -19.59285,8.208602 -4.02998,27.527977 15.47222,17.137109 3.83054,-2.041012 12.2353,-5.252199 20.64401,-9.97954 10.54289,-5.927329 -0.522,-25.20831 -20.87547,-14.214039" />
	<path
		style="fill:#f2875c"
		d="m 177.42597,145.44333 c 1.71615,-8.52544 1.02562,-16.97628 -1.60229,-24.65001 H 131.8885 86.174474 c -0.654338,1.92429 -1.192727,3.91228 -1.604603,5.95813 -4.516344,22.43629 8.324883,40.90781 28.609919,49.49584 2.89777,1.22694 5.26705,5.63294 8.47219,6.27815 2.72109,0.54773 6.12942,-2.60096 8.81255,-2.52814 22.60053,0.61298 42.34762,-11.63354 46.96144,-34.55397" />
	<path
		d="m 136.08591,206.11175 c 0.004,3.85332 10.80968,6.96659 24.13571,6.95361 13.32605,-0.0129 24.12592,-3.14705 24.12219,-7.00036 -0.004,-3.85332 -10.80968,-6.96659 -24.13571,-6.95361 -13.32605,0.0129 -24.12593,3.14705 -24.12219,7.00036"
		style="fill:#343acc" />
	<path
		d="m 70.788466,206.11175 c 0.0037,3.85332 10.809675,6.96659 24.135715,6.95361 13.326039,-0.0129 24.125919,-3.14705 24.122179,-7.00036 -0.004,-3.85332 -10.80967,-6.96659 -24.135711,-6.95361 -13.326039,0.0129 -24.125923,3.14705 -24.122183,7.00036"
		style="fill:#343acc" />
	<path
		d="m 122.10501,166.17785 -1.37523,2.12317 18.74483,12.13924 8.63569,26.70669 h 2.65912 l -9.16476,-28.34042 z"
		style="fill:#ffffff" />
	<path
		d="m 105.6057,163.70314 -11.994482,12.39257 -6.893383,29.82594 h 2.595359 l 6.60386,-28.57135 11.506776,-11.88763 z"
		style="fill:#ffffff" />
	<path
		style="fill:#f2875c"
		d="m 50.110107,230.03126 10.87018,2.47776 3.326917,-34.33671 c 0.22101,-1.57655 0.633437,-2.92142 1.178425,-4.03373 -7.489138,8.41311 -12.590073,21.42255 -15.375522,35.89268" />
	<path
		d="m 181.98173,232.18231 2.93353,-26.0939 h -0.5725 c -0.0399,3.84255 -10.8221,6.96407 -24.12108,6.97705 -13.32615,0.0129 -24.13208,-3.1004 -24.13582,-6.95372 0,-0.008 8.8e-4,-0.0155 8.8e-4,-0.0233 h -0.38042 l 4.76123,38.1832 z"
		style="fill:#343acc" />
	<path
		d="m 96.152913,240.15899 19.172287,4.1126 4.29259,-38.18319 h -0.57238 c -0.0401,3.84253 -10.82222,6.96417 -24.121197,6.97704 -13.32604,0.0129 -24.131974,-3.10029 -24.135714,-6.95372 0,-0.008 8.8e-4,-0.0155 9.7e-4,-0.0233 h -0.380414 l 3.611293,28.96086 z"
		style="fill:#343acc" />
	<path
		style="fill:#ffffff"
		d="m 160.20703,182.01367 c -7.34391,0.007 -13.99112,0.87083 -18.82422,2.27344 -2.41655,0.7013 -4.38032,1.53546 -5.75976,2.48047 -1.37945,0.94501 -2.20036,2.02768 -2.19922,3.21484 0.001,1.18719 0.82381,2.26665 2.20508,3.20899 1.38127,0.94234 3.3477,1.77213 5.76562,2.46875 4.83584,1.39322 11.48416,2.24539 18.82813,2.23828 7.34391,-0.007 13.99111,-0.87279 18.82422,-2.27539 2.41655,-0.70131 4.38031,-1.53547 5.75976,-2.48047 1.37945,-0.94501 2.20036,-2.02573 2.19922,-3.21289 -0.001,-1.18717 -0.82381,-2.26665 -2.20508,-3.20899 -1.38127,-0.94233 -3.3477,-1.77213 -5.76562,-2.46875 -4.83585,-1.39324 -11.48416,-2.24539 -18.82813,-2.23828 z m 0,0.54883 c 7.30099,-0.007 13.91168,0.84423 18.67578,2.2168 2.38205,0.68628 4.30328,1.50481 5.60742,2.39453 1.30415,0.88972 1.96592,1.82571 1.9668,2.75586 9e-4,0.93014 -0.65851,1.86752 -1.96094,2.75976 -1.30242,0.89225 -3.22086,1.71536 -5.60156,2.40625 -4.7614,1.3818 -11.37094,2.24488 -18.67187,2.25196 -7.30099,0.007 -13.91169,-0.84424 -18.67578,-2.2168 -2.38205,-0.68628 -4.30328,-1.50481 -5.60743,-2.39453 -1.30414,-0.88973 -1.96592,-1.82569 -1.96679,-2.75586 -9e-4,-0.93015 0.65851,-1.86557 1.96093,-2.75781 1.30243,-0.89225 3.22087,-1.71536 5.60157,-2.40625 4.7614,-1.3818 11.37094,-2.24683 18.67187,-2.25391 z" />
	<path
		style="fill:#ffffff"
		d="m 94.910156,182.01367 c -7.343907,0.007 -13.991116,0.87083 -18.824218,2.27344 -2.416552,0.7013 -4.380319,1.53546 -5.759766,2.48047 -1.379447,0.94501 -2.202313,2.02768 -2.201172,3.21484 0.0011,1.18719 0.825757,2.26665 2.207031,3.20899 1.381274,0.94234 3.345765,1.77213 5.763672,2.46875 4.835815,1.39322 11.486171,2.24539 18.830078,2.23828 7.343959,-0.007 13.991099,-0.87279 18.824219,-2.27539 2.41656,-0.70131 4.38032,-1.53547 5.75977,-2.48047 1.37944,-0.94501 2.20036,-2.02573 2.19921,-3.21289 -0.001,-1.18717 -0.82576,-2.26665 -2.20703,-3.20899 -1.38127,-0.94233 -3.34575,-1.77213 -5.76367,-2.46875 -4.83584,-1.39324 -11.48416,-2.24539 -18.828124,-2.23828 z m 0,0.54883 c 7.300984,-0.007 13.911684,0.84423 18.675784,2.2168 2.38205,0.68628 4.30327,1.50481 5.60742,2.39453 1.30415,0.88972 1.96592,1.82571 1.9668,2.75586 8.9e-4,0.93014 -0.66047,1.86752 -1.96289,2.75976 -1.30243,0.89225 -3.22086,1.71536 -5.60157,2.40625 -4.76141,1.3818 -11.37089,2.24488 -18.671872,2.25196 -7.300929,0.007 -13.911707,-0.84424 -18.675781,-2.2168 -2.382037,-0.68628 -4.301318,-1.50481 -5.605469,-2.39453 -1.304151,-0.88973 -1.965896,-1.82569 -1.966797,-2.75586 -8.94e-4,-0.93015 0.65851,-1.86557 1.960938,-2.75781 1.302427,-0.89225 3.220861,-1.71536 5.601562,-2.40625 4.761403,-1.3818 11.370947,-2.24683 18.671875,-2.25391 z" />
	<path
		style="fill:#ffffff"
		d="m 186.4082,190.36328 c -0.19303,0.88619 -1.00845,1.7951 -2.39648,2.63672 -1.38804,0.84162 -3.32745,1.60945 -5.6836,2.25391 -4.71228,1.28892 -11.08928,2.08695 -18.10546,2.09375 -6.98525,0.007 -13.33813,-0.77122 -18.04688,-2.04102 -2.35437,-0.6349 -4.29913,-1.39322 -5.69726,-2.22656 -1.39814,-0.83334 -2.2304,-1.73739 -2.44532,-2.61914 l -0.54101,0.0996 6.74219,54.06445 42,-12.23047 0.0215,-0.18164 4.68945,-41.73242 0.004,-0.0273 z m -0.1582,1.38281 -4.51953,40.22266 -41.0293,11.94922 -6.49609,-52.09766 c 0.47713,0.61502 1.10157,1.20158 1.99219,1.73242 1.46407,0.87265 3.44693,1.64145 5.83398,2.28516 4.7741,1.28742 11.16503,2.06742 18.19141,2.06055 7.05748,-0.007 13.47179,-0.80633 18.25,-2.11328 2.3891,-0.65348 4.36929,-1.43227 5.82422,-2.31446 0.87295,-0.52931 1.48717,-1.11323 1.95312,-1.72461 z" />
	<path
		style="fill:#ffffff"
		d="m 125.93164,199.37305 c -5.80223,0 -11.05476,0.67742 -14.87891,1.7832 -1.91207,0.55289 -3.4666,1.2104 -4.56445,1.96094 -1.09785,0.75053 -1.76562,1.61971 -1.76562,2.58398 0,0.96428 0.66777,1.8315 1.76562,2.58203 1.09785,0.75054 2.65238,1.40805 4.56445,1.96094 3.82415,1.10578 9.07668,1.78516 14.87891,1.78516 5.80223,0 11.05473,-0.67938 14.87891,-1.78516 1.91208,-0.55289 3.46659,-1.2104 4.56445,-1.96094 1.09786,-0.75053 1.76562,-1.61775 1.76562,-2.58203 0,-0.96428 -0.66776,-1.83345 -1.76562,-2.58398 -1.09786,-0.75054 -2.65237,-1.40805 -4.56445,-1.96094 -3.82418,-1.10578 -9.07668,-1.7832 -14.87891,-1.7832 z m 0,0.54883 c 5.75925,-10e-6 10.97411,0.67667 14.72656,1.76171 1.87623,0.54252 3.38742,1.18887 4.40821,1.88672 1.02078,0.69785 1.52343,1.4236 1.52343,2.13086 0,0.70727 -0.50265,1.43106 -1.52343,2.12891 -1.02079,0.69785 -2.53198,1.3442 -4.40821,1.88672 -3.75245,1.08504 -8.96731,1.76172 -14.72656,1.76172 -5.75925,0 -10.97414,-0.67668 -14.72656,-1.76172 -1.87621,-0.54252 -3.38548,-1.18887 -4.40625,-1.88672 -1.02078,-0.69785 -1.52539,-1.42164 -1.52539,-2.12891 0,-0.70726 0.50461,-1.43301 1.52539,-2.13086 1.02077,-0.69785 2.53004,-1.3442 4.40625,-1.88672 3.75242,-1.08504 8.96731,-1.76172 14.72656,-1.76171 z" />
	<path
		style="fill:#ffffff"
		d="m 121.11133,190.36328 c -0.19304,0.88619 -1.00845,1.79509 -2.39649,2.63672 -1.38803,0.84163 -3.3294,1.60944 -5.68554,2.25391 -4.71229,1.28892 -11.08929,2.08695 -18.105472,2.09375 -6.985248,0.007 -13.338126,-0.77122 -18.046875,-2.04102 -2.354374,-0.6349 -4.297179,-1.39322 -5.695312,-2.22656 -1.398134,-0.83335 -2.230401,-1.73739 -2.445313,-2.61914 l -0.541016,0.0996 5.576172,44.71289 41.757816,9.64062 0.0351,-0.30664 6.08399,-54.12695 0.004,-0.0273 z m -0.15821,1.37891 -5.90039,52.49609 -40.783199,-9.41406 -5.361328,-43.00391 c 0.477136,0.61502 1.10157,1.20158 1.992188,1.73242 1.464074,0.87265 3.446935,1.64145 5.833984,2.28516 4.774097,1.28742 11.165034,2.06742 18.191406,2.06055 7.057489,-0.007 13.471799,-0.80633 18.249999,-2.11328 2.3891,-0.65348 4.36929,-1.43227 5.82422,-2.31446 0.87464,-0.53033 1.48715,-1.11579 1.95312,-1.72851 z" />
	<path
		d="m 107.15853,224.37358 c 0.003,2.93429 8.23149,5.30511 18.37924,5.29521 10.14774,-0.01 18.37186,-2.39645 18.369,-5.33086 -0.003,-2.93429 -8.23149,-5.30499 -18.37923,-5.29521 -10.14775,0.01 -18.37187,2.39657 -18.36901,5.33086"
		style="fill:#343acc" />
	<path
		d="m 122.10674,165.9004 -2.48162,0.4946 3.44152,17.25586 3.5139,42.13235 h 2.54022 l -3.54493,-42.48564 z"
		style="fill:#ffffff" />
	<path
		style="fill:#ffffff"
		d="m 146.55273,206.0293 c -0.14773,0.67513 -0.7778,1.38388 -1.86718,2.04297 -1.08939,0.65908 -2.61752,1.2635 -4.47461,1.76953 -3.71419,1.01205 -8.74468,1.63672 -14.2793,1.63672 -5.51024,0 -10.52095,-0.61887 -14.23047,-1.62305 -1.85475,-0.50209 -3.38427,-1.10302 -4.48047,-1.75781 -1.09619,-0.6548 -1.73914,-1.35885 -1.90234,-2.03125 l -0.54102,0.0977 4.61914,37.33399 19.35938,4.4707 0.0703,-0.0195 13.98828,-4.07422 4.28125,-37.75586 z m -0.1582,1.38476 -4.08594,36.03516 -13.56836,3.95117 -18.8457,-4.35156 -4.40625,-35.62305 c 0.36951,0.4066 0.85476,0.78827 1.45117,1.14453 1.1621,0.69416 2.72977,1.30547 4.61719,1.81641 3.77484,1.02187 8.82364,1.64258 14.375,1.64258 5.57593,0 10.64371,-0.62624 14.42383,-1.65625 1.89006,-0.51501 3.45892,-1.1305 4.61523,-1.83008 0.58163,-0.35189 1.06247,-0.72796 1.42383,-1.12891 z" />
	<path
		style="fill:#f2875c"
		d="m 153.6354,253.51868 c 19.02367,-14.82052 21.99273,-15.08785 29.73456,-21.08053 l -53.66136,15.62668 z" />
	<path
		style="fill:#f2875c"
		d="m 173.62104,280.89421 c 0.0111,0.0138 0.022,0.0278 0.0331,0.0416 -0.0111,-0.0138 -0.022,-0.0277 -0.0331,-0.0416" />
	<path
		style="fill:#f2875c"
		d="m 172.96002,279.9964 c 0.009,0.0131 0.0178,0.0261 0.0267,0.0391 -0.009,-0.013 -0.0178,-0.0259 -0.0267,-0.0391" />
	<path
		style="fill:#f2875c"
		d="m 173.99259,281.34175 c 0.009,0.01 0.0174,0.0197 0.0259,0.0296 -0.009,-0.01 -0.0174,-0.0196 -0.0259,-0.0296" />
	<path
		style="fill:#f2875c"
		d="m 172.6591,279.53454 c 0.003,0.004 0.005,0.009 0.008,0.0135 -0.003,-0.004 -0.005,-0.009 -0.008,-0.0135" />
	<path
		style="fill:#f2875c"
		d="m 174.75122,282.15201 c 0.0179,0.0177 0.0358,0.0353 0.0539,0.0529 -0.0181,-0.0176 -0.036,-0.0352 -0.0539,-0.0529" />
	<path
		style="fill:#f2875c"
		d="m 174.37124,281.76213 c 0.004,0.004 0.008,0.009 0.0125,0.0137 -0.004,-0.004 -0.008,-0.009 -0.0125,-0.0137" />
	<path
		style="fill:#f2875c"
		d="m 182.88362,257.61138 c -0.41231,-0.15247 -0.92397,-0.12629 -1.55004,0.11233 -35.44505,13.51371 -100.320041,4.3654 -100.320041,4.3654 l 45.038461,10.56304 4.96386,-1.27348 41.36083,7.68419 1.1e-4,3.3e-4 c -2.19513,-3.83142 -2.62362,-8.61817 -0.73156,-12.95212 2.07237,-4.74693 6.4358,-7.82181 11.23838,-8.49969" />
	<path
		style="fill:#f2875c"
		d="m 178.60409,284.86733 c -0.0331,-0.016 -0.0663,-0.0317 -0.0991,-0.0478 0.0329,0.0162 0.066,0.0319 0.0991,0.0478" />
	<path
		style="fill:#f2875c"
		d="m 177.54987,284.30526 c -0.0192,-0.0115 -0.0389,-0.0223 -0.0581,-0.0338 0.0192,0.0115 0.0388,0.0223 0.0581,0.0338" />
	<path
		style="fill:#f2875c"
		d="m 178.04572,284.58426 c -0.0258,-0.0138 -0.0511,-0.0281 -0.0767,-0.042 0.0256,0.0138 0.0509,0.0281 0.0767,0.042" />
	<path
		style="fill:#f2875c"
		d="m 177.05392,283.99973 c -0.029,-0.0187 -0.0579,-0.0376 -0.0868,-0.0566 0.0289,0.0189 0.0578,0.0378 0.0868,0.0566" />
	<path
		style="fill:#f2875c"
		d="m 175.19513,282.57346 c -0.002,-0.002 -0.004,-0.004 -0.006,-0.005 0.002,0.002 0.004,0.004 0.006,0.005" />
	<path
		style="fill:#f2875c"
		d="m 176.53694,283.65121 c -0.007,-0.004 -0.0133,-0.01 -0.02,-0.0145 0.007,0.004 0.0132,0.01 0.02,0.0145" />
	<path
		style="fill:#f2875c"
		d="m 175.64302,282.96279 c -0.0191,-0.0161 -0.038,-0.0324 -0.0572,-0.0484 0.0191,0.0161 0.038,0.0324 0.0572,0.0484" />
	<path
		style="fill:#f2875c"
		d="m 176.10965,283.33537 c -0.0221,-0.0169 -0.0443,-0.0337 -0.0664,-0.0507 0.022,0.0169 0.0442,0.0338 0.0664,0.0507" />
	<path
		style="fill:#db7753"
		d="m 100.94151,279.0944 30.07427,-7.71576 -50.00222,-9.28955 -22.452344,7.49111 c 0,0 24.482574,-4.53197 42.380294,9.5142" />
	<path
		style="fill:#f9b295"
		d="m 74.971226,112.90137 c -4.516453,22.43627 8.324883,40.9078 28.609814,49.49595 2.89788,1.22682 5.26705,5.63282 8.4723,6.27803 2.72109,0.54774 6.12941,-2.60085 8.81255,-2.52813 22.60053,0.61297 42.34751,-11.63354 46.96144,-34.55397 5.16166,-25.64142 -11.44059,-50.612333 -37.08212,-55.773994 -25.64153,-5.16166 -50.612324,11.440691 -55.773984,37.082114" />
	<path
		style="fill:#0e133b"
		d="m 60.097183,127.30513 c 18.582529,19.8966 30.939601,14.26343 49.571747,-7.41906 2.05091,-2.38678 36.6193,45.89939 39.30244,45.97211 22.60052,0.61297 56.27331,-36.38179 37.18727,-47.62853 C 163.62423,104.95069 156.5604,80.118066 130.91887,74.956515 113.15052,71.379656 95.704171,78.25362 84.948071,91.344128 80.182116,97.144505 59.185421,126.3289 60.097183,127.30513" />
	<path
		d="m 129.14537,247.68434 13.19983,-3.88429 2.17304,-19.53247 h -0.42983 c -0.0299,2.91513 -8.12456,5.28327 -18.10877,5.29303 -10.00457,0.0101 -18.11701,-2.35203 -18.11983,-5.27528 0,-0.006 7.6e-4,-0.0123 7.6e-4,-0.0177 H 107.575 l 2.33583,18.92948 z"
		style="fill:#343acc" />
</svg>
