<?xml version="1.0" encoding="UTF-8" standalone="no"?>
<svg
	xmlns:dc="http://purl.org/dc/elements/1.1/"
	xmlns:cc="http://creativecommons.org/ns#"
	xmlns:rdf="http://www.w3.org/1999/02/22-rdf-syntax-ns#"
	xmlns:svg="http://www.w3.org/2000/svg"
	xmlns="http://www.w3.org/2000/svg"
	height="371"
	width="371">
	<path
		d="M 84.663339,89.752123 C 67.685074,90.153172 51.269256,99.115657 42.202611,114.81951 37.782938,122.47463 35.276789,130.8444 35.515658,139.13355 35.503187,215.17686 78.722206,303.27794 96.015681,335.5 H 326.13751 l -123.45119,-82.33922 -50.79968,-29.27477 -46.1185,-26.27716 c -11.478075,-6.62684 -15.4459,-21.44011 -8.819065,-32.91832 6.626955,-11.47809 21.440125,-15.4475 32.918315,-8.82065 l 15.37178,8.87592 54.51746,30.21922 -31.93123,-65.62974 -56.99545,-32.905681 c -8.22582,-4.749158 -17.273235,-6.88755 -26.166611,-6.677476 z"
		style="fill:#343acc" />
	<path
		d="m 114.83833,143.64416 c -2.2413,-0.0382 -4.28832,0.18804 -6.0947,0.72492 -49.725855,14.77924 3.97653,111.66231 10.4537,126.8373 3.70057,8.67002 14.98439,39.28329 24.11503,64.29362 H 324.93878 L 151.88664,223.88601 105.76814,197.60885 c -11.478074,-6.62684 -15.445901,-21.44024 -8.819065,-32.91832 6.626835,-11.47797 21.440235,-15.44761 32.918315,-8.82065 l 15.37178,8.87592 54.51588,30.21922 -8.99438,-18.48783 c -14.5103,-7.41562 -54.25641,-32.46403 -75.92234,-32.83303 z"
		style="fill:#2c32af" />
	<path
		style="fill:#fe9d70"
		d="m 128.01113,128.34159 c 0,-19.15938 11.82614,-35.5543 28.57587,-42.289991 0.28446,-0.657184 0.44948,-1.020722 0.46484,-1.047121 l 7.54893,-13.075399 c 0.0504,-0.01291 0.1006,-0.0264 0.15106,-0.03919 l 16.35422,-28.326558 c 2.77235,-4.801822 8.96948,-6.462398 13.7713,-3.689925 1.83862,1.061541 3.21346,2.626407 4.05846,4.421537 l -27.50178,47.634559 c -0.21584,0.373888 -0.0866,0.856396 0.28725,1.072356 l 0.15269,0.08804 c 0.37389,0.215843 0.8564,0.08664 1.07224,-0.287249 l 29.45774,-51.02235 c 2.84551,-4.593304 8.89669,-6.141889 13.60745,-3.422213 v 1.16e-4 c 1.80769,1.043632 3.16741,2.573725 4.01566,4.330943 l -32.93113,57.03864 c -0.21596,0.373775 -0.0866,0.856285 0.28725,1.072245 l 0.1527,0.0881 c 0.37389,0.21584 0.85639,0.0865 1.07224,-0.28737 l 32.18021,-55.737878 c 0.008,0.035 0.0178,0.06966 0.0255,0.104782 l 2.56035,-4.434795 c 2.77235,-4.801938 8.96937,-6.462398 13.7713,-3.690041 v 0 c 4.80193,2.772357 6.4624,8.969486 3.69004,13.771308 l -28.26735,48.960555 c 3.69527,-0.841046 7.54138,-1.285409 11.49133,-1.285409 22.82021,0 42.17705,14.824938 48.96727,35.368928 0.005,0.0146 -0.002,0.0326 -0.0189,0.0533 0.30493,0.982 0.46914,2.02598 0.46914,3.10822 0,5.78231 -4.68739,10.46969 -10.46969,10.46969 -4.80531,0 -8.85412,-3.23753 -10.0851,-7.65023 -0.21375,-0.41274 -0.45181,-0.82162 -0.61567,-1.22599 -4.52317,-11.15932 -15.46501,-19.03086 -28.24699,-19.03086 -16.82776,0 -30.46927,13.64163 -30.46927,30.46929 0,16.82778 13.64151,30.4693 30.46927,30.4693 12.68615,0 23.79243,-7.75374 28.37725,-18.78002 l 0.35074,-0.93861 c 1.04131,-4.68507 5.22107,-8.18834 10.21977,-8.18834 5.7823,0 10.46969,4.68739 10.46969,10.46969 0,1.47254 -0.30458,2.87366 -0.85327,4.14487 l -0.21386,0.77488 c -7.28972,19.62618 -26.1866,33.61054 -48.35032,33.61054 -10.39804,0 -20.07669,-3.07833 -28.17559,-8.37266 0,0 -41.02002,-23.12225 -42.16564,-23.6779 -15.21591,-7.37985 -25.70711,-22.97536 -25.70711,-41.02179" />
	<path
		style="fill:#f9c9b7"
		d="m 185.02352,42.509958 c 3.69806,2.135061 4.97673,6.90746 2.84179,10.605525 l -3.90996,6.772092 c -4.18708,-4.197204 -7.15644,-5.753929 -9.20556,-5.314799 l 6.68627,-11.581007 c 0.29806,-0.516234 0.64753,-0.985136 1.03828,-1.404379 0.87535,0.150369 1.73803,0.454248 2.54918,0.922568" />
	<path
		style="fill:#f9c9b7"
		d="m 206.1576,40.994716 c 3.69795,2.13506 4.97673,6.907459 2.84179,10.605525 l -3.90996,6.772092 c -4.18709,-4.197204 -7.15644,-5.753929 -9.20556,-5.3148 l 6.68626,-11.581007 c 0.29795,-0.516234 0.64754,-0.985135 1.03829,-1.404379 0.87523,0.15037 1.73802,0.454249 2.54918,0.922569" />
	<path
		style="fill:#f9c9b7"
		d="m 227.29166,39.479473 c 3.69794,2.13506 4.97672,6.907459 2.84178,10.605524 l -3.90995,6.772093 c -4.18709,-4.197204 -7.15644,-5.753929 -9.20557,-5.314799 l 6.68627,-11.581008 c 0.29807,-0.516234 0.64753,-0.985135 1.03828,-1.404379 0.87523,0.15037 1.73803,0.454249 2.54919,0.922569" />
	<path
		style="fill:#f9c9b7"
		d="m 272.96604,140.05689 c -1.4481,0.75672 -3.09484,1.18516 -4.84182,1.18516 -4.80531,0 -8.85412,-3.23742 -10.0851,-7.65012 -0.0878,-0.16944 -0.83744,-5.80196 1.08073,-6.60625 l 9.0738,-3.80413 c 1.98166,3.27231 3.61177,6.78127 4.83309,10.47667 0.005,0.0146 -0.002,0.0326 -0.0191,0.0533 0.30493,0.98199 0.46925,2.02597 0.46925,3.10833 0,1.1298 -0.17968,2.21763 -0.51088,3.23707" />
	<path
		style="fill:#f9c9b7"
		d="m 272.96604,159.60235 c -1.4481,-0.75673 -3.09484,-1.18516 -4.84182,-1.18516 -4.80531,0 -8.85412,3.23742 -10.0851,7.65012 -0.0878,0.16944 -0.83744,5.80196 1.08073,6.60613 l 9.0738,3.80425 c 1.98166,-3.27232 3.61177,-6.78128 4.83309,-10.47667 0.005,-0.0146 -0.002,-0.0326 -0.0191,-0.0533 0.30493,-0.982 0.46925,-2.02598 0.46925,-3.10833 0,-1.12981 -0.17968,-2.21763 -0.51088,-3.23708" />
	<path
		style="fill:#0e133b"
		d="m 280.32936,152.31449 c 1.60092,0 2.89877,-1.29785 2.89877,-2.89877 0,-1.60104 -1.29785,-2.89889 -2.89877,-2.89889 -1.60103,0 -2.89877,1.29785 -2.89877,2.89889 0,1.60092 1.29774,2.89877 2.89877,2.89877 m -34.02894,-9.6768 h 0.58751 c 0.62579,0 1.13772,0.51194 1.13772,1.1376 v 3.62992 h 1.6879 v -3.62992 c 0,-0.62566 0.51193,-1.1376 1.13771,-1.1376 h 0.58752 c 0.62579,0 1.13772,0.51194 1.13772,1.1376 v 3.62992 h 22.59262 c 0.80488,-2.06435 2.81096,-3.52769 5.16024,-3.52769 3.05867,0 5.53819,2.47953 5.53819,5.5382 0,3.05856 -2.47952,5.53808 -5.53819,5.53808 -2.14657,0 -4.00659,-1.22202 -4.92579,-3.00774 h -29.10315 c -0.62579,0 -1.13772,-0.51192 -1.13772,-1.13771 v -1.13771 -1.12772 -4.76763 c 0,-0.62566 0.51193,-1.1376 1.13772,-1.1376" />
	<path
		d="M 132.13477 147.31055 C 136.54598 156.93221 144.21012 164.75151 153.71875 169.36328 C 154.1871 169.59044 161.6933 173.80263 169.96289 178.45117 L 199.75586 194.96484 L 190.75977 176.47656 C 179.58668 170.76646 153.4573 154.61248 132.13477 147.31055 z "
		style="fill:#ce8165" />
</svg>
