<?xml version="1.0" encoding="utf-8"?>
<svg
	xmlns:dc="http://purl.org/dc/elements/1.1/"
	xmlns:cc="http://creativecommons.org/ns#"
	xmlns:rdf="http://www.w3.org/1999/02/22-rdf-syntax-ns#"
	xmlns:svg="http://www.w3.org/2000/svg"
	xmlns="http://www.w3.org/2000/svg"
	height="371"
	width="371">
	<path
		d="m 297.01955,310.22874 -17.06274,-17.37051 c -0.78916,-0.57813 -1.79375,-0.73827 -2.84171,-0.53917 -0.66833,-0.38248 -1.36776,-0.78916 -2.0747,-1.23932 l -47.85238,-29.883 c -0.87018,-0.46231 -7.74263,-5.73702 -7.74263,-5.73702 l -32.98457,-30.56933 c -0.5269,-0.38582 -1.08097,-0.70944 -1.65303,-0.9736 -2.52582,-3.63587 -6.02097,-6.54752 -10.11367,-8.35723 -0.21877,-0.0968 -0.43932,-0.19029 -0.66143,-0.28061 -0.006,-0.002 -0.0108,-0.006 -0.0162,-0.008 l -8.1e-4,-3.6e-4 c -0.10902,-0.0536 -0.21913,-0.11009 -0.32994,-0.16813 -0.0347,-0.0182 -0.0699,-0.0373 -0.10473,-0.0559 -0.078,-0.0417 -0.15633,-0.0842 -0.23534,-0.12808 -0.0395,-0.0219 -0.079,-0.0441 -0.11867,-0.0666 -0.08,-0.0453 -0.1605,-0.0919 -0.24141,-0.1393 -0.0348,-0.0204 -0.0694,-0.0403 -0.10425,-0.061 -0.11463,-0.0684 -0.22998,-0.13821 -0.34615,-0.21066 -0.01,-0.006 -0.0197,-0.0125 -0.0294,-0.0187 -0.10724,-0.067 -0.21507,-0.13583 -0.32338,-0.20625 -0.0379,-0.0245 -0.0759,-0.0498 -0.11391,-0.0747 -0.0823,-0.0542 -0.16503,-0.10915 -0.24796,-0.16527 -0.0417,-0.028 -0.0833,-0.0563 -0.125,-0.0848 -0.086,-0.0586 -0.17229,-0.11855 -0.25892,-0.17932 -0.0355,-0.0248 -0.0707,-0.0491 -0.10628,-0.0742 -0.12094,-0.0856 -0.24248,-0.17266 -0.36473,-0.26191 -0.0167,-0.0121 -0.0334,-0.0247 -0.0501,-0.037 -0.10664,-0.078 -0.21352,-0.15752 -0.321,-0.23819 -0.0404,-0.0304 -0.0809,-0.0614 -0.12141,-0.092 -0.0859,-0.0652 -0.17194,-0.13095 -0.25845,-0.19779 -0.0435,-0.0336 -0.087,-0.0672 -0.13071,-0.10128 -0.0912,-0.0712 -0.18278,-0.14334 -0.27453,-0.21627 -0.0352,-0.0279 -0.0703,-0.0554 -0.10557,-0.0836 -0.1263,-0.1008 -0.25297,-0.20316 -0.38011,-0.3073 -0.0227,-0.0184 -0.0455,-0.0375 -0.0682,-0.0561 -0.10546,-0.0867 -0.21114,-0.1742 -0.3172,-0.26297 -0.043,-0.0359 -0.0861,-0.0723 -0.12928,-0.10867 -0.0883,-0.0743 -0.1767,-0.1493 -0.26547,-0.22509 -0.0448,-0.0382 -0.0896,-0.0765 -0.13452,-0.11522 -0.096,-0.0824 -0.19232,-0.16586 -0.28859,-0.24998 -0.0348,-0.0303 -0.0695,-0.0602 -0.10439,-0.0907 -0.12987,-0.11391 -0.26023,-0.22901 -0.39082,-0.34567 -0.0285,-0.0252 -0.0569,-0.0511 -0.0853,-0.0765 -0.10355,-0.0928 -0.20733,-0.18624 -0.31136,-0.28073 -0.0449,-0.0408 -0.0898,-0.0817 -0.13488,-0.12285 -0.0907,-0.0827 -0.18159,-0.1661 -0.2725,-0.24998 -0.0453,-0.0418 -0.0906,-0.0835 -0.13583,-0.12559 -0.1,-0.0927 -0.20007,-0.18624 -0.30028,-0.28025 -0.034,-0.0319 -0.068,-0.0635 -0.10211,-0.0957 -0.13262,-0.12488 -0.2656,-0.25094 -0.39869,-0.37807 -0.0317,-0.0304 -0.0636,-0.0611 -0.0953,-0.0918 -0.10306,-0.0986 -0.20613,-0.19779 -0.30932,-0.29776 -0.046,-0.0445 -0.092,-0.0892 -0.13786,-0.13405 -0.092,-0.0894 -0.18385,-0.17921 -0.27596,-0.26953 -0.0463,-0.0454 -0.0925,-0.0908 -0.13881,-0.13643 -0.10355,-0.10211 -0.20721,-0.20494 -0.311,-0.30825 -0.0318,-0.0316 -0.0635,-0.0629 -0.0953,-0.0946 -0.13417,-0.13394 -0.26857,-0.26894 -0.4031,-0.40466 -0.0357,-0.0361 -0.0712,-0.0724 -0.10699,-0.10855 -0.10033,-0.10163 -0.20067,-0.20351 -0.30111,-0.3061 -0.0478,-0.0488 -0.0957,-0.0981 -0.1437,-0.14715 -0.0914,-0.0937 -0.1829,-0.18779 -0.27429,-0.28228 -0.0467,-0.0483 -0.0934,-0.0963 -0.14013,-0.14478 -0.10795,-0.11188 -0.21614,-0.22436 -0.32421,-0.33732 -0.0275,-0.0289 -0.0553,-0.0576 -0.0828,-0.0865 -0.13464,-0.14096 -0.26928,-0.28264 -0.40393,-0.42491 -0.0391,-0.0413 -0.0782,-0.0829 -0.11725,-0.12451 -0.0975,-0.10319 -0.19481,-0.20661 -0.29204,-0.31052 -0.0488,-0.0518 -0.0972,-0.10378 -0.14573,-0.15573 -0.0909,-0.0974 -0.18171,-0.19482 -0.27227,-0.29252 -0.0471,-0.0506 -0.0941,-0.10128 -0.14119,-0.15205 -0.10832,-0.11712 -0.21651,-0.23449 -0.3247,-0.35221 -0.0271,-0.0293 -0.0541,-0.0585 -0.0809,-0.0878 -0.13309,-0.14513 -0.26619,-0.29074 -0.39892,-0.43671 -0.0417,-0.0458 -0.0834,-0.0919 -0.12511,-0.13785 -0.0939,-0.10343 -0.18779,-0.20698 -0.28145,-0.31088 -0.049,-0.0541 -0.0978,-0.10842 -0.14655,-0.16264 -0.09,-0.0998 -0.17981,-0.19994 -0.26953,-0.30004 -0.0463,-0.0517 -0.0923,-0.10318 -0.13845,-0.15477 -0.11249,-0.12583 -0.22462,-0.25189 -0.33662,-0.37808 -0.0209,-0.0236 -0.042,-0.0471 -0.0631,-0.0707 -0.13107,-0.14811 -0.26202,-0.29622 -0.39274,-0.44457 -0.044,-0.05 -0.0878,-0.10009 -0.13178,-0.15013 -0.089,-0.1014 -0.17802,-0.2028 -0.26679,-0.30432 -0.05,-0.0573 -0.10008,-0.11462 -0.15,-0.17194 -0.0866,-0.0993 -0.17302,-0.19863 -0.2594,-0.298 -0.0461,-0.0531 -0.0922,-0.10617 -0.13822,-0.15931 -0.11177,-0.12905 -0.2233,-0.25809 -0.33459,-0.38714 -0.0232,-0.027 -0.0465,-0.0539 -0.0698,-0.0809 -0.12226,-0.14215 -0.24415,-0.28442 -0.36581,-0.42645 -0.0468,-0.0548 -0.0935,-0.10951 -0.14036,-0.16432 -0.0834,-0.0977 -0.1667,-0.19541 -0.24975,-0.29299 -0.0499,-0.0588 -0.0997,-0.11749 -0.14953,-0.17611 -0.0837,-0.0985 -0.16718,-0.19708 -0.25034,-0.29551 -0.0447,-0.0529 -0.0895,-0.10568 -0.13406,-0.15859 -0.11248,-0.13334 -0.22472,-0.26666 -0.33637,-0.39976 -0.0332,-0.0395 -0.0661,-0.0788 -0.099,-0.11809 -0.10272,-0.1226 -0.20531,-0.24509 -0.3073,-0.36723 -0.0485,-0.0583 -0.0969,-0.11629 -0.14525,-0.17432 -0.0773,-0.0929 -0.15455,-0.18576 -0.2314,-0.27834 -0.05,-0.0603 -0.10009,-0.12059 -0.15001,-0.18076 -0.0778,-0.0941 -0.15538,-0.1879 -0.23271,-0.28156 -0.0452,-0.0547 -0.0906,-0.1095 -0.1356,-0.16408 -0.11605,-0.14084 -0.23164,-0.28144 -0.34649,-0.42144 -0.0298,-0.0362 -0.0591,-0.0722 -0.0888,-0.10843 -0.0915,-0.11165 -0.18266,-0.22318 -0.27346,-0.33423 -0.0478,-0.0584 -0.0951,-0.11665 -0.14251,-0.1748 -0.0715,-0.0877 -0.14262,-0.17504 -0.2134,-0.26226 -0.0503,-0.0619 -0.10045,-0.12356 -0.15037,-0.18516 -0.0717,-0.0882 -0.14251,-0.17599 -0.21352,-0.26369 -0.0448,-0.0554 -0.0897,-0.11093 -0.13441,-0.16611 -1.76372,-2.18444 -3.34692,-4.21923 -4.64105,-5.91515 l 0.49985,-0.19375 25.03272,-9.6995 c 0.006,-0.002 0.0157,-0.005 0.028,-0.009 0.003,-8.1e-4 0.008,-0.002 0.0116,-0.003 0.0101,-0.003 0.0214,-0.006 0.0349,-0.0106 0.006,-0.002 0.0139,-0.004 0.0213,-0.006 0.0131,-0.004 0.0273,-0.008 0.0429,-0.0129 0.009,-0.002 0.0182,-0.006 0.028,-0.008 0.0178,-0.005 0.037,-0.011 0.0571,-0.0169 0.0111,-0.003 0.0217,-0.006 0.0335,-0.01 0.0209,-0.006 0.0437,-0.013 0.0669,-0.0198 0.0132,-0.004 0.0255,-0.007 0.0395,-0.0117 0.0773,-0.0227 0.16623,-0.0488 0.26643,-0.078 0.009,-0.002 0.0194,-0.006 0.029,-0.008 0.0423,-0.0123 0.0861,-0.0251 0.13226,-0.0385 0.013,-0.004 0.0264,-0.008 0.0397,-0.0117 0.0431,-0.0125 0.0879,-0.0255 0.13429,-0.0391 0.0178,-0.005 0.0355,-0.0103 0.0539,-0.0156 0.0503,-0.0146 0.10213,-0.0298 0.15586,-0.0453 0.0116,-0.003 0.0228,-0.006 0.0345,-0.01 0.13667,-0.0398 0.28382,-0.0824 0.44123,-0.12809 0.0239,-0.007 0.0488,-0.0141 0.0729,-0.0211 0.0553,-0.0161 0.11105,-0.0322 0.16872,-0.049 0.0297,-0.008 0.0603,-0.0174 0.0904,-0.0261 0.0553,-0.0161 0.11117,-0.0322 0.1686,-0.0488 0.0262,-0.007 0.0531,-0.0154 0.0798,-0.0231 0.45708,-0.13226 0.97564,-0.28203 1.54937,-0.44754 0.006,-0.002 0.011,-0.003 0.0163,-0.005 0.93942,-0.27096 2.02432,-0.58362 3.2217,-0.92821 0.0158,-0.005 0.0316,-0.009 0.0475,-0.0138 5.29628,-1.52433 12.77499,-3.67137 19.61156,-5.63276 0.0171,-0.005 0.0343,-0.01 0.0514,-0.0148 0.38487,-0.11034 0.76771,-0.2202 1.14793,-0.32934 8.68192,-2.49055 16.02693,-4.59553 16.02693,-4.59553 0.16134,-0.0254 0.32541,-0.0644 0.49247,-0.12165 l 7.23324,-2.43373 c 0,0 1.66696,-0.60649 3.786,-0.69847 2.11904,-0.092 1.29568,-2.60686 -3.83056,-1.24838 -2.35413,0.62388 -1.99952,-1.09538 -0.63735,-1.48026 2.0473,-0.57837 4.09293,-1.17676 5.22514,-1.74643 1.83377,-0.92273 3.13959,-6.22115 -4.73638,-4.2824 l -1.7406,0.58814 -7.81603,2.64129 c -0.33303,0.11415 -0.62222,0.27572 -0.87161,0.47471 0,0 -42.49962,12.88258 -43.00293,13.01043 l -38.76843,8.19732 -0.23592,0.0499 c -0.0609,0.0154 -0.12082,0.0325 -0.181,0.0496 l -13.68638,-13.04796 c -4.47877,-4.68978 -9.96867,-7.7549 -16.46363,-7.7549 -10.337811,0 -18.718152,8.38046 -18.718152,18.71814 0,6.72601 3.999286,11.56282 8.874115,15.92207 l 11.541267,10.4006 c -0.0591,0.0192 -0.11725,0.0413 -0.17599,0.0621 -0.0423,0.0149 -0.0847,0.0293 -0.1269,0.045 -0.0697,0.0261 -0.1387,0.0541 -0.20769,0.0822 -0.0362,0.015 -0.0726,0.0299 -0.10867,0.0454 -0.0733,0.0315 -0.14596,0.0641 -0.21841,0.0979 -0.0274,0.0129 -0.0548,0.0264 -0.0821,0.0397 -0.0783,0.0378 -0.15622,0.0763 -0.23307,0.11713 -0.001,5.9e-4 -0.002,8e-4 -0.004,0.002 1.2e-4,0 1.2e-4,0 1.2e-4,1.2e-4 -0.89604,0.47555 -1.7045,1.14674 -2.35269,2.00667 L 76.071234,241.4292 c -0.0348,0.0462 -0.0678,0.0933 -0.09949,0.14083 l -37.967077,34.92764 c -5.5832,5.88383 -0.333035,7.37194 1.376468,6.23521 1.055347,-0.70169 2.587906,-2.18314 4.103784,-3.67554 1.008758,-0.99316 2.678105,-0.45029 0.970748,1.28638 -3.717725,3.78172 -1.940067,5.74203 -0.811321,3.94638 1.128746,-1.79577 2.480907,-2.94393 2.480907,-2.94393 l 35.324641,-34.01788 c 0.386774,-0.24415 0.771998,-0.57253 1.148406,-0.9978 0,0 19.84689,-21.25708 22.29825,-23.80531 2.45159,-2.54823 5.06679,-2.61888 8.33339,-0.059 l 0.58362,0.46411 c 0.0293,0.0232 0.0585,0.0463 0.0879,0.07 0.0922,0.0734 0.18588,0.14787 0.28025,0.22306 0.0413,0.0329 0.0827,0.0659 0.12439,0.0991 0.0889,0.0708 0.17897,0.14262 0.26965,0.21494 0.0521,0.0416 0.10438,0.0832 0.15704,0.12524 0.0872,0.0695 0.17516,0.13977 0.26381,0.21055 0.0538,0.043 0.10784,0.0861 0.16229,0.12964 0.0907,0.0723 0.18206,0.14536 0.27405,0.219 0.0531,0.0425 0.10676,0.0853 0.16038,0.12821 0.0953,0.0763 0.19137,0.15311 0.28824,0.23056 0.0552,0.0442 0.11069,0.0886 0.16622,0.13322 0.0927,0.0742 0.186,0.14894 0.27989,0.22424 0.0617,0.0494 0.12392,0.0994 0.18612,0.1493 0.0928,0.0743 0.186,0.14906 0.27977,0.22437 0.0639,0.0514 0.12809,0.10295 0.19256,0.15467 0.0945,0.076 0.18945,0.15227 0.28513,0.22913 0.0637,0.0513 0.12786,0.10282 0.19208,0.15442 0.097,0.078 0.19422,0.15633 0.29216,0.23509 0.0649,0.0524 0.13047,0.10509 0.19589,0.15776 0.0989,0.0797 0.19792,0.15955 0.29777,0.23997 0.0678,0.0547 0.13607,0.10987 0.20447,0.16491 0.0974,0.0788 0.19493,0.15752 0.29335,0.23688 0.0702,0.0567 0.14096,0.11391 0.21162,0.17099 0.0995,0.0805 0.19898,0.16086 0.2992,0.24188 0.069,0.0559 0.13857,0.11212 0.20792,0.16836 0.10307,0.0834 0.20613,0.16695 0.30992,0.25107 0.0687,0.0555 0.13774,0.11164 0.20673,0.16741 0.10331,0.0839 0.20674,0.16776 0.31087,0.25225 0.0769,0.0624 0.15419,0.12523 0.2314,0.18802 0.097,0.0788 0.19399,0.15753 0.29145,0.23676 0.0789,0.0642 0.15824,0.12892 0.23748,0.19339 0.1002,0.0815 0.20017,0.16288 0.30074,0.24486 0.0755,0.0614 0.15156,0.12356 0.22735,0.18528 0.10223,0.0834 0.20447,0.16682 0.3073,0.2507 0.0795,0.0648 0.15943,0.13024 0.23914,0.19542 0.10104,0.0826 0.2022,0.16514 0.30372,0.24832 0.0782,0.0639 0.15669,0.1282 0.23497,0.19231 0.10296,0.0844 0.20602,0.1686 0.30932,0.25332 0.0839,0.0687 0.16826,0.13798 0.25226,0.20709 0.0976,0.08 0.19517,0.1599 0.29299,0.24033 0.0893,0.0733 0.17873,0.14704 0.26822,0.22056 0.0945,0.0778 0.18886,0.15537 0.28359,0.2333 0.096,0.0791 0.19219,0.15847 0.28847,0.23772 0.0871,0.072 0.1742,0.14358 0.26143,0.21566 0.0861,0.071 0.17217,0.14239 0.25844,0.21352 0.10116,0.0835 0.20208,0.16694 0.30336,0.25071 0.0322,0.0267 0.0647,0.0536 0.0969,0.0803 0.16502,0.13656 0.33005,0.27323 0.49509,0.41025 0.16967,0.14073 0.33922,0.28157 0.50878,0.42265 0.0717,0.0594 0.14286,0.11903 0.21436,0.17848 0.11379,0.0947 0.22746,0.18946 0.34114,0.28419 0.08,0.0669 0.16002,0.13369 0.24009,0.20054 0.1045,0.0872 0.209,0.17443 0.31338,0.26177 0.0891,0.0746 0.17801,0.14919 0.26702,0.22366 0.0946,0.0793 0.18933,0.1586 0.28383,0.23783 0.0858,0.072 0.17122,0.14394 0.25677,0.21591 0.0997,0.0836 0.19959,0.16753 0.29908,0.25129 0.0821,0.0691 0.16396,0.13822 0.24581,0.20733 0.0997,0.084 0.19947,0.168 0.29896,0.25201 0.0883,0.0746 0.17635,0.14906 0.2644,0.22365 0.0934,0.079 0.18696,0.15812 0.28026,0.23712 0.0863,0.0732 0.17217,0.14608 0.2582,0.21925 0.0954,0.081 0.191,0.16204 0.28609,0.24295 0.0839,0.0714 0.16718,0.14239 0.2507,0.21364 0.0953,0.0813 0.19088,0.16253 0.28585,0.24367 0.0839,0.0717 0.16742,0.14311 0.25106,0.21472 0.0944,0.0808 0.18874,0.16157 0.28263,0.242 0.0815,0.0699 0.16241,0.13941 0.24344,0.20899 0.0954,0.082 0.19088,0.16396 0.2856,0.24558 0.0805,0.0692 0.16003,0.1381 0.23998,0.20709 0.0939,0.0809 0.18767,0.16182 0.28085,0.24248 0.0803,0.0695 0.16014,0.13869 0.23998,0.20793 0.0916,0.0795 0.18337,0.15895 0.2744,0.23818 0.08,0.0695 0.15932,0.13858 0.23879,0.20781 0.0904,0.0788 0.18076,0.15752 0.27036,0.23581 0.0785,0.0686 0.15657,0.1369 0.2345,0.20518 0.0888,0.0777 0.1773,0.15525 0.26511,0.23247 0.0782,0.0687 0.15586,0.13702 0.23343,0.20541 0.0866,0.0762 0.17289,0.15228 0.25868,0.22807 0.0778,0.0687 0.15514,0.13714 0.23211,0.20542 0.0841,0.0745 0.16801,0.14882 0.25141,0.22282 0.0762,0.0678 0.15193,0.13535 0.22747,0.20268 0.0834,0.0743 0.16646,0.14858 0.24915,0.22234 0.0739,0.0661 0.14728,0.1319 0.22043,0.19768 0.0816,0.0732 0.16277,0.1462 0.24356,0.21888 0.0735,0.0662 0.14668,0.13226 0.21948,0.19804 0.0784,0.0709 0.15633,0.14155 0.2339,0.21185 0.0723,0.0658 0.14441,0.13119 0.21591,0.19637 0.0772,0.0703 0.15383,0.14024 0.23008,0.20994 0.0692,0.0634 0.13799,0.12643 0.20638,0.1891 0.0767,0.0705 0.15276,0.14048 0.2283,0.21031 0.0666,0.0615 0.13309,0.12273 0.19875,0.18373 0.0743,0.0689 0.14811,0.13727 0.22126,0.20555 0.0654,0.0608 0.13048,0.12154 0.19494,0.18183 0.0717,0.0672 0.14262,0.13381 0.21329,0.20017 0.0634,0.0596 0.12654,0.11904 0.18885,0.17802 0.0696,0.0657 0.1381,0.13095 0.2065,0.19589 0.0611,0.0581 0.12225,0.11642 0.18242,0.17385 0.0677,0.0646 0.13393,0.12845 0.20018,0.19219 0.0585,0.0564 0.11713,0.11272 0.17468,0.16836 0.0654,0.0635 0.12976,0.12607 0.19386,0.18862 0.0559,0.0546 0.11201,0.10927 0.16694,0.16313 0.0627,0.0616 0.12404,0.12225 0.18541,0.1829 0.0539,0.0534 0.10819,0.107 0.16097,0.15966 0.0602,0.0599 0.1188,0.11892 0.17742,0.1779 0.0511,0.0513 0.10248,0.10271 0.15228,0.15336 0.0579,0.0585 0.11403,0.11605 0.17027,0.1736 0.0484,0.0496 0.0972,0.0994 0.14441,0.14811 0.0551,0.0568 0.10808,0.11224 0.16146,0.16789 0.0456,0.0476 0.0917,0.0957 0.13619,0.14251 0.0522,0.0549 0.10223,0.10867 0.15276,0.16252 0.0428,0.0458 0.0864,0.092 0.12809,0.13691 0.0494,0.0534 0.0965,0.10521 0.14429,0.1574 0.0395,0.0433 0.08,0.0872 0.11833,0.12965 0.0473,0.0524 0.0919,0.10306 0.13714,0.15418 0.0358,0.0404 0.0728,0.0815 0.10736,0.12106 0.0447,0.0513 0.0866,0.10044 0.12928,0.15026 0.0322,0.0375 0.0657,0.0759 0.0965,0.1126 0.0423,0.05 0.0814,0.0981 0.1213,0.14655 0.0284,0.0343 0.0581,0.0698 0.0853,0.10343 0.0404,0.05 0.0773,0.0976 0.11511,0.14585 0.0236,0.0302 0.0488,0.0612 0.0714,0.0907 0.04,0.0521 0.0765,0.10188 0.11331,0.15192 0.0173,0.0234 0.0364,0.0481 0.0531,0.0712 0.0517,0.0718 0.1002,0.14155 0.14501,0.20864 0.2364,0.3546 0.4747,0.7011 0.71456,1.03973 0.209,0.29492 0.41954,0.58267 0.63104,0.86566 0.17837,0.23867 0.35758,0.47328 0.53774,0.7036 0.34173,0.43718 0.68645,0.86042 1.0339,1.26828 0.55812,0.79428 1.16354,1.55306 1.81091,2.27334 0.30122,0.33518 0.61138,0.66226 0.93082,0.98016 0.004,0.004 0.007,0.008 0.0113,0.0118 0.25654,0.25487 0.52035,0.50236 0.78809,0.74567 0.25928,0.23581 0.52202,0.46804 0.79154,0.69264 2.00739,1.6728 4.28967,3.02699 6.76926,3.98463 0.22532,0.0871 0.45242,0.17087 0.68097,0.2513 0.13905,0.049 0.27953,0.0941 0.41966,0.1406 0.16728,0.14096 0.33828,0.27894 0.51724,0.41013 l 44.4808,29.90683 c 0.48877,0.35805 52.16944,27.71915 52.16944,27.71915 1.62395,0.91439 3.23896,1.73858 4.77164,2.24951 0.23104,0.4585 0.55241,0.85255 0.96563,1.1552 l 20.20233,13.10027 c 1.92445,1.40983 6.77557,-3.17081 4.10771,-5.62276 l -17.06274,-17.37063 c -0.99171,-0.72648 -2.3235,-0.79238 -3.65433,-0.31468 -1.07048,-0.54871 -2.27977,-1.12244 -3.51695,-1.81901 L 210.8761,282.86286 c -0.71766,-0.33267 -1.39339,-0.53893 -2.02442,-0.63747 -0.0296,-0.0261 -0.0573,-0.0524 -0.0876,-0.0785 l -26.46672,-27.58892 c 0.0891,-0.092 0.17777,-0.18457 0.26547,-0.27799 0.0355,-0.0379 0.0709,-0.0758 0.10617,-0.11379 0.28299,-0.30527 0.55811,-0.61781 0.82526,-0.93738 0.0335,-0.04 0.0666,-0.0798 0.0997,-0.11999 0.19255,-0.23342 0.3807,-0.47054 0.56467,-0.71123 0.0674,-0.007 0.13584,-0.013 0.20149,-0.0224 0.0359,0.0164 0.07,0.0335 0.10652,0.0496 l 35.05297,17.9645 c 0.57528,0.42157 49.24875,28.98505 49.24875,28.98505 0.91665,0.58373 1.83175,1.13625 2.73351,1.61358 0.21984,0.721 0.62126,1.33405 1.20774,1.7636 l 20.20209,13.10015 c 1.92469,1.40983 6.77569,-3.1708 4.10784,-5.62276"
		style="fill:#dbd7ce" />
	<path
		style="fill:#fe9d70"
		d="m 330.38814,211.31799 -19.17581,-19.52161 c -0.88686,-0.64974 -2.01585,-0.82966 -3.19345,-0.60589 -0.75115,-0.42979 -1.53721,-0.88687 -2.33173,-1.39279 l -53.77826,-33.58368 c -0.97789,-0.51951 -8.70146,-6.44743 -8.70146,-6.44743 l -37.06941,-34.35497 c -4.81871,-3.52993 -11.64945,-2.47542 -15.17939,2.34329 h -1.2e-4 c -3.52994,4.81871 -4.79261,18.31397 0.0262,21.84391 l 52.30624,26.94609 c 0.64653,0.47363 55.34752,32.57444 55.34752,32.57444 1.03009,0.65583 2.05851,1.27698 3.07191,1.81329 0.24713,0.81025 0.69824,1.49919 1.35729,1.98201 l 22.70396,14.72243 c 2.16289,1.58439 7.61466,-3.56353 4.6165,-6.31909" />
	<path
		style="fill:#fe9d70"
		d="m 316.33122,233.10293 -19.17593,-19.5216 c -1.11445,-0.81645 -2.61115,-0.89056 -4.10664,-0.35377 -1.20311,-0.61662 -2.56217,-1.26149 -3.9527,-2.04432 l -55.51911,-30.62009 c -0.80655,-0.3739 -1.5658,-0.60577 -2.275,-0.71635 -0.0334,-0.0294 -0.0644,-0.059 -0.0985,-0.0883 l -41.4986,-43.25827 c -4.81871,-3.52993 -14.57408,-0.38761 -18.10402,4.4311 l -1.3e-4,1.2e-4 c -3.52994,4.81871 -2.47554,11.64945 2.34329,15.17951 l 49.98904,33.61037 c 0.54931,0.40238 58.62986,31.15175 58.62986,31.15175 1.8252,1.02758 3.64004,1.95389 5.36265,2.52821 0.25964,0.5151 0.6208,0.958 1.08525,1.2983 l 22.70409,14.72232 c 2.16276,1.5845 7.61454,-3.56342 4.6165,-6.31898" />
	<path
		style="fill:#fe9d70"
		d="m 249.23866,42.751105 c 2.30075,-0.650104 4.59982,-1.32249 5.87203,-1.962705 2.061,-1.036997 3.52862,-6.991601 -5.32297,-4.81275 l -10.73995,3.629431 c -0.37426,0.12821 -0.69931,0.309801 -0.97944,0.533453 0,0 -47.76266,14.477929 -48.3284,14.62151 l -43.83439,9.268515 c -0.7664,0.194697 -1.47845,0.496276 -2.12713,0.882216 -3.00221,0.665356 -5.85345,2.15919 -8.17695,4.482693 l -16.1518,16.151806 c -1.58976,1.589634 -2.79024,3.426631 -3.6037,5.389574 -2.3154,0.114269 -4.56765,1.211678 -6.06363,3.196427 L 82.077947,133.99854 c -0.0392,0.052 -0.07626,0.10486 -0.111885,0.15836 L 39.29772,173.40981 c -6.274532,6.61245 -0.374263,8.28478 1.546977,7.00733 1.186059,-0.78868 2.908311,-2.4535 4.612094,-4.13083 1.133513,-1.116 3.009712,-0.50593 1.090975,1.44581 -4.178255,4.25011 -2.180519,6.45314 -0.911886,4.43503 1.268514,-2.01811 2.788085,-3.30854 2.788085,-3.30854 l 39.699023,-38.23033 c 0.434793,-0.27454 0.86768,-0.64356 1.290796,-1.12149 0,0 22.304566,-23.88942 25.059526,-26.75329 2.75508,-2.86375 5.69425,-2.94322 9.36539,-0.0662 9.06285,7.19809 29.27257,23.51231 32.53167,28.40084 1.06261,1.59392 2.15835,3.04271 3.27828,4.35722 4.92249,7.00412 13.06346,11.58213 22.27454,11.58213 12.11141,0 22.37259,-7.91421 25.89884,-18.85278 1.91802,-3.62729 2.2302,-9.15473 0.52237,-14.86805 -2.09091,-8.51069 -8.18529,-15.44617 -16.17337,-18.69669 -0.006,-0.003 -0.0121,-0.006 -0.0182,-0.009 -8.6059,-4.22723 -22.17278,-21.055712 -28.86566,-29.82676 l 28.69455,-11.118381 c 0.7745,-0.262973 49.34085,-14.180997 49.34085,-14.180997 0.18135,-0.0286 0.36581,-0.07257 0.55347,-0.136789 l 8.12892,-2.735061 c 0,0 1.87335,-0.681681 4.25488,-0.784987 2.38153,-0.103307 1.45606,-2.929759 -4.30492,-1.40292 -2.64557,0.701102 -2.24712,-1.231099 -0.71623,-1.663628" />
	<path
		d="m 223.93286,189.72131 c 0.22758,0.1667 0.46553,0.30694 0.71099,0.42502 1.36277,-3.27042 3.81055,-8.48114 7.03629,-10.22866 -0.1275,-0.0269 -0.25392,-0.0515 -0.37832,-0.0709 -0.0334,-0.0294 -0.0643,-0.059 -0.0984,-0.0883 L 201.27131,148.9468 c 1.51076,4.36485 24.0821,33.04785 22.66155,40.77451"
		style="fill:#f2875c" />
	<path
		d="m 203.39473,146.3425 c 0.12976,-0.0113 0.25797,-0.0248 0.3826,-0.0425 0.0404,0.0183 0.0788,0.0377 0.11987,0.0558 l 39.39375,20.1891 c -2.71885,-3.73393 -30.80084,-24.28157 -33.83009,-34.29003 0,0 -0.72398,8.22127 -6.06613,14.0877"
		style="fill:#f2875c" />
	<path
		style="fill:#f2875c"
		d="m 289.15037,216.25961 h 1.2e-4 c 1.08549,-1.48204 2.49115,-2.52701 3.89788,-3.03199 -1.20285,-0.61662 -2.56192,-1.26148 -3.95245,-2.04444 L 257.46208,193.7364 c 9.0563,6.53739 27.19952,20.52846 29.76562,29.41544 0.23402,0.0891 0.46649,0.17194 0.69741,0.24891 -0.94918,-1.88371 -0.53334,-4.74054 1.22526,-7.14114" />
	<path
		style="fill:#f2875c"
		d="m 303.20741,194.47468 v 0 c -5.42378,0.8597 -13.64909,-1.78874 -22.28252,-5.75562 9.8227,5.76956 17.71356,10.40024 17.71356,10.40024 1.03008,0.65583 2.05862,1.27697 3.07202,1.81341 -0.56419,-1.84892 -0.0603,-4.33208 1.49694,-6.45803" />
	<path
		style="fill:#007362"
		d="m 208.34439,123.30661 c -2.09092,-8.51069 -8.18528,-15.44617 -16.17337,-18.69669 -0.006,-0.003 -0.012,-0.006 -0.0182,-0.009 -6.85195,-3.36562 -16.84826,-14.719093 -24.01645,-23.634197 -5.78076,-1.141614 -11.36992,-4.004171 -15.93221,-8.56634 -2.53892,-2.539054 -4.55073,-5.396367 -6.03336,-8.427526 l -0.26523,0.05601 c -0.7664,0.194697 -1.47847,0.496276 -2.12714,0.882216 -2.03551,0.451117 -3.58094,2.472803 -4.11653,3.555199 l 12.214,11.006852 c 1.03842,0.935717 1.93423,1.972715 2.68835,3.082157 l 15.51123,13.978079 c 7.01043,6.31754 7.57736,17.22216 1.25982,24.23259 -6.31743,7.01042 -17.22217,7.57736 -24.2326,1.25994 0,0 -30.14811,-27.614187 -30.11463,-27.797803 l -3.23229,-2.91272 c -0.45707,0.146201 -0.90199,0.333988 -1.3294,0.560858 6.60662,4.820376 11.18606,12.514505 12.11713,21.371705 9.36396,7.45117 28.64976,23.07477 31.82688,27.84045 1.06261,1.59392 2.15836,3.04272 3.27829,4.35723 4.92261,7.00411 13.06345,11.58212 22.27453,11.58212 7.56961,0 14.41656,-3.09144 19.34823,-8.08066 2.95895,-2.99351 5.22836,-6.67012 6.55061,-10.77212 1.91802,-3.62729 2.2302,-9.15472 0.52237,-14.86804" />
	<path
		style="fill:#0e133b"
		d="M 160.01813,77.732237 130.32089,49.420526 c -5.03354,-5.270421 -11.20321,-8.715164 -18.50247,-8.715164 -11.61799,0 -21.03617,9.418173 -21.03617,21.036167 0,7.558774 4.49449,12.9947 9.97308,17.893837 l 31.60941,28.485084 c 8.39345,7.56389 21.44951,6.88507 29.01342,-1.50837 7.56401,-8.393453 6.88507,-21.449636 -1.36003,-28.879843" />
	<path
		style="fill:#f2875c"
		d="m 124.54351,113.24758 v 0 c -2.7608,-4.12475 -4.94143,-6.30765 -6.62544,-7.37861 -3.44891,-2.19374 -6.38248,1.97998 -7.22204,2.92773 -12.118213,13.67996 -31.653274,40.10594 -46.010857,54.4024 l 23.437835,-22.57087 c 0.434793,-0.27453 0.867679,-0.64356 1.290795,-1.12149 0,0 22.304567,-23.88942 25.059527,-26.75317 2.75496,-2.86387 5.69413,-2.94334 9.36538,-0.0662 z" />
	<path
		style="fill:#f2875c"
		d="m 223.31091,54.639103 c -7.70629,0.500924 -17.05166,1.916473 -27.5664,5.087639 -30.02682,9.055705 -34.80097,10.485553 -34.80097,10.485553 l 2.90546,4.343999 28.13262,-10.900806 c 0.45529,-0.154543 17.41925,-5.025917 31.32929,-9.016385" />
	<path
		style="fill:#f2875c"
		d="M 168.13631,80.966506 Z" />
	<path
		style="fill:#f2875c"
		d="M 76.721715,138.98136 44.54,168.58721 c 2.191719,-0.84266 5.618112,-2.42347 10.816564,-5.38815 6.386299,-3.64206 15.00042,-14.94346 21.365151,-24.2177" />
	<path
		style="fill:#f2875c"
		d="m 247.83174,36.636669 -8.78404,2.968365 c -0.37414,0.12821 -0.69932,0.3098 -0.97933,0.533572 0,0 -47.76264,14.477809 -48.32839,14.621509 l -0.83491,0.176587 c 8.32815,-1.089783 20.17921,-3.047484 33.32428,-6.470183 18.79488,-4.893894 24.11332,-9.703308 25.60239,-11.82985" />
</svg>
