<?xml version="1.0" encoding="utf-8"?>
<svg
	xmlns:dc="http://purl.org/dc/elements/1.1/"
	xmlns:cc="http://creativecommons.org/ns#"
	xmlns:rdf="http://www.w3.org/1999/02/22-rdf-syntax-ns#"
	xmlns:svg="http://www.w3.org/2000/svg"
	xmlns="http://www.w3.org/2000/svg"
	height="371"
	width="371">
	<path
		d="m 259.08843,80.652687 c -0.26234,-0.0061 -0.52367,-0.0048 -0.78303,0.0054 l 2.587,4.273793 c -8.29948,0.324979 -13.02893,5.311857 -10.50959,11.081321 L 291.38069,236.3559 c -1.05079,1.86971 -2.99973,3.42834 -5.79901,4.41406 -3.34009,1.17599 -7.3355,1.34021 -11.27663,0.66051 L 66.107239,165.98295 c -7.856833,-3.61497 -17.291895,-2.88369 -20.96591,1.62464 l -6.214489,7.62429 c 6.065351,5.28135 7.335487,8.45821 7.604759,14.77095 l 217.828491,79.87749 c 4.66608,2.14685 9.88821,2.76152 14.12997,1.962 0.63089,3.35357 2.80963,6.85007 6.5554,9.98048 l 40.17046,33.57244 -54.65377,-18.97372 c -8.32307,-2.88937 -17.12871,-1.15866 -19.56854,3.84588 l -4.1282,8.46413 c -2.43983,5.00442 2.37473,11.46256 10.6978,14.35192 L 293.33026,335.5 h 42.16975 V 233.90199 L 279.0902,94.281949 C 276.64959,88.692676 267.22078,80.84239 259.08843,80.652687 Z"
		style="fill:#dbd7ce" />
	<path
		style="fill:#f2875c"
		d="m 164.44935,51.197164 c -3.52951,3.10767 -8.90989,2.765774 -12.01767,-0.763637 -3.10766,-3.52952 -2.76577,-8.909999 0.76375,-12.01767 3.52941,-3.10767 8.90989,-2.765774 12.01756,0.763637 3.10778,3.529519 2.76577,8.91 -0.76364,12.01767" />
	<path
		style="fill:#0e133b"
		d="M 98.910346,108.09442 88.459711,96.225447 c -2.553503,-2.900033 -2.2699,-7.361929 0.630025,-9.915323 L 144.81478,37.244357 c 2.89993,-2.553503 7.36182,-2.2699 9.91522,0.630025 l 10.45064,11.86908 c 2.5535,2.899925 2.2699,7.36182 -0.63003,9.915216 l -55.72494,49.065872 c -2.90003,2.5534 -7.36193,2.2699 -9.915324,-0.63013" />
	<path
		style="fill:#f2875c"
		d="m 137.07039,215.95676 c 3.52952,-3.10768 8.90989,-2.76578 12.01767,0.76363 3.10767,3.52952 2.76577,8.91 -0.76374,12.01768 -3.52942,3.10766 -8.9099,2.76577 -12.01757,-0.76364 -3.10778,-3.52952 -2.76588,-8.91 0.76364,-12.01767" />
	<path
		style="fill:#0e133b"
		d="m 202.60927,159.05951 10.45064,11.86897 c 2.55361,2.90003 2.27001,7.36193 -0.62992,9.91532 l -55.72505,49.06577 c -2.89992,2.55351 -7.36181,2.2699 -9.91521,-0.63002 L 136.3391,217.41047 c -2.55351,-2.89993 -2.2699,-7.36182 0.63002,-9.91522 l 55.72483,-49.06577 c 2.90014,-2.5535 7.36193,-2.2699 9.91532,0.63003" />
	<path
		style="fill:#fe9d70"
		d="M 47.706394,191.94287 36.734456,179.4818 c -1.807106,-2.05224 -1.606364,-5.20991 0.445877,-7.01691 l 12.461069,-10.97193 c 2.052241,-1.80711 5.209909,-1.60637 7.016906,0.44587 l 10.971939,12.46107 c 1.806998,2.05224 1.606364,5.20991 -0.445877,7.0169 l -12.461069,10.97194 c -2.052241,1.80711 -5.209908,1.60637 -7.016907,-0.44587" />
	<path
		style="fill:#007362"
		d="m 102.16216,157.80965 c 5.46872,-4.05266 13.28623,-3.30648 17.86191,1.89018 l 8.04055,9.13175 17.91794,20.34979 c 2.17347,2.46839 5.97139,2.70975 8.43988,0.53629 l 4.72578,-4.16106 4.48808,-3.95179 -3.95169,-4.48808 -56.4208,-64.07808 -3.951798,-4.48808 -4.488079,3.95169 -0.638214,0.56204 -4.087566,3.59912 -42.949557,37.81713 c -5.937126,5.22758 -6.517585,14.36245 -1.290005,20.29958 l 6.63288,7.53304 c 5.227688,5.93723 14.362457,6.51769 20.299691,1.29 z" />
	<path
		style="fill:#fe9d70"
		d="M 266.58514,80.096432 277.55708,92.5575 c 1.80711,2.052241 1.60636,5.209909 -0.44588,7.016907 l -23.48301,20.676823 c -2.05234,1.807 -5.21001,1.60636 -7.01701,-0.44588 l -10.97193,-12.46107 c -1.807,-2.05224 -1.60637,-5.2099 0.44587,-7.0169 l 23.48311,-20.676826 c 2.05225,-1.807105 5.2098,-1.606363 7.01691,0.445878" />
	<path
		style="fill:#007362"
		d="m 202.42808,121.34436 c -5.46873,4.05265 -13.28623,3.30647 -17.86191,-1.89018 l -8.04055,-9.13175 -17.91795,-20.3498 c -2.17345,-2.468379 -5.97139,-2.709743 -8.43976,-0.536281 l -4.72589,4.161053 -4.48809,3.951799 3.9518,4.488079 56.4207,64.07808 3.9518,4.48808 4.48818,-3.9518 0.63811,-0.56204 4.08767,-3.59902 42.94956,-37.81712 c 5.93702,-5.22769 6.51758,-14.36246 1.2899,-20.29958 l -6.63277,-7.533148 c -5.2277,-5.937126 -14.36257,-6.517585 -20.2997,-1.289897 z" />
	<path
		style="fill:#343acc"
		d="M 168.00505,197.16708 90.16416,108.76177 C 86.247704,104.31388 86.682591,97.470348 91.130586,93.554 L 118.11617,69.793212 c 4.44778,-3.916456 11.29132,-3.481569 15.20777,0.966319 l 77.8409,88.405319 c 3.91634,4.44788 3.48145,11.29141 -0.96643,15.20777 l -26.98558,23.76089 c -4.448,3.91635 -11.29143,3.48147 -15.20778,-0.96643" />
	<path
		style="fill:#fe9d70"
		d="m 200.6063,142.62185 c -16.37375,14.4171 -41.33468,12.83088 -55.75177,-3.54288 -14.4172,-16.37375 -12.83098,-41.334676 3.54278,-55.751764 16.37385,-14.417087 41.33467,-12.83098 55.75187,3.54288 14.41708,16.373754 12.83088,41.334674 -3.54288,55.751764" />
	<path
		style="fill:#0e133b"
		d="m 200.6063,142.62185 c -16.37375,14.4171 -41.33468,12.83088 -55.75177,-3.54288 -14.4172,-16.37375 -12.83098,-41.334676 3.54278,-55.751764 16.37385,-14.417087 52.49023,-9.765009 43.6049,25.553674 -5.32251,21.15706 24.97785,19.32388 8.60409,33.74097" />
</svg>
