<?xml version="1.0" encoding="utf-8"?>
<svg
	xmlns:dc="http://purl.org/dc/elements/1.1/"
	xmlns:cc="http://creativecommons.org/ns#"
	xmlns:rdf="http://www.w3.org/1999/02/22-rdf-syntax-ns#"
	xmlns:svg="http://www.w3.org/2000/svg"
	xmlns="http://www.w3.org/2000/svg"
	width="194"
	height="75">
	<path
	d="M 31.319389,15 C 21.782495,15 12,18.971326 12,38.062795 12,57.15491 23.200066,60 32.638234,60 c 7.814502,0 12.555345,-3.268571 12.555345,-3.268571 0.195408,-0.105706 0.21638,-0.372963 0.21638,-0.495585 l 0,-21.3216 c 0,-0.360971 -0.298558,-0.654011 -0.667056,-0.654011 l -14.285952,0 c -0.3685,0 -0.667436,0.293041 -0.667436,0.654011 l 0,6.836265 c 0,0.360692 0.298936,0.65438 0.667436,0.65438 l 5.573032,0 0,8.49363 c 0,0 -1.251365,0.417668 -4.710594,0.417668 -4.081501,0 -9.783336,-1.460147 -9.783336,-13.731988 0,-12.274615 5.936974,-13.889303 11.510884,-13.889303 4.82473,0 6.903387,0.831405 8.225988,1.231945 0.415511,0.124735 0.799852,-0.280415 0.799852,-0.641453 l 1.593986,-6.605461 c 0,-0.16874 -0.05851,-0.372109 -0.255297,-0.510357 -0.537172,-0.374899 -3.813923,-2.169569 -12.092076,-2.169569 z m 56.42905,1.630038 c -0.366019,0 -0.664375,0.293523 -0.664375,0.657335 l 0,41.198545 c 0,0.363407 0.298356,0.65918 0.664375,0.65918 l 8.043196,0 c 0.3678,0 0.664,-0.295773 0.664,-0.65918 l 0,-17.62207 12.537805,0 -0.0222,17.62207 c 0,0.363407 0.29849,0.65918 0.66629,0.65918 l 8.06266,0 c 0.3685,0 0.66329,-0.295773 0.66399,-0.65918 l 0,-41.198545 c 0,-0.363812 -0.29474,-0.657335 -0.66323,-0.657335 l -8.04356,0 c -0.36745,0 -0.66631,0.293523 -0.66631,0.657335 l 0.003,15.215417 -12.537804,0 0,-15.215417 c 0,-0.363812 -0.296209,-0.657335 -0.664,-0.657335 l -8.043196,0 z m 66.653531,0 c -0.36673,0 -0.66476,0.293523 -0.66476,0.657335 l 0,41.198545 c 0,0.363407 0.29812,0.65918 0.66592,0.65918 l 5.59668,0 c 0.25205,0 0.4426,-0.126935 0.58348,-0.349717 0.13911,-0.221429 0.34002,-1.899618 0.34002,-1.899618 0,0 3.29818,3.059553 9.54215,3.059553 7.33036,0 11.53454,-3.639535 11.53454,-16.338424 0,-12.699164 -6.71431,-14.358668 -11.251,-14.358668 -4.53351,0 -7.61693,1.979754 -7.61693,1.979754 l 0,-13.950605 c 0,-0.363812 -0.2969,-0.657335 -0.66362,-0.657335 l -8.06648,0 z m -99.667753,0.937624 c -2.861982,0 -5.185702,2.291136 -5.185702,5.126093 0,2.832012 2.323719,5.129045 5.185702,5.129045 2.864809,0 5.187224,-2.297033 5.187224,-5.129045 0,-2.834957 -2.322415,-5.126093 -5.187224,-5.126093 z m 12.96024,4.305164 c -0.319649,0 -0.491138,0.137594 -0.491138,0.438346 l 0,8.062672 c 0,0 -4.12061,0.973852 -4.399198,1.05247 -0.27752,0.07879 -0.481589,0.328947 -0.481589,0.627792 l 0,5.066635 c 0,0.364332 0.297356,0.658072 0.665143,0.658072 l 4.215645,0 0,12.189101 c 0,9.053324 6.487861,9.942718 10.865968,9.942718 2.000377,0 4.393016,-0.629022 4.78806,-0.771813 0.238939,-0.08594 0.37779,-0.327919 0.37779,-0.59049 l 0.0073,-5.573669 c 0,-0.363396 -0.313776,-0.657705 -0.667056,-0.657705 -0.351511,0 -1.25106,0.139962 -2.177091,0.139962 -2.963573,0 -3.967596,-1.348793 -3.967596,-3.094636 0,-1.744597 -3.92e-4,-11.583467 -3.92e-4,-11.583467 l 6.034021,0 c 0.367787,0 0.665524,-0.29374 0.665524,-0.658072 l 0,-6.346219 c 0,-0.363708 -0.297737,-0.656596 -0.665524,-0.656596 l -6.033638,0 c 0,0 -0.0092,-7.80059 -0.0092,-7.802323 0,-0.295206 -0.15543,-0.442777 -0.504105,-0.442777 l -8.222554,0 z m -17.03202,8.248793 c -0.367797,0 -0.697203,0.371328 -0.697203,0.732299 l 0,27.246092 c 0,0.800843 0.509803,1.038809 1.169638,1.038809 l 7.224257,0 c 0.792577,0 0.986843,-0.380585 0.986843,-1.051362 l 0,-8.292372 0,-19.01724 c 0,-0.361109 -0.297736,-0.656226 -0.665524,-0.656226 l -8.018011,0 z m 72.312423,0.06204 c -0.36567,0 -0.66515,0.295413 -0.66515,0.658809 l 0,18.9504 c 0,8.193072 4.66495,10.19753 11.08273,10.19753 5.26484,0 9.5101,-2.847215 9.5101,-2.847215 0,0 0.20213,1.500437 0.29345,1.678416 0.0917,0.177441 0.32996,0.356734 0.5873,0.356734 l 5.15365,-0.02253 c 0.36567,0 0.66514,-0.295554 0.66514,-0.657336 l -0.003,-27.656003 c 0,-0.363396 -0.29813,-0.658809 -0.66591,-0.658809 l -7.98214,0 c -0.36603,0 -0.664,0.295413 -0.664,0.658809 l 0,20.200812 c 0,0 -2.02771,1.452041 -4.90598,1.452041 -2.87791,0 -3.6417,-1.277936 -3.6417,-4.036321 l 0,-17.616532 c 0,-0.363396 -0.29764,-0.658809 -0.664,-0.658809 l -8.10083,0 z m 45.17309,6.584411 c 2.45572,0.08558 4.57627,1.470316 4.57627,7.342928 0,7.077272 -1.25017,8.473816 -5.12351,8.359579 -2.76852,-0.08254 -4.64647,-1.31208 -4.64647,-1.31208 l 0,-13.046956 c 0,0 1.85302,-1.11156 4.12597,-1.310235 0.35929,-0.03151 0.71693,-0.04546 1.06774,-0.03324 z"
	style="fill:#151013" />
</svg>
