<?xml version="1.0" encoding="utf-8"?>
<svg
	xmlns:dc="http://purl.org/dc/elements/1.1/"
	xmlns:cc="http://creativecommons.org/ns#"
	xmlns:rdf="http://www.w3.org/1999/02/22-rdf-syntax-ns#"
	xmlns:svg="http://www.w3.org/2000/svg"
	xmlns="http://www.w3.org/2000/svg"
	width="1200"
	height="2200">
	<defs>
		<filter
			style="color-interpolation-filters:sRGB"
			id="shadow">
			<feFlood
				flood-opacity="0.5"
				flood-color="rgb(0,0,0)"
				result="flood" />
			<feComposite
				in="flood"
				in2="SourceGraphic"
				operator="in"
				result="composite1" />
			<feGaussianBlur
				in="composite1"
				stdDeviation="25"
				result="blur" />
			<feOffset
				dx="0"
				dy="15"
				result="offset" />
			<feComposite
				in="SourceGraphic"
				in2="offset"
				operator="over"
				result="composite2" />
		</filter>
	</defs>
	<path
		style="fill:#808080;filter:url(#shadow)"
		d="M 230.92769,45 C 147.94814,45 81,112.43015 81,195.8916 l 0,1810.2168 C 81,2089.5698 147.94814,2157 230.92769,2157 l 720.41404,0 c 82.97957,0 149.92817,-67.4302 152.75707,-150.8916 l 0,-893.3474 c 0.3949,0.2514 0.8148,0.3944 1.2496,0.3944 l 5.3071,0 c 2.4132,0 4.3445,-3.4064 4.3445,-8.5163 l 0,-252.92718 c 0,-4.25803 -1.9313,-8.51631 -4.3445,-8.51631 l -5.7914,0 c -0.2683,0 -0.5216,0.0489 -0.7653,0.13084 l 0,-163.32334 c 0.3975,0.12663 0.8115,0.21677 1.2496,0.21677 l 5.3071,0 c 2.4131,0 4.3445,-1.69002 4.3445,-4.22593 l 0,-125.5282 c 0,-2.11326 -1.9314,-4.22593 -4.3445,-4.22593 l -5.7914,0 c -0.2693,0 -0.5208,0.0294 -0.7653,0.0703 l 0,-350.41852 C 1101.2699,112.43015 1034.3213,45 951.34173,45 l -720.41404,0 z" />
	<path
		style="fill:#d5d6d9"
		d="M 230.9277,44.999999 C 147.9481,44.999999 81,112.43015 81,195.8916 l 0,1810.2168 C 81,2089.5698 147.9481,2157 230.9277,2157 l 720.414,0 c 82.9796,0 149.9282,-67.4302 152.7571,-150.8916 l 0,-893.3474 c 0.3949,0.2514 0.8148,0.3944 1.2496,0.3944 l 5.3071,0 c 2.4132,0 4.3445,-3.4064 4.3445,-8.5163 l 0,-252.92718 c 0,-4.25803 -1.9313,-8.51631 -4.3445,-8.51631 l -5.7914,0 c -0.2683,0 -0.5216,0.0489 -0.7653,0.13084 l 0,-163.32334 c 0.3975,0.12663 0.8115,0.21677 1.2496,0.21677 l 5.3071,0 c 2.4131,0 4.3445,-1.69002 4.3445,-4.22593 l 0,-125.5282 c 0,-2.11326 -1.9314,-4.22593 -4.3445,-4.22593 l -5.7914,0 c -0.2693,0 -0.5208,0.0294 -0.7653,0.0703 l 0,-350.41852 C 1101.2699,112.43015 1034.3213,44.999999 951.3417,44.999999 l -720.414,0 z" />
	<path
		style="fill:#9a9a9a"
		d="m 828.00586,45 0,13.824219 27.99023,0 0,-13.824219 -27.99023,0 z M 81,210.28906 l 0,27.99414 15,0 0,-27.99414 -15,0 z m 1009,0 0,27.99414 14,0 0,-27.99414 -14,0 z M 81.048828,2010.0039 c 0.241017,9.5847 1.373894,18.9406 3.302734,27.9961 l 16.421878,0 c -2.407362,-9.0168 -3.943538,-18.3803 -4.513674,-27.9961 l -15.210938,0 z m 1008.269572,0 c -0.922,9.631 -2.7792,18.9921 -5.4766,27.9961 l 15.832,0 c 2.1755,-9.0556 3.5889,-18.4114 4.1465,-27.9961 l -14.5019,0 z" />
	<path
		style="fill:#f8f8f8"
		d="m 942.81062,2143 -705.28239,0 C 159.21595,2143 96,2079.3485 96,2001.5519 L 96,200.44796 C 96,122.1801 159.6877,59 237.52823,59 l 705.28239,0 C 1023.9535,59 1090,125.00905 1090,206.10588 l 0,1789.78822 C 1090,2076.991 1023.9535,2143 942.81062,2143" />
	<path
		style="fill:#3c3e42"
		d="M 569.99999,197 C 561.50001,197 555,203.50001 555,212.00001 555,220.49999 561.50001,227 569.99999,227 c 0.0496,0 0.097,-0.007 0.14648,-0.008 0.007,8.2e-4 0.0107,0.008 0.0176,0.008 l 43.67185,0 c 0.007,0 0.0109,-0.007 0.0176,-0.008 0.0495,4.4e-4 0.0969,0.008 0.14648,0.008 8.5,0 15,-6.5 15,-14.99999 C 629,204 622.5,197 614,197 c -0.0496,0 -0.097,0.007 -0.14648,0.008 -0.007,-8.2e-4 -0.0107,-0.008 -0.0176,-0.008 l -43.67185,0 c -0.008,0 -0.0122,0.007 -0.0195,0.008 -0.0488,-4.6e-4 -0.0956,-0.008 -0.14453,-0.008 z" />
	<path
		style="fill:#c6c6c6"
		d="M 501.27345,120 C 495.16682,120 490,124.58333 490,130 c 0,5.41667 5.16682,10 11.27345,10 l 42.99999,0 97.92187,0 43,0 C 691.30194,140 696,135.41667 696,130 c 0,-5.41667 -5.16681,-10 -11.27344,-10 l -43,0 -97.45312,0 -42.99999,0 z" />
	<path
		style="fill:#6d6d6d"
		d="m 278,129 c 0,12.09999 -9.90001,22 -22.00001,22 C 243.90001,151 234,141.09999 234,129 c 0,-12.1 9.90001,-22 21.99999,-22 12.1,0 22.00001,9.9 22.00001,22" />
	<path
		style="fill:#171717"
		d="m 268,129 c 0,6.6 -5.40001,12 -12.00001,12 C 249.40001,141 244,135.6 244,129 c 0,-6.6 5.40001,-12 11.99999,-12 6.6,0 12.00001,5.4 12.00001,12" />
	<path
		style="fill:#efefef"
		d="M 501.27345,124 C 495.16682,124 490,127.66666 490,131.99999 490,136.33333 495.16682,140 501.27345,140 l 42.99999,0 97.92187,0 43,0 C 691.30194,140 696,136.33333 696,131.99999 696,127.66666 690.83319,124 684.72656,124 l -43,0 -97.45312,0 -42.99999,0 z" />
	<rect
		x="124"
		y="248"
		width="940"
		height="1665"
		style="fill:#616161" />
	<rect
		x="127"
		y="251"
		width="934"
		height="1659"
		style="fill:#ffffff" />
</svg>
