<?xml version="1.0" encoding="utf-8"?>
<svg
	xmlns:dc="http://purl.org/dc/elements/1.1/"
	xmlns:cc="http://creativecommons.org/ns#"
	xmlns:rdf="http://www.w3.org/1999/02/22-rdf-syntax-ns#"
	xmlns:svg="http://www.w3.org/2000/svg"
	xmlns="http://www.w3.org/2000/svg"
	width="330"
	height="330"
	viewBox="0 0 330 330">
	<path
		d="M 0,330 330,330 330,0 0,0 0,330 Z"
		style="fill:#ffffff" />
	<path
		d="m 33,33 0,7.998106 0,7.998106 0,8.002013 7.998106,0 0,-8.002013 0,-7.998106 7.998106,0 8.002012,0 0,-7.998106 -8.002012,0 -7.998106,0 L 33,33 Z m 24.000177,0 0,7.998106 7.996153,0 8.003965,0 7.998107,0 0,7.998106 0,8.002013 7.998106,0 0,-8.002013 0,-7.998106 0,-7.998106 -7.998106,0 -7.998107,0 -8.003965,0 -7.996153,0 z m 40.000296,0 0,7.998106 0,7.998106 0,8.002013 7.996157,0 0,-8.002013 0,-7.998106 8.00396,0 0,7.998106 0,8.002013 7.99811,0 7.99811,0 8.00201,0 0,-8.002013 0,-7.998106 0,-7.998106 -8.00201,0 0,7.998106 -7.99811,0 0,-7.998106 -7.99811,0 -8.00396,0 -7.996157,0 z m 40.000297,0 0,7.998106 0,7.998106 7.99616,0 8.00396,0 0,-7.998106 0,-7.998106 -8.00396,0 -7.99616,0 z m 16.00012,15.996212 0,8.002013 7.99811,0 7.9981,0 8.00201,0 0,-8.002013 0,-7.998106 -8.00201,0 0,7.998106 -7.9981,0 -7.99811,0 z m 15.99621,-7.998106 0,-7.998106 -7.9981,0 0,7.998106 7.9981,0 z M 177.00106,33 l 0,7.998106 0,7.998106 0,8.002013 7.99616,0 8.00396,0 0,-8.002013 -8.00396,0 0,-7.998106 0,-7.998106 -7.99616,0 z m 16.00012,15.996212 7.99811,0 0,-7.998106 7.99811,0 8.00201,0 0,-7.998106 -8.00201,0 -7.99811,0 -7.99811,0 0,7.998106 0,7.998106 z m 7.99811,0 0,8.002013 7.99811,0 0,-8.002013 -7.99811,0 z M 240.99959,33 l 0,7.998106 0,7.998106 0,8.002013 7.99811,0 0,-8.002013 0,-7.998106 8.002,0 0,-7.998106 -8.002,0 -7.99811,0 z m 16.00206,0 0,7.998106 7.99616,0 8.00396,0 7.99811,0 7.99811,0 0,7.998106 0,8.002013 8.00201,0 0,-8.002013 0,-7.998106 L 297,33 l -8.00201,0 -7.99811,0 -7.99811,0 -8.00396,0 -7.99616,0 z m -208.005438,15.996212 0,8.002013 8.002012,0 0,-8.002013 -8.002012,0 z m 8.003965,0 0,8.002013 7.996153,0 8.003965,0 0,-8.002013 -8.003965,0 -7.996153,0 z m 167.997343,0 0,8.002013 8.00396,0 0,-8.002013 -8.00396,0 z m 32.00413,0 0,8.002013 7.99616,0 8.00396,0 7.99811,0 0,-8.002013 -7.99811,0 -8.00396,0 -7.99616,0 z M 33,57.000178 l 0,7.996153 0,8.003965 0,7.998106 0,7.998106 7.998106,0 7.998106,0 8.002012,0 0,-7.998106 -8.002012,0 -7.998106,0 0,-7.998106 0,-8.003965 0,-7.996153 -7.998106,0 z m 15.996212,0 0,7.996153 0,8.003965 8.002012,0 0,-8.003965 0,-7.996153 -8.002012,0 z m 8.003965,0 0,7.996153 0,8.003965 7.996153,0 8.003965,0 0,-8.003965 0,-7.996153 -8.003965,0 -7.996153,0 z m 23.998225,0 0,7.996153 0,8.003965 0,7.998106 -7.998107,0 -8.003965,0 -7.996153,0 0,7.998106 7.996153,0 8.003965,0 7.998107,0 7.998106,0 0,-7.998106 0,-7.998106 0,-8.003965 0,-7.996153 -7.998106,0 z m 40.000298,0 0,7.996153 -7.99811,0 -8.00396,0 0,8.003965 8.00396,0 7.99811,0 0,7.998106 7.99811,0 0,7.998106 -7.99811,0 0,-7.998106 -7.99811,0 0,7.998106 -8.00396,0 0,-7.998106 0,-7.998106 -7.996157,0 0,7.998106 0,7.998106 0,8.002012 7.996157,0 8.00396,0 7.99811,0 7.99811,0 8.00201,0 0,-8.002012 0,-7.998106 0,-7.998106 -8.00201,0 0,-8.003965 8.00201,0 0,-7.996153 -8.00201,0 -7.99811,0 z m 16.00207,0 0,7.996153 7.99616,0 0,-7.996153 -7.99616,0 z m 7.99616,7.996153 0,8.003965 8.00396,0 0,-8.003965 -8.00396,0 z m 8.00396,0 7.99811,0 0,8.003965 7.9981,0 8.00201,0 0,-8.003965 0,-7.996153 -8.00201,0 -7.9981,0 -7.99811,0 0,7.996153 z m 7.99811,8.003965 -7.99811,0 0,7.998106 7.99811,0 0,-7.998106 z m 0,7.998106 0,7.998106 7.9981,0 0,-7.998106 -7.9981,0 z m 0,7.998106 -7.99811,0 0,-7.998106 -8.00396,0 0,7.998106 0,8.002012 8.00396,0 7.99811,0 0,-8.002012 z m 16.00206,-31.99633 0,7.996153 7.99616,0 8.00396,0 0,-7.996153 -8.00396,0 -7.99616,0 z m 40.0003,0 0,7.996153 0,8.003965 7.99616,0 0,-8.003965 0,-7.996153 -7.99616,0 z m 23.99823,0 0,7.996153 0,8.003965 0,7.998106 0,7.998106 7.99811,0 8.002,0 0,-7.998106 -8.002,0 0,-7.998106 0,-8.003965 0,-7.996153 -7.99811,0 z m 16.00206,0 0,7.996153 0,8.003965 7.99616,0 8.00396,0 7.99811,0 0,-8.003965 0,-7.996153 -7.99811,0 -8.00396,0 -7.99616,0 z m 31.99634,0 0,7.996153 0,8.003965 0,7.998106 -7.99811,0 -7.99811,0 -8.00396,0 -7.99616,0 0,7.998106 7.99616,0 8.00396,0 7.99811,0 7.99811,0 8.00201,0 0,-7.998106 0,-7.998106 0,-8.003965 0,-7.996153 -8.00201,0 z m -80.00059,7.996153 0,8.003965 -7.99811,0 0,7.998106 7.99811,0 0,7.998106 -7.99811,0 0,8.002012 7.99811,0 8.00201,0 0,-8.002012 0,-7.998106 0,-7.998106 0,-8.003965 -8.00201,0 z m -7.99811,24.000177 0,-7.998106 -7.99811,0 0,7.998106 7.99811,0 z m -7.99811,-7.998106 0,-7.998106 -8.00396,0 0,7.998106 8.00396,0 z m -8.00396,0 -7.99616,0 0,7.998106 0,8.002012 7.99616,0 0,-8.002012 0,-7.998106 z m 40.0003,0 0,7.998106 0,8.002012 8.00396,0 0,-8.002012 0,-7.998106 -8.00396,0 z m -176.001308,16.002071 0,7.996157 8.002012,0 0,-7.996157 -8.002012,0 z m 8.003965,0 0,7.996157 0,8.00396 7.996153,0 8.003965,0 0,-8.00396 0,-7.996157 -8.003965,0 -7.996153,0 z m 23.998225,0 0,7.996157 7.998106,0 0,-7.996157 -7.998106,0 z m 7.998106,7.996157 0,8.00396 -7.998106,0 0,7.99811 7.998106,0 8.002012,0 0,-7.99811 0,-8.00396 -8.002012,0 z m -7.998106,16.00207 -7.998107,0 -8.003965,0 -7.996153,0 0,7.99811 0,8.00201 7.996153,0 8.003965,0 0,-8.00201 7.998107,0 0,-7.99811 z m 0,7.99811 0,8.00201 7.998106,0 0,-8.00201 -7.998106,0 z m 16.002071,-31.996337 0,7.996157 0,8.00396 0,7.99811 0,7.99811 0,8.00201 7.996157,0 8.00396,0 0,-8.00201 -8.00396,0 0,-7.99811 0,-7.99811 8.00396,0 0,-8.00396 0,-7.996157 -8.00396,0 -7.996157,0 z m 16.000117,31.996337 7.99811,0 0,8.00201 7.99811,0 8.00201,0 0,-8.00201 -8.00201,0 0,-7.99811 0,-7.99811 0,-8.00396 -7.99811,0 0,8.00396 0,7.99811 -7.99811,0 0,7.99811 z m 24.00018,-31.996337 0,7.996157 7.99616,0 0,-7.996157 -7.99616,0 z m 7.99616,7.996157 0,8.00396 0,7.99811 8.00396,0 0,7.99811 7.99811,0 0,-7.99811 7.9981,0 0,-7.99811 -7.9981,0 0,-8.00396 -7.99811,0 -8.00396,0 z m 16.00207,0 7.9981,0 0,-7.996157 -7.9981,0 0,7.996157 z m -16.00207,16.00207 -7.99616,0 0,7.99811 7.99616,0 0,-7.99811 z m 32.00413,-23.998227 0,7.996157 7.99616,0 0,-7.996157 -7.99616,0 z m 16.00012,0 0,7.996157 0,8.00396 0,7.99811 -8.00396,0 -7.99616,0 0,7.99811 0,8.00201 7.99616,0 0,-8.00201 8.00396,0 7.99811,0 0,8.00201 7.99811,0 8.00201,0 0,-8.00201 0,-7.99811 -8.00201,0 0,-7.99811 -7.99811,0 0,-8.00396 7.99811,0 8.00201,0 0,-7.996157 -8.00201,0 -7.99811,0 -7.99811,0 z m 24.00018,0 0,7.996157 0,8.00396 7.99616,0 0,-8.00396 8.00396,0 7.99811,0 0,8.00396 0,7.99811 7.99811,0 8.002,0 0,-7.99811 -8.002,0 0,-8.00396 8.002,0 0,-7.996157 -8.002,0 -7.99811,0 -7.99811,0 -8.00396,0 -7.99616,0 z m 56.00041,0 0,7.996157 7.99811,0 0,8.00396 0,7.99811 7.99811,0 0,-7.99811 8.00201,0 0,-8.00396 0,-7.996157 -8.00201,0 -7.99811,0 -7.99811,0 z m 15.99622,23.998227 0,7.99811 0,8.00201 8.00201,0 0,-8.00201 0,-7.99811 -8.00201,0 z m -7.99811,0 -7.99811,0 0,7.99811 7.99811,0 0,-7.99811 z m -7.99811,7.99811 -8.00396,0 0,8.00201 8.00396,0 0,-8.00201 z M 33,104.99663 l 0,8.00396 0,7.99811 7.998106,0 0,7.99811 7.998106,0 0,8.00201 8.002012,0 0,-8.00201 0,-7.99811 -8.002012,0 0,-7.99811 -7.998106,0 0,-8.00396 -7.998106,0 z m 7.998106,24.00018 -7.998106,0 0,8.00201 7.998106,0 0,-8.00201 z m 216.003544,-15.99622 0,7.99811 7.99616,0 0,-7.99811 -7.99616,0 z m -32.00413,7.99811 0,7.99811 -7.99616,0 0,8.00201 7.99616,0 8.00396,0 7.99811,0 0,-8.00201 -7.99811,0 0,-7.99811 -8.00396,0 z m -56.00042,7.99811 0,8.00201 8.00201,0 0,-8.00201 -8.00201,0 z m 80.0006,0 0,8.00201 8.002,0 0,-8.00201 -8.002,0 z m -191.997523,8.00396 0,7.99616 0,8.00395 7.996153,0 8.003965,0 7.998107,0 7.998106,0 8.002012,0 0,-8.00395 -8.002012,0 -7.998106,0 0,-7.99616 -7.998107,0 0,7.99616 -8.003965,0 0,-7.99616 -7.996153,0 z m 40.000296,0 0,7.99616 7.996157,0 8.00396,0 0,-7.99616 -8.00396,0 -7.996157,0 z m 31.996337,0 0,7.99616 8.00201,0 0,-7.99616 -8.00201,0 z m 0,7.99616 -7.99811,0 0,8.00395 0,7.99811 0,7.99811 0,8.00201 7.99811,0 0,-8.00201 8.00201,0 0,-7.99811 -8.00201,0 0,-7.99811 0,-8.00395 z m 16.00012,-7.99616 0,7.99616 8.00396,0 0,-7.99616 -8.00396,0 z m 8.00396,7.99616 0,8.00395 7.99811,0 0,-8.00395 -7.99811,0 z m 7.99811,0 7.9981,0 0,-7.99616 -7.9981,0 0,7.99616 z m 7.9981,0 0,8.00395 8.00201,0 0,-8.00395 -8.00201,0 z m 32.00219,-7.99616 0,7.99616 7.99811,0 0,-7.99616 -7.99811,0 z m 0,7.99616 -7.99811,0 0,8.00395 0,7.99811 7.99811,0 7.99811,0 0,-7.99811 -7.99811,0 0,-8.00395 z m 7.99811,16.00206 0,7.99811 -7.99811,0 -7.99811,0 0,8.00201 7.99811,0 7.99811,0 8.00201,0 0,-8.00201 0,-7.99811 -8.00201,0 z m 8.00396,-23.99822 0,7.99616 7.99616,0 0,-7.99616 -7.99616,0 z m 7.99616,7.99616 0,8.00395 0,7.99811 8.00396,0 7.99811,0 7.99811,0 8.002,0 0,-7.99811 -8.002,0 -7.99811,0 -7.99811,0 0,-8.00395 -8.00396,0 z m 8.00396,0 7.99811,0 0,-7.99616 -7.99811,0 0,7.99616 z m 31.99633,-7.99616 0,7.99616 8.00396,0 0,8.00395 -8.00396,0 0,7.99811 8.00396,0 0,7.99811 0,8.00201 7.99811,0 0,-8.00201 0,-7.99811 0,-7.99811 0,-8.00395 7.99811,0 8.00201,0 0,-7.99616 -8.00201,0 -7.99811,0 -7.99811,0 -8.00396,0 z m -223.999704,7.99616 0,8.00395 7.998106,0 8.002012,0 0,-8.00395 -8.002012,0 -7.998106,0 z m 0,8.00395 -7.998106,0 0,7.99811 0,7.99811 7.998106,0 0,-7.99811 0,-7.99811 z m 136.002954,-8.00395 0,8.00395 0,7.99811 0,7.99811 0,8.00201 7.99616,0 0,-8.00201 0,-7.99811 0,-7.99811 0,-8.00395 -7.99616,0 z m -40.00029,8.00395 0,7.99811 0,7.99811 0,8.00201 7.99616,0 8.00396,0 0,-8.00201 0,-7.99811 -8.00396,0 0,-7.99811 -7.99616,0 z m 151.99722,0 0,7.99811 8.00201,0 0,-7.99811 -8.00201,0 z m -224.00166,7.99811 0,7.99811 0,8.00201 8.003965,0 7.998107,0 0,-8.00201 -7.998107,0 0,-7.99811 -8.003965,0 z m 16.002072,7.99811 7.998106,0 8.002012,0 0,-7.99811 -8.002012,0 -7.998106,0 0,7.99811 z m 87.998698,-7.99811 0,7.99811 8.00201,0 0,-7.99811 -8.00201,0 z m 0,7.99811 -7.9981,0 0,8.00201 7.9981,0 0,-8.00201 z m -120.000888,0 0,8.00201 8.002012,0 0,-8.00201 -8.002012,0 z m 168.005148,0 0,8.00201 7.99616,0 8.00396,0 7.99811,0 7.99811,0 0,-8.00201 -7.99811,0 -7.99811,0 -8.00396,0 -7.99616,0 z m -176.003254,8.00396 0,7.99616 -7.998106,0 0,8.00396 7.998106,0 7.998106,0 8.002012,0 0,-8.00396 0,-7.99616 -8.002012,0 -7.998106,0 z m 32.002189,0 0,7.99616 -8.003965,0 -7.996153,0 0,8.00396 7.996153,0 0,7.99811 0,7.99811 -7.996153,0 0,8.00201 7.996153,0 8.003965,0 0,-8.00201 7.998107,0 0,-7.99811 -7.998107,0 0,-7.99811 7.998107,0 0,-8.00396 7.998106,0 8.002012,0 0,-7.99616 -8.002012,0 -7.998106,0 -7.998107,0 z m 7.998107,16.00012 0,7.99811 7.998106,0 0,7.99811 8.002012,0 0,-7.99811 0,-7.99811 -8.002012,0 -7.998106,0 z m 7.998106,15.99622 -7.998106,0 0,8.00201 7.998106,0 0,-8.00201 z m 16.000122,-31.99634 0,7.99616 -7.996157,0 0,8.00396 7.996157,0 0,7.99811 8.00396,0 0,-7.99811 0,-8.00396 7.99811,0 7.99811,0 8.00201,0 0,-7.99616 -8.00201,0 -7.99811,0 -7.99811,0 -8.00396,0 z m 8.00396,23.99823 0,7.99811 0,8.00201 7.99811,0 7.99811,0 8.00201,0 0,-8.00201 -8.00201,0 -7.99811,0 0,-7.99811 -7.99811,0 z m -8.00396,0 -7.996157,0 0,7.99811 7.996157,0 0,-7.99811 z m 48.00426,-23.99823 0,7.99616 7.99811,0 7.9981,0 0,-7.99616 -7.9981,0 -7.99811,0 z m 24.00017,0 0,7.99616 0,8.00396 0,7.99811 7.99616,0 0,7.99811 8.00396,0 0,8.00201 7.99811,0 0,-8.00201 7.99811,0 8.00201,0 0,-7.99811 0,-7.99811 0,-8.00396 -8.00201,0 -7.99811,0 -7.99811,0 -8.00396,0 0,-7.99616 -7.99616,0 z m 71.99664,0 0,7.99616 8.002,0 0,-7.99616 -8.002,0 z m 0,7.99616 -7.99811,0 -7.99811,0 -8.00396,0 -7.99616,0 0,8.00396 7.99616,0 8.00396,0 0,7.99811 -8.00396,0 -7.99616,0 0,7.99811 7.99616,0 8.00396,0 0,8.00201 7.99811,0 0,-8.00201 7.99811,0 0,-7.99811 -7.99811,0 0,-7.99811 7.99811,0 0,-8.00396 z m 8.00395,-7.99616 0,7.99616 0,8.00396 7.99616,0 8.00396,0 0,7.99811 7.99811,0 0,7.99811 -7.99811,0 0,8.00201 7.99811,0 7.99811,0 0,-8.00201 8.00201,0 0,-7.99811 -8.00201,0 0,-7.99811 8.00201,0 0,-8.00396 -8.00201,0 0,-7.99616 -7.99811,0 -7.99811,0 -8.00396,0 -7.99616,0 z m -128.00484,16.00012 0,7.99811 8.00201,0 0,-7.99811 -8.00201,0 z m 24.00408,0 0,7.99811 0,7.99811 7.99811,0 0,8.00201 7.9981,0 8.00201,0 0,-8.00201 0,-7.99811 -8.00201,0 0,-7.99811 -7.9981,0 -7.99811,0 z m 40.00029,0 7.99811,0 7.99811,0 0,7.99811 -7.99811,0 -7.99811,0 0,-7.99811 z m -152.003074,15.99622 0,8.00201 7.998106,0 8.002012,0 0,-8.00201 -8.002012,0 -7.998106,0 z m 96.002664,0 0,8.00201 7.99616,0 0,-8.00201 -7.99616,0 z m -96.002664,8.00396 0,7.99616 0,8.00396 7.998106,0 0,-8.00396 8.002012,0 0,-7.99616 -8.002012,0 -7.998106,0 z m 16.002071,0 0,7.99616 7.996153,0 0,-7.99616 -7.996153,0 z m 16.000118,0 0,7.99616 7.998107,0 0,-7.99616 -7.998107,0 z m 7.998107,7.99616 0,8.00396 7.998106,0 0,-8.00396 -7.998106,0 z m 23.998228,-7.99616 0,7.99616 8.00396,0 0,-7.99616 -8.00396,0 z m 16.00207,0 0,7.99616 7.99811,0 0,8.00396 8.00201,0 0,-8.00396 0,-7.99616 -8.00201,0 -7.99811,0 z m 32.00219,0 0,7.99616 0,8.00396 0,7.99811 7.99811,0 0,7.9981 0,8.00201 7.9981,0 8.00201,0 0,-8.00201 -8.00201,0 0,-7.9981 0,-7.99811 -7.9981,0 0,-8.00396 7.9981,0 0,8.00396 8.00201,0 0,-8.00396 0,-7.99616 -8.00201,0 -7.9981,0 -7.99811,0 z m 0,23.99823 -8.00396,0 -7.99616,0 0,7.9981 7.99616,0 8.00396,0 0,-7.9981 z m 31.99633,-23.99823 0,7.99616 0,8.00396 8.00396,0 7.99811,0 7.99811,0 0,7.99811 8.00201,0 0,-7.99811 0,-8.00396 -8.00201,0 0,-7.99616 -7.99811,0 -7.99811,0 -8.00396,0 z m 0,16.00012 -7.99616,0 0,7.99811 0,7.9981 7.99616,0 0,8.00201 8.00396,0 7.99811,0 7.99811,0 0,-8.00201 -7.99811,0 -7.99811,0 0,-7.9981 -8.00396,0 0,-7.99811 z m 32.00414,-16.00012 0,7.99616 7.99616,0 0,-7.99616 -7.99616,0 z m 7.99616,7.99616 0,8.00396 -7.99616,0 0,7.99811 0,7.9981 7.99616,0 0,8.00201 8.00396,0 0,-8.00201 0,-7.9981 0,-7.99811 7.99811,0 7.99811,0 8.002,0 0,-8.00396 0,-7.99616 -8.002,0 -7.99811,0 0,7.99616 -7.99811,0 -8.00396,0 z m 32.00413,-7.99616 0,7.99616 0,8.00396 0,7.99811 0,7.9981 0,8.00201 7.99616,0 8.00396,0 7.99811,0 7.99811,0 8.00201,0 0,-8.00201 -8.00201,0 0,-7.9981 0,-7.99811 -7.99811,0 0,-8.00396 0,-7.99616 -7.99811,0 -8.00396,0 -7.99616,0 z m 31.99634,0 0,7.99616 8.00201,0 0,-7.99616 -8.00201,0 z m -151.99722,7.99616 0,8.00396 7.99616,0 0,-8.00396 -7.99616,0 z m -40.000297,8.00396 0,7.99811 7.996157,0 0,-7.99811 -7.996157,0 z M 33,240.99959 l 0,7.9981 0,8.00201 7.998106,0 0,-8.00201 7.998106,0 8.002012,0 0,-7.9981 -8.002012,0 -7.998106,0 -7.998106,0 z m 24.000177,0 0,7.9981 7.996153,0 8.003965,0 7.998107,0 0,8.00201 7.998106,0 0,-8.00201 0,-7.9981 -7.998106,0 -7.998107,0 -8.003965,0 -7.996153,0 z m 56.000413,0 0,7.9981 -8.00396,0 0,8.00201 8.00396,0 7.99811,0 7.99811,0 0,-8.00201 -7.99811,0 0,-7.9981 -7.99811,0 z m 15.99622,7.9981 8.00201,0 0,-7.9981 -8.00201,0 0,7.9981 z m 112.00278,-7.9981 0,7.9981 7.99811,0 0,-7.9981 -7.99811,0 z m 23.99822,0 8.00396,0 7.99811,0 0,7.9981 -7.99811,0 -8.00396,0 0,-7.9981 z M 33,257.00165 l 0,7.99616 0,8.00396 0,7.99811 0,7.99811 0,8.00201 7.998106,0 7.998106,0 8.002012,0 0,-8.00201 -8.002012,0 -7.998106,0 0,-7.99811 0,-7.99811 0,-8.00396 0,-7.99616 -7.998106,0 z m 15.996212,0 0,7.99616 0,8.00396 0,7.99811 8.002012,0 0,-7.99811 0,-8.00396 0,-7.99616 -8.002012,0 z m 8.003965,0 0,7.99616 0,8.00396 0,7.99811 7.996153,0 8.003965,0 0,-7.99811 0,-8.00396 0,-7.99616 -8.003965,0 -7.996153,0 z m 23.998225,0 0,7.99616 0,8.00396 0,7.99811 0,7.99811 -7.998107,0 -8.003965,0 -7.996153,0 0,8.00201 7.996153,0 8.003965,0 7.998107,0 7.998106,0 0,-8.00201 0,-7.99811 0,-7.99811 0,-8.00396 0,-7.99616 -7.998106,0 z m 16.002071,0 0,7.99616 0,8.00396 0,7.99811 7.996157,0 0,7.99811 8.00396,0 0,-7.99811 0,-7.99811 -8.00396,0 0,-8.00396 8.00396,0 0,8.00396 7.99811,0 0,-8.00396 0,-7.99616 -7.99811,0 -8.00396,0 -7.996157,0 z m 23.998227,16.00012 0,7.99811 7.99811,0 0,-7.99811 -7.99811,0 z m 7.99811,-16.00012 0,7.99616 8.00201,0 0,-7.99616 -8.00201,0 z m 16.00012,0 0,7.99616 8.00396,0 7.99811,0 0,8.00396 7.9981,0 0,7.99811 -7.9981,0 0,7.99811 -7.99811,0 0,8.00201 7.99811,0 7.9981,0 8.00201,0 0,-8.00201 0,-7.99811 0,-7.99811 0,-8.00396 -8.00201,0 0,-7.99616 -7.9981,0 -7.99811,0 -8.00396,0 z m 8.00396,31.99634 0,-7.99811 -8.00396,0 0,7.99811 8.00396,0 z m -8.00396,0 -7.99616,0 0,8.00201 7.99616,0 0,-8.00201 z m 0,-7.99811 0,-7.99811 -7.99616,0 0,7.99811 7.99616,0 z m 8.00396,0 7.99811,0 0,-7.99811 -7.99811,0 0,7.99811 z m 31.99633,-23.99823 0,7.99616 -7.99616,0 0,8.00396 0,7.99811 0,7.99811 7.99616,0 0,-7.99811 8.00396,0 7.99811,0 0,-7.99811 0,-8.00396 -7.99811,0 0,-7.99616 -8.00396,0 z m 16.00207,7.99616 7.99811,0 0,-7.99616 -7.99811,0 0,7.99616 z m 23.99823,-7.99616 0,7.99616 -7.99616,0 0,8.00396 7.99616,0 0,7.99811 -7.99616,0 0,7.99811 0,8.00201 7.99616,0 8.00396,0 0,-8.00201 0,-7.99811 0,-7.99811 7.99811,0 0,-8.00396 7.99811,0 8.002,0 0,-7.99616 -8.002,0 -7.99811,0 -7.99811,0 -8.00396,0 z m 16.00207,16.00012 0,7.99811 0,7.99811 0,8.00201 7.99811,0 0,-8.00201 0,-7.99811 0,-7.99811 -7.99811,0 z m 16.00206,-16.00012 0,7.99616 0,8.00396 7.99616,0 0,-8.00396 0,-7.99616 -7.99616,0 z m 7.99616,16.00012 0,7.99811 0,7.99811 8.00396,0 7.99811,0 0,-7.99811 -7.99811,0 0,-7.99811 -8.00396,0 z m 16.00207,15.99622 0,8.00201 7.99811,0 0,-8.00201 -7.99811,0 z m -16.00207,0 -7.99616,0 0,8.00201 7.99616,0 0,-8.00201 z m 8.00396,-31.99634 0,7.99616 7.99811,0 0,-7.99616 -7.99811,0 z m 15.99622,7.99616 0,8.00396 8.00201,0 0,-8.00396 -8.00201,0 z m -167.99929,24.00018 0,8.00201 7.99811,0 0,-8.00201 -7.99811,0 z m 72.00248,0 0,8.00201 7.99811,0 0,-8.00201 -7.99811,0 z"
		style="fill:#000000" />
	<circle
		r="30"
		cy="165"
		cx="165"
		style="fill:#f7931a" />
	<path
		d="m 178.16704,160.78672 c 0.59896,-4.01407 -2.45367,-6.17208 -6.62829,-7.61155 l 1.35578,-5.43725 -3.30692,-0.82472 -1.32084,5.29427 c -0.86831,-0.21659 -1.76072,-0.42231 -2.64771,-0.62381 l 1.32566,-5.32926 -3.3036,-0.82471 -1.35188,5.43513 -6.66807,-1.65364 -0.87977,3.53565 c 0,0 2.45309,0.56288 2.40127,0.59787 1.33892,0.33483 1.58175,1.22168 1.54078,1.92513 l -3.71005,14.8955 c -0.1639,0.40722 -0.57907,1.01777 -1.51486,0.78428 0.0331,0.0483 -2.40307,-0.6033 -2.40307,-0.6033 l -1.64141,3.79447 6.65843,1.68321 -1.36844,5.50059 3.3021,0.82472 1.35579,-5.44147 c 0.90386,0.24493 1.77759,0.47117 2.63385,0.68413 l -1.35037,5.41614 3.30633,0.82471 1.36843,-5.49004 c 5.63798,1.06785 9.87769,0.63709 11.6598,-4.46442 1.43774,-4.10999 -0.0705,-6.48096 -3.03697,-8.02783 2.16022,-0.50074 3.78716,-1.92271 4.22132,-4.8617 m -7.55355,10.60362 c -1.02438,4.10999 -7.93439,1.88894 -10.17656,1.33088 l 1.81556,-7.28637 c 2.24097,0.55987 9.42695,1.66874 8.3622,5.95489 m 1.02437,-10.66335 c -0.93218,3.74047 -6.68584,1.84006 -8.55321,1.37371 l 1.64382,-6.61036 c 1.86798,0.46696 7.87894,1.33631 6.90698,5.23635"
		style="fill:#ffffff" />
</svg>
